<svg width="2847" height="2249" viewBox="0 0 2847 2249" fill="none" xmlns="http://www.w3.org/2000/svg">
<!--<rect width="2847" height="2249" rx="2" fill="white"/>-->
<rect x="0.5" y="0.5" width="2846" height="2248" rx="1.5" stroke="black" stroke-opacity="0.1"/>
<path d="M216 207V192H226V207H251C253.762 207 256 209.238 256 212V242C256 244.761 253.762 247 251 247H191.001C188.239 247 186.001 244.761 186.001 242V212C186.001 209.238 188.239 207 191.001 207H216ZM173.554 181.184C180.172 161.321 198.914 147 221 147C243.088 147 261.83 161.321 268.448 181.184L258.958 184.347C253.664 168.457 238.67 157 221 157C203.331 157 188.337 168.457 183.043 184.347L173.554 181.184ZM192.532 187.511C196.503 175.593 207.749 167 221 167C234.253 167 245.498 175.593 249.469 187.511L239.979 190.674C237.332 182.729 229.835 177 221 177C212.166 177 204.669 182.729 202.022 190.674L192.532 187.511Z" fill="#264a92"/>
<path d="M411 242V202H351V242H341C338.239 242 336 239.761 336 237V157C336 154.239 338.239 152 341 152H406L426 172V237C426 239.761 423.761 242 421 242H411ZM401 242H361V212H401V242Z" fill="#264a92"/>
<path d="M545.99 147V152H580.99V162H545.99V232H565.99V242H515.99V232H535.99V162H500.99V152H535.99V147H545.99ZM505.99 168.716L520.132 182.858C523.752 186.477 525.99 191.477 525.99 197C525.99 208.046 517.036 217 505.99 217C494.945 217 485.99 208.046 485.99 197C485.99 191.477 488.229 186.477 491.848 182.858L505.99 168.716ZM575.99 168.716L590.132 182.858C593.752 186.477 595.99 191.477 595.99 197C595.99 208.046 587.036 217 575.99 217C564.944 217 555.99 208.046 555.99 197C555.99 191.477 558.229 186.477 561.848 182.858L575.99 168.716ZM575.99 182.858L568.919 189.929C567.049 191.799 565.99 194.303 565.99 197L585.99 197.005C585.99 194.303 584.931 191.799 583.062 189.929L575.99 182.858ZM505.99 182.858L498.919 189.929C497.049 191.799 495.99 194.303 495.99 197L515.99 197.005C515.99 194.303 514.931 191.799 513.061 189.929L505.99 182.858Z" fill="#264a92"/>
<path d="M756 232H751V182H731V169.928L701 139.928L671 169.928V182H651V232H646V242H756V232ZM671 232H661V192H671V232ZM731 192H741V232H731V192ZM696 197H706V232H696V197Z" fill="#264a92"/>
<path d="M891.155 220.084L912.568 241.497L905.497 248.568L884.084 227.155C876.384 233.315 866.62 237 856 237C831.16 237 811 216.84 811 192C811 167.16 831.16 147 856 147C880.84 147 901 167.16 901 192C901 202.62 897.315 212.384 891.155 220.084Z" fill="#264a92"/>
<path d="M981 152H1061C1063.76 152 1066 154.239 1066 157V192H976V157C976 154.239 978.239 152 981 152ZM976 202H1066V237C1066 239.761 1063.76 242 1061 242H981C978.239 242 976 239.761 976 237V202ZM996 217V227H1011V217H996ZM996 167V177H1011V167H996Z" fill="#264a92"/>
<path d="M204.432 578L217.465 564.967C219.418 563.015 222.584 563.015 224.536 564.967L237.569 578H256.001C258.762 578 261.001 580.239 261.001 583V601.432L274.034 614.465C275.986 616.418 275.986 619.584 274.034 621.536L261.001 634.569V653.001C261.001 655.762 258.762 658.001 256.001 658.001H237.569L224.536 671.034C222.584 672.986 219.418 672.986 217.465 671.034L204.432 658.001H186C183.239 658.001 181 655.762 181 653.001V634.569L167.967 621.536C166.015 619.584 166.015 616.418 167.967 614.465L181 601.432V583C181 580.239 183.239 578 186 578H204.432ZM221.001 633.001C229.285 633.001 236.001 626.285 236.001 618.001C236.001 609.716 229.285 603 221.001 603C212.716 603 206 609.716 206 618.001C206 626.285 212.716 633.001 221.001 633.001Z" fill="#264a92"/>
<path d="M370.77 569.053C377.438 567.657 384.403 567.613 391.224 569.039C392.109 574.837 395.524 580.195 400.998 583.355C406.472 586.516 412.82 586.794 418.283 584.661C422.929 589.856 426.373 595.91 428.498 602.383C423.926 606.048 420.998 611.68 420.998 617.996C420.998 624.316 423.929 629.951 428.506 633.616C427.45 636.818 426.052 639.961 424.299 642.996C422.547 646.031 420.524 648.813 418.279 651.329C412.817 649.198 406.471 649.477 400.998 652.637C395.528 655.795 392.115 661.147 391.226 666.939C384.559 668.335 377.593 668.379 370.772 666.953C369.887 661.155 366.473 655.797 360.998 652.637C355.524 649.476 349.177 649.198 343.714 651.331C339.068 646.136 335.623 640.082 333.498 633.609C338.071 629.944 340.998 624.312 340.998 617.996C340.998 611.676 338.067 606.041 333.49 602.376C334.547 599.174 335.945 596.031 337.697 592.996C339.45 589.961 341.472 587.179 343.717 584.663C349.18 586.794 355.525 586.515 360.998 583.355C366.468 580.197 369.882 574.845 370.77 569.053ZM380.998 632.996C389.282 632.996 395.998 626.28 395.998 617.996C395.998 609.712 389.282 602.996 380.998 602.996C372.714 602.996 365.998 609.712 365.998 617.996C365.998 626.28 372.714 632.996 380.998 632.996Z" fill="#264a92"/>
<path d="M577.457 588H581.001C583.763 588 586.001 590.238 586.001 593V627.999C586.001 630.761 583.763 632.999 581.001 632.999H571.001L550.16 603.821C547.672 600.34 543.246 598.826 539.148 600.055L526.722 603.783C523.199 604.84 519.379 603.878 516.778 601.276L515.314 599.812C513.083 597.581 513.451 593.867 516.076 592.117L543.081 574.113C546.376 571.917 550.656 571.871 553.997 573.997L574.773 587.218C575.575 587.729 576.507 588 577.457 588ZM506.135 629.473L498.057 636.542C495.7 638.604 495.797 642.301 498.26 644.237L523.964 664.432C526.364 666.318 529.88 665.632 531.394 662.981L534.913 656.822C537.063 653.06 536.546 648.341 533.631 645.134L520.12 630.272C516.455 626.24 510.236 625.885 506.135 629.473ZM516.228 583H496C493.239 583 491 585.239 491 588V625.579C491 627.621 491.624 629.586 492.751 631.232C492.87 631.119 492.993 631.007 493.118 630.898L501.197 623.829C508.373 617.55 519.255 618.171 525.669 625.227L539.181 640.089C544.281 645.7 545.188 653.959 541.425 660.543L538.154 666.269C540.969 667.335 544.175 667.095 546.845 665.493L568.891 652.265C571.393 650.764 572.083 647.448 570.388 645.073L544.055 608.18C543.432 607.31 542.326 606.932 541.301 607.239L528.875 610.967C522.709 612.817 516.025 611.132 511.472 606.579L510.008 605.116C504.431 599.538 505.35 590.252 511.914 585.876L516.228 583Z" fill="#264a92"/>
<path d="M659.915 572.13L701 563L742.085 572.13C744.372 572.638 746 574.667 746 577.011V626.945C746 636.975 740.987 646.342 732.641 651.906L701 673L669.359 651.906C661.013 646.342 656 636.975 656 626.945V577.011C656 574.667 657.628 572.638 659.915 572.13Z" fill="#264a92"/>
<path d="M861 560.5L881 598L918.5 618L881 638L861 675.5L841 638L803.5 618L841 598L861 560.5Z" fill="#264a92"/>
<path d="M995.99 578V613L1020.99 600.5L1045.99 613V578H1060.99C1063.75 578 1065.99 580.239 1065.99 583V663C1065.99 665.761 1063.75 668 1060.99 668H980.99C978.229 668 975.99 665.761 975.99 663V583C975.99 580.239 978.229 578 980.99 578H995.99ZM1020.99 598L998.49 573H1043.49L1020.99 598ZM1025.99 614.181L1020.99 611.681L1015.99 614.181V658H1025.99V614.181ZM1035.99 628V638H1055.99V628H1035.99Z" fill="#264a92"/>
<path d="M181.022 329.084L164.809 312.871L171.88 305.8L188.093 322.013H264.301C267.063 322.013 269.301 324.252 269.301 327.013C269.301 327.5 269.23 327.984 269.091 328.45L257.091 368.45C256.457 370.565 254.509 372.013 252.301 372.013H191.022V382.014H246.022V392.014H186.022C183.26 392.014 181.022 389.775 181.022 387.014V329.084ZM188.522 412.014C184.38 412.014 181.022 408.656 181.022 404.514C181.022 400.371 184.38 397.014 188.522 397.014C192.664 397.014 196.022 400.371 196.022 404.514C196.022 408.656 192.664 412.014 188.522 412.014ZM248.522 412.014C244.38 412.014 241.022 408.656 241.022 404.514C241.022 400.371 244.38 397.014 248.522 397.014C252.664 397.014 256.022 400.371 256.022 404.514C256.022 408.656 252.664 412.014 248.522 412.014Z" fill="#264a92"/>
<path d="M381.002 312C402.424 312 422.098 319.484 437.552 331.98L381.002 402L324.45 331.984C339.904 319.485 359.579 312 381.002 312Z" fill="#264a92"/>
<path d="M541 322V307H531V322H501C498.239 322 496 324.239 496 327V367C496 369.762 498.239 372 501 372H568.071L589.535 350.535C591.488 348.583 591.488 345.417 589.535 343.464L568.071 322H541ZM541 382H531V407H541V382Z" fill="#264a92"/>
<path d="M706 387V397H726V407H676V397H696V387H656C653.239 387 651 384.761 651 382V317C651 314.239 653.239 312 656 312H746C748.761 312 751 314.239 751 317V382C751 384.761 748.761 387 746 387H706ZM691 334.5V364.5L716 349.5L691 334.5Z" fill="#264a92"/>
<path d="M866 402V412H856V402H816C813.239 402 811 399.761 811 397V327H911V397C911 399.761 908.761 402 906 402H866ZM841 347C832.716 347 826 353.715 826 362C826 370.285 832.716 377 841 377C849.284 377 856 370.285 856 362H841V347ZM866 347V357H896V347H866ZM866 367V377H896V367H866ZM811 312H911V322H811V312Z" fill="#264a92"/>
<path d="M991 307H1051C1053.76 307 1056 309.239 1056 312V402C1056 404.761 1053.76 407 1051 407H991C988.239 407 986 404.761 986 402V312C986 309.239 988.239 307 991 307ZM1021 382C1018.24 382 1016 384.239 1016 387C1016 389.761 1018.24 392 1021 392C1023.76 392 1026 389.761 1026 387C1026 384.239 1023.76 382 1021 382Z" fill="#264a92"/>
<path d="M206 728C226.338 728 243.13 743.178 245.669 762.825L256.921 780.519C257.662 781.684 257.512 783.424 255.796 784.159L246 788.355V803C246 808.523 241.523 813 236 813H226.005L226 828H181L181.001 809.531C181.002 803.626 178.818 798.043 174.778 793.006C169.285 786.156 166 777.462 166 768C166 745.909 183.909 728 206 728ZM266.768 808.512L258.447 802.965C263.218 795.821 266 787.236 266 778C266 768.765 263.218 760.179 258.447 753.036L266.768 747.489C272.6 756.219 276 766.713 276 778C276 789.288 272.6 799.781 266.768 808.512Z" fill="#264a92"/>
<path d="M406 783C417.046 783 426 791.954 426 803C426 814.046 417.046 823 406 823C395.289 823 386 814.05 386 803H376C376 814.046 367.046 823 356 823C344.954 823 336 814.046 336 803C336 791.954 344.954 783 356 783C363.403 783 369.866 787.021 373.324 793H388.676C392.134 787.021 398.598 783 406 783ZM331 778V768H341V753C341 741.954 349.954 733 361 733H401C412.046 733 421 741.954 421 753V768H431V778H331Z" fill="#264a92"/>
<path d="M581.417 770.499L587.427 774.106C588.611 774.816 588.995 776.352 588.285 777.536C588.073 777.888 587.779 778.182 587.427 778.393L541 806.249L494.573 778.393C493.389 777.683 493.005 776.147 493.716 774.963C493.927 774.611 494.221 774.317 494.573 774.106L500.584 770.499L541 794.749L581.417 770.499ZM581.417 793.999L587.427 797.606C588.611 798.316 588.995 799.852 588.285 801.036C588.073 801.388 587.779 801.682 587.427 801.893L543.572 828.206C541.989 829.156 540.011 829.156 538.428 828.206L494.573 801.893C493.389 801.183 493.005 799.647 493.716 798.463C493.927 798.111 494.221 797.817 494.573 797.606L500.584 793.999L541 818.249L581.417 793.999ZM543.572 724.543L587.427 750.856C588.611 751.566 588.995 753.102 588.285 754.286C588.073 754.638 587.779 754.932 587.427 755.143L541 782.999L494.573 755.143C493.389 754.433 493.005 752.897 493.716 751.713C493.927 751.362 494.221 751.067 494.573 750.856L538.428 724.543C540.011 723.593 541.989 723.593 543.572 724.543Z" fill="#264a92"/>
<path d="M716 733H746V823H656V793H676V773H696V753H716V733Z" fill="#264a92"/>
<path d="M861 808C844.431 808 831 794.568 831 778C831 761.431 844.431 748 861 748C877.568 748 891 761.431 891 778C891 794.568 877.568 808 861 808ZM856 723H866V738H856V723ZM856 818H866V833H856V818ZM818.574 742.645L825.645 735.574L836.251 746.18L829.18 753.251L818.574 742.645ZM885.748 809.82L892.82 802.748L903.426 813.355L896.355 820.426L885.748 809.82ZM896.355 735.574L903.426 742.645L892.82 753.251L885.748 746.18L896.355 735.574ZM829.18 802.748L836.251 809.82L825.645 820.426L818.574 813.355L829.18 802.748ZM916 773V783H901V773H916ZM821 773V783H806V773H821Z" fill="#264a92"/>
<path d="M1021.02 828.014C993.41 828.014 971.024 805.628 971.024 778.014C971.024 750.4 993.41 728.014 1021.02 728.014C1048.64 728.014 1071.02 750.4 1071.02 778.014C1071.02 805.628 1048.64 828.014 1021.02 828.014ZM996.024 763.014H1006.02V783.014H1016.02V763.014H1026.02L1011.02 745.514L996.024 763.014ZM1046.02 793.014H1036.02V773.014H1026.02V793.014H1016.02L1031.02 810.514L1046.02 793.014Z" fill="#264a92"/>
<path d="M266 1008V1098.04C266 1100.78 263.775 1103 261.033 1103H180.967C178.224 1103 176 1100.72 176 1098.04V1007.96C176 1005.22 178.225 1003 180.967 1003H261C263.761 1003 266 1005.24 266 1008ZM217.465 1058.61L205.09 1046.23L198.019 1053.3L217.465 1072.75L245.748 1044.46L238.677 1037.39L217.465 1058.61Z" fill="#264a92"/>
<path d="M336 1008H426C428.761 1008 431 1010.24 431 1013V1093C431 1095.76 428.761 1098 426 1098H336C333.239 1098 331 1095.76 331 1093V1013C331 1010.24 333.239 1008 336 1008ZM381 1068V1078H411V1068H381ZM363.071 1053L348.929 1067.14L356 1074.21L377.213 1053L356 1031.79L348.929 1038.86L363.071 1053Z" fill="#264a92"/>
<path d="M591 1068H576V1008H591C593.761 1008 596 1010.24 596 1013V1063C596 1065.76 593.761 1068 591 1068ZM564.535 1074.46L532.533 1106.47C531.653 1107.35 530.261 1107.45 529.265 1106.7L525.002 1103.5C522.579 1101.68 521.487 1098.59 522.234 1095.65L528.001 1073H496C490.477 1073 486 1068.52 486 1063V1052.48C486 1051.17 486.256 1049.88 486.753 1048.67L502.225 1011.1C502.997 1009.22 504.822 1008 506.848 1008H561C563.761 1008 566 1010.24 566 1013V1070.93C566 1072.25 565.473 1073.53 564.535 1074.46Z" fill="#264a92"/>
<path d="M651 1038H666V1098H651C648.239 1098 646 1095.76 646 1093V1043C646 1040.24 648.239 1038 651 1038ZM677.464 1031.54L709.467 999.533C710.347 998.653 711.74 998.554 712.734 999.301L716.997 1002.5C719.421 1004.32 720.513 1007.41 719.766 1010.35L713.999 1033H746C751.523 1033 756 1037.48 756 1043V1053.52C756 1054.83 755.744 1056.12 755.247 1057.33L739.775 1094.9C739.003 1096.78 737.177 1098 735.151 1098H681C678.239 1098 676 1095.76 676 1093V1035.07C676 1033.74 676.527 1032.47 677.464 1031.54Z" fill="#264a92"/>
<path d="M906.025 1008C908.786 1008 911.025 1010.24 911.025 1013V1040.5C904.121 1040.5 898.525 1046.09 898.525 1053C898.525 1059.9 904.121 1065.5 911.025 1065.5V1093C911.025 1095.76 908.786 1098 906.025 1098H816.024C813.263 1098 811.024 1095.76 811.024 1093V1065.5C817.928 1065.5 823.524 1059.9 823.524 1053C823.524 1046.09 817.928 1040.5 811.024 1040.5V1013C811.024 1010.24 813.263 1008 816.024 1008H906.025ZM881.025 1038H841.024V1068H881.025V1038Z" fill="#264a92"/>
<path d="M1021 1103C993.386 1103 971 1080.61 971 1053C971 1025.39 993.386 1003 1021 1003C1048.61 1003 1071 1025.39 1071 1053C1071 1080.61 1048.61 1103 1021 1103ZM1026 1053V1028H1016V1063H1046V1053H1026Z" fill="#264a92"/>
<path d="M176 1172.97C176 1170.22 178.225 1168 180.967 1168H261.033C263.776 1168 266 1170.22 266 1172.97V1253.03C266 1255.78 263.775 1258 261.033 1258H180.967C178.224 1258 176 1255.78 176 1253.03V1172.97ZM214.109 1195.07C213.781 1194.85 213.395 1194.74 213 1194.74C211.895 1194.74 211 1195.63 211 1196.74V1229.26C211 1229.66 211.117 1230.04 211.336 1230.37C211.948 1231.29 213.19 1231.54 214.109 1230.93L238.504 1214.66C238.723 1214.52 238.912 1214.33 239.059 1214.11C239.672 1213.19 239.423 1211.95 238.504 1211.34L214.109 1195.07Z" fill="#264a92"/>
<path d="M406 1199L432.067 1180.75C433.198 1179.96 434.757 1180.24 435.548 1181.37C435.842 1181.79 436 1182.29 436 1182.8V1243.2C436 1244.58 434.881 1245.7 433.5 1245.7C432.987 1245.7 432.487 1245.54 432.067 1245.25L406 1227V1248C406 1250.76 403.761 1253 401 1253H331C328.239 1253 326 1250.76 326 1248V1178C326 1175.24 328.239 1173 331 1173H401C403.761 1173 406 1175.24 406 1178V1199Z" fill="#264a92"/>
<path d="M495.029 1179L516.025 1193L536.957 1163.69C538.562 1161.45 541.685 1160.93 543.932 1162.53C544.381 1162.85 544.773 1163.25 545.094 1163.69L566.026 1193L587.022 1179C589.32 1177.47 592.424 1178.09 593.956 1180.39C594.614 1181.38 594.9 1182.57 594.761 1183.74L586.545 1253.58C586.249 1256.1 584.115 1258 581.579 1258H500.472C497.936 1258 495.802 1256.1 495.506 1253.58L487.29 1183.74C486.967 1181 488.929 1178.52 491.671 1178.19C492.851 1178.06 494.041 1178.34 495.029 1179ZM541.026 1228C546.548 1228 551.026 1223.52 551.026 1218C551.026 1212.47 546.548 1208 541.026 1208C535.503 1208 531.026 1212.47 531.026 1218C531.026 1223.52 535.503 1228 541.026 1228Z" fill="#264a92"/>
<path d="M665.388 1168.01H736.66C738.259 1168.01 739.762 1168.78 740.703 1170.07L759.817 1196.35C760.518 1197.32 760.441 1198.64 759.632 1199.52L702.861 1261.02C701.924 1262.04 700.342 1262.1 699.328 1261.17C699.279 1261.12 699.232 1261.07 699.186 1261.02L642.415 1199.52C641.606 1198.64 641.529 1197.32 642.23 1196.35L661.344 1170.07C662.285 1168.78 663.788 1168.01 665.388 1168.01Z" fill="#264a92"/>
<path d="M811 1233H830.444L856.917 1254.66C857.364 1255.03 857.923 1255.22 858.5 1255.22C859.881 1255.22 861 1254.11 861 1252.72V1173.28C861 1172.7 860.8 1172.14 860.435 1171.69C859.561 1170.62 857.986 1170.47 856.917 1171.34L830.444 1193H811C808.239 1193 806 1195.24 806 1198V1228C806 1230.76 808.239 1233 811 1233ZM916 1213C916 1229.46 908.769 1244.23 897.311 1254.31L890.222 1247.22C899.879 1238.97 906 1226.7 906 1213C906 1199.3 899.879 1187.03 890.222 1178.78L897.311 1171.69C908.769 1181.77 916 1196.54 916 1213ZM891 1213C891 1203.44 886.53 1194.93 879.566 1189.43L872.421 1196.58C877.606 1200.19 881 1206.2 881 1213C881 1219.8 877.606 1225.81 872.421 1229.42L879.566 1236.57C886.53 1231.07 891 1222.56 891 1213Z" fill="#264a92"/>
<path d="M976 1168H1066C1068.76 1168 1071 1170.24 1071 1173V1253C1071 1255.76 1068.76 1258 1066 1258H976C973.239 1258 971 1255.76 971 1253V1173C971 1170.24 973.239 1168 976 1168ZM1061 1203H981V1248H1061V1203ZM986 1183V1193H996V1183H986ZM1006 1183V1193H1016V1183H1006Z" fill="#264a92"/>
<path d="M1561 147C1588.6 147 1611 169.4 1611 197C1611 224.6 1588.6 247 1561 247C1533.4 247 1511 224.6 1511 197C1511 169.4 1533.4 147 1561 147ZM1561 192H1541V202H1561V217L1581 197L1561 177V192Z" fill="#264a92"/>
<path d="M1721 147C1748.6 147 1771 169.4 1771 197C1771 224.6 1748.6 247 1721 247C1693.4 247 1671 224.6 1671 197C1671 169.4 1693.4 147 1721 147ZM1726 197H1741L1721 177L1701 197H1716V217H1726V197Z" fill="#264a92"/>
<path d="M1925.99 151.959L1926 242.041C1926 244.723 1923.78 247 1921.03 247H1840.97C1838.22 247 1836 244.78 1836 242.041V151.959C1836 149.277 1838.22 147 1840.97 147H1921.02C1923.76 147 1925.98 149.22 1925.99 151.959ZM1866 202V182C1866 179.239 1868.24 177 1871 177C1873.76 177 1876 179.239 1876 182V202C1876 204.762 1878.24 207 1881 207C1883.76 207 1886 204.762 1886 202V182C1886 173.716 1879.28 167 1871 167C1862.72 167 1856 173.716 1856 182V202C1856 215.807 1867.19 227 1881 227C1894.81 227 1906 215.807 1906 202V177H1896V202C1896 210.285 1889.28 217 1881 217C1872.72 217 1866 210.285 1866 202Z" fill="#264a92"/>
<path d="M1991 202H2021V242H1991V202ZM2026 152H2056V242H2026V152ZM2061 177H2091V242H2061V177Z" fill="#264a92"/>
<path d="M2156 152H2246C2248.76 152 2251 154.239 2251 157V237C2251 239.761 2248.76 242 2246 242H2156C2153.24 242 2151 239.761 2151 237V157C2151 154.239 2153.24 152 2156 152ZM2176 202V222H2186V202H2176ZM2196 172V222H2206V172H2196ZM2216 187V222H2226V187H2216Z" fill="#264a92"/>
<path d="M2316 162H2396C2398.76 162 2401 164.239 2401 167V227C2401 229.761 2398.76 232 2396 232H2316C2313.24 232 2311 229.761 2311 227V167C2311 164.239 2313.24 162 2316 162ZM2406 182H2416V212H2406V182Z" fill="#264a92"/>
<path d="M1546 312H1576L1586 322H1606C1608.76 322 1611 324.239 1611 327V397C1611 399.761 1608.76 402 1606 402H1516C1513.24 402 1511 399.761 1511 397V327C1511 324.239 1513.24 322 1516 322H1536L1546 312ZM1561 392C1577.57 392 1591 378.568 1591 362C1591 345.431 1577.57 332 1561 332C1544.43 332 1531 345.431 1531 362C1531 378.568 1544.43 392 1561 392ZM1561 382C1549.95 382 1541 373.046 1541 362C1541 350.954 1549.95 342 1561 342C1572.05 342 1581 350.954 1581 362C1581 373.046 1572.05 382 1561 382Z" fill="#264a92"/>
<path d="M1711 312H1731C1753.09 312 1771 329.909 1771 352C1771 374.091 1753.09 392 1731 392V409.5C1706 399.5 1671 384.5 1671 352C1671 329.909 1688.91 312 1711 312Z" fill="#264a92"/>
<path d="M1853.27 392L1831 409.5V317C1831 314.239 1833.24 312 1836 312H1926C1928.76 312 1931 314.239 1931 317V387C1931 389.761 1928.76 392 1926 392H1853.27Z" fill="#264a92"/>
<path d="M2041 307C2068.61 307 2091 329.386 2091 357C2091 384.614 2068.61 407 2041 407C2032.49 407 2024.48 404.874 2017.46 401.124L1991 407L1996.88 380.549C1993.13 373.532 1991 365.514 1991 357C1991 329.386 2013.39 307 2041 307ZM2046 332H2036V367H2066V357H2046V332Z" fill="#264a92"/>
<path d="M2177.46 401.121L2151 407L2156.88 380.544C2153.13 373.528 2151 365.513 2151 357C2151 329.386 2173.39 307 2201 307C2228.61 307 2251 329.386 2251 357C2251 384.614 2228.61 407 2201 407C2192.49 407 2184.47 404.873 2177.46 401.121ZM2176 357C2176 370.807 2187.19 382 2201 382C2214.81 382 2226 370.807 2226 357H2216C2216 365.285 2209.28 372 2201 372C2192.72 372 2186 365.285 2186 357H2176Z" fill="#264a92"/>
<path d="M2331 317V337H2391V317H2401.03C2403.78 317 2406 319.225 2406 321.967V402.033C2406 404.776 2403.78 407 2401.03 407H2320.97C2318.22 407 2316 404.775 2316 402.033V321.967C2316 319.224 2318.22 317 2320.97 317H2331ZM2341 307H2381V327H2341V307Z" fill="#264a92"/>
<path d="M1526 607H1601C1606.52 607 1611 611.477 1611 617V632C1611 637.523 1606.52 642 1601 642H1591V657C1591 668.046 1582.05 677 1571 677H1541C1529.95 677 1521 668.046 1521 657V612C1521 609.239 1523.24 607 1526 607ZM1591 617V632H1601V617H1591ZM1511 687H1601V697H1511V687Z" fill="#264a92"/>
<path d="M1766 639.5V654.5C1766 666.926 1745.85 677 1721 677C1696.15 677 1676 666.926 1676 654.5V639.5C1676 651.926 1696.15 662 1721 662C1745.85 662 1766 651.926 1766 639.5ZM1676 664.5C1676 676.926 1696.15 687 1721 687C1745.85 687 1766 676.926 1766 664.5V679.5C1766 691.926 1745.85 702 1721 702C1696.15 702 1676 691.926 1676 679.5V664.5ZM1721 652C1696.15 652 1676 641.926 1676 629.5C1676 617.074 1696.15 607 1721 607C1745.85 607 1766 617.074 1766 629.5C1766 641.926 1745.85 652 1721 652Z" fill="#264a92"/>
<path d="M1906 622H1931V632H1921V697C1921 699.761 1918.76 702 1916 702H1846C1843.24 702 1841 699.761 1841 697V632H1831V622H1856V607C1856 604.239 1858.24 602 1861 602H1901C1903.76 602 1906 604.239 1906 607V622ZM1866 647V677H1876V647H1866ZM1886 647V677H1896V647H1886ZM1866 612V622H1896V612H1866Z" fill="#264a92"/>
<path d="M2035.99 599.901C2039.09 598.107 2042.91 598.107 2046.01 599.901L2083.51 621.611C2086.6 623.399 2088.5 626.697 2088.5 630.266V673.735C2088.5 677.303 2086.6 680.601 2083.51 682.389L2046.01 704.1C2042.91 705.894 2039.09 705.894 2035.99 704.1L1998.49 682.389C1995.4 680.601 1993.5 677.303 1993.5 673.735V630.266C1993.5 626.697 1995.4 623.399 1998.49 621.611L2035.99 599.901ZM2007.25 632.462C2005.59 631.497 2003.5 632.7 2003.5 634.626V667.969C2003.5 671.537 2005.4 674.836 2008.49 676.623L2037.25 693.272C2038.91 694.237 2041 693.035 2041 691.109V657.765C2041 654.197 2039.1 650.9 2036.01 649.112L2007.25 632.462ZM2059.84 619.586C2057.45 618.205 2053.57 618.205 2051.18 619.586C2048.79 620.967 2048.79 623.205 2051.18 624.586C2053.57 625.966 2057.45 625.966 2059.84 624.586C2062.23 623.205 2062.23 620.967 2059.84 619.586ZM2030.84 619.586C2028.45 618.205 2024.57 618.205 2022.18 619.586C2019.79 620.967 2019.79 623.205 2022.18 624.586C2024.57 625.966 2028.45 625.966 2030.84 624.586C2033.23 623.205 2033.23 620.967 2030.84 619.586ZM2065.96 671.226C2068.95 669.5 2071.37 665.302 2071.38 661.851C2071.38 658.399 2068.95 657 2065.96 658.726C2062.97 660.452 2060.55 664.649 2060.55 668.101C2060.55 671.553 2062.97 672.952 2065.96 671.226ZM2012.83 653.002C2015.22 654.382 2017.16 653.263 2017.16 650.502C2017.16 647.74 2015.22 644.382 2012.83 643.002C2010.44 641.621 2008.5 642.74 2008.5 645.502C2008.5 648.263 2010.44 651.621 2012.83 653.002ZM2034.48 680.491C2034.48 683.253 2032.54 684.371 2030.15 682.99C2027.75 681.61 2025.82 678.252 2025.82 675.49C2025.82 672.729 2027.75 671.61 2030.15 672.99C2032.54 674.371 2034.48 677.729 2034.48 680.491ZM2017.16 670.496C2017.16 673.258 2015.22 674.378 2012.83 672.997C2010.44 671.616 2008.5 668.258 2008.5 665.496C2008.5 662.735 2010.44 661.616 2012.83 662.996C2015.22 664.378 2017.16 667.735 2017.16 670.496ZM2034.47 660.499C2034.47 663.26 2032.53 664.38 2030.14 662.999C2027.75 661.618 2025.81 658.26 2025.81 655.499C2025.81 652.737 2027.75 651.618 2030.14 652.999C2032.53 654.38 2034.47 657.738 2034.47 660.499Z" fill="#264a92"/>
<path d="M2210.73 602.471C2205.12 597.693 2196.88 597.693 2191.27 602.47L2184.53 608.214C2183.73 608.897 2182.74 609.309 2181.69 609.393L2172.86 610.097C2165.52 610.683 2159.69 616.514 2159.1 623.856L2158.4 632.684C2158.31 633.733 2157.9 634.729 2157.22 635.529L2151.47 642.269C2146.7 647.876 2146.7 656.121 2151.47 661.727L2157.22 668.468C2157.9 669.269 2158.31 670.264 2158.4 671.313L2159.1 680.14C2159.69 687.483 2165.52 693.313 2172.86 693.899L2181.69 694.604C2182.74 694.688 2183.73 695.1 2184.53 695.783L2191.27 701.526C2196.88 706.304 2205.12 706.304 2210.73 701.526L2217.47 695.783C2218.27 695.1 2219.27 694.688 2220.32 694.604L2229.14 693.899C2236.49 693.314 2242.32 687.483 2242.9 680.14L2243.61 671.313C2243.69 670.264 2244.1 669.268 2244.78 668.467L2250.53 661.728C2255.31 656.121 2255.31 647.875 2250.53 642.269L2244.78 635.529C2244.1 634.728 2243.69 633.733 2243.61 632.684L2242.9 623.857C2242.32 616.514 2236.49 610.683 2229.14 610.097L2220.32 609.393C2219.27 609.309 2218.27 608.897 2217.47 608.214L2210.73 602.471ZM2215.14 630.786L2222.21 637.857L2186.86 673.212L2179.79 666.141L2215.14 630.786ZM2192.16 643.16C2189.23 646.089 2184.48 646.089 2181.55 643.16C2178.63 640.231 2178.63 635.483 2181.55 632.554C2184.48 629.625 2189.23 629.625 2192.16 632.554C2195.09 635.483 2195.09 640.231 2192.16 643.16ZM2209.84 671.444C2206.91 668.515 2206.91 663.767 2209.84 660.838C2212.77 657.909 2217.52 657.909 2220.44 660.838C2223.37 663.767 2223.37 668.515 2220.44 671.444C2217.52 674.373 2212.77 674.373 2209.84 671.444Z" fill="#264a92"/>
<path d="M2336 696.906C2319.22 695.629 2306 681.608 2306 664.5C2306 652.858 2312.12 642.646 2321.32 636.906C2323.82 617.22 2340.63 602 2361 602C2381.37 602 2398.18 617.22 2400.68 636.906C2409.88 642.646 2416 652.858 2416 664.5C2416 681.608 2402.78 695.629 2386 696.906V697H2336V696.906ZM2366 652V632H2356V652H2341L2361 677L2381 652H2366Z" fill="#264a92"/>
<path d="M1581 762L1606 787V857.041C1606 859.78 1603.78 862 1601.03 862H1520.97C1518.22 862 1516 859.723 1516 857.041V766.959C1516 764.22 1518.22 762 1520.97 762H1581ZM1589.28 812L1571.61 794.322L1564.54 801.393L1575.14 812L1564.54 822.606L1571.61 829.677L1589.28 812ZM1532.72 812L1550.39 829.677L1557.46 822.606L1546.86 812L1557.46 801.393L1550.39 794.322L1532.72 812Z" fill="#264a92"/>
<path d="M1696 782V767C1696 764.239 1698.24 762 1701 762H1761C1763.76 762 1766 764.239 1766 767V837C1766 839.761 1763.76 842 1761 842H1746V856.995C1746 859.759 1743.75 862 1740.96 862H1681.03C1678.25 862 1676 859.777 1676 856.995L1676.01 787.004C1676.01 784.241 1678.26 782 1681.05 782H1696ZM1706 782H1746V832H1756V772H1706V782ZM1696 807V817H1726V807H1696ZM1696 827V837H1726V827H1696Z" fill="#264a92"/>
<path d="M1176 568.247V623H1230.75C1228.24 648.267 1206.93 668 1181 668C1153.39 668 1131 645.614 1131 618C1131 592.073 1150.73 570.755 1176 568.247ZM1186 560.714C1213.77 563.106 1235.89 585.232 1238.29 613H1186V560.714Z" fill="#264a92"/>
<path d="M1307.61 587.828C1308.12 587.269 1308.64 586.719 1309.18 586.18C1311.6 583.763 1314.22 581.678 1316.99 579.926C1315.42 579.494 1314.01 579.237 1312.78 579.144C1309.92 578.928 1308.66 579.608 1308.13 580.142C1307.59 580.677 1306.91 581.93 1307.13 584.792C1307.2 585.71 1307.36 586.724 1307.61 587.828ZM1384.63 629.053C1384.94 629.668 1385.23 630.278 1385.51 630.883C1387.9 635.988 1389.47 640.972 1389.81 645.451C1390.14 649.909 1389.28 654.553 1385.91 657.924C1382.54 661.295 1377.89 662.159 1373.44 661.823C1369.53 661.528 1365.25 660.296 1360.83 658.407L1360.82 658.413C1360.05 658.086 1359.28 657.739 1358.51 657.373C1348.35 652.561 1336.72 644.102 1325.8 633.184C1314.89 622.278 1306.44 610.661 1301.63 600.504C1301.26 599.729 1300.91 598.957 1300.58 598.19L1300.59 598.179C1298.69 593.753 1297.45 589.456 1297.16 585.544C1296.82 581.086 1297.69 576.442 1301.06 573.071C1304.43 569.701 1309.07 568.836 1313.53 569.172C1318.01 569.51 1322.99 571.084 1328.1 573.467C1328.71 573.754 1329.33 574.054 1329.96 574.368C1344.81 570.625 1361.2 574.562 1372.82 586.18C1384.44 597.801 1388.38 614.197 1384.63 629.053ZM1379.06 642.021C1377.31 644.789 1375.23 647.407 1372.82 649.819C1372.28 650.354 1371.74 650.873 1371.18 651.376C1372.28 651.626 1373.28 651.782 1374.19 651.851C1377.05 652.067 1378.3 651.387 1378.84 650.853C1379.37 650.318 1380.05 649.065 1379.84 646.203C1379.74 644.976 1379.49 643.577 1379.06 642.021ZM1309.18 649.819C1297.86 638.501 1293.83 622.654 1297.09 608.112C1302.51 618.016 1310.62 628.61 1320.5 638.488C1330.38 648.373 1340.99 656.492 1350.9 661.904C1336.35 665.168 1320.5 661.14 1309.18 649.819Z" fill="#264a92"/>
<path d="M1175.52 728.501L1225.02 735.572L1232.09 785.07L1186.13 831.031C1184.18 832.984 1181.01 832.984 1179.06 831.031L1129.56 781.534C1127.61 779.581 1127.61 776.416 1129.56 774.463L1175.52 728.501ZM1189.66 770.927C1193.57 774.833 1199.9 774.833 1203.81 770.927C1207.71 767.022 1207.71 760.691 1203.81 756.785C1199.9 752.88 1193.57 752.88 1189.66 756.785C1185.76 760.691 1185.76 767.022 1189.66 770.927Z" fill="#264a92"/>
<path d="M1316 803H1366V828H1316V803ZM1376 818V793H1306V818H1296C1293.24 818 1291 815.761 1291 813V763C1291 760.239 1293.24 758 1296 758H1386C1388.76 758 1391 760.239 1391 763V813C1391 815.761 1388.76 818 1386 818H1376ZM1306 768V778H1321V768H1306ZM1316 728H1366C1368.76 728 1371 730.239 1371 733V748H1311V733C1311 730.239 1313.24 728 1316 728Z" fill="#264a92"/>
<path d="M1921 862H1841C1838.24 862 1836 859.761 1836 857V767C1836 764.239 1838.24 762 1841 762H1921C1923.76 762 1926 764.239 1926 767V857C1926 859.761 1923.76 862 1921 862ZM1861 787V797H1901V787H1861ZM1861 807V817H1901V807H1861ZM1861 827V837H1886V827H1861Z" fill="#264a92"/>
<path d="M2031 762V772H2041V762H2081.03C2083.78 762 2086 764.22 2086 766.959V857.041C2086 859.723 2083.78 862 2081.03 862H2000.97C1998.22 862 1996 859.78 1996 857.041V766.959C1996 764.277 1998.22 762 2000.97 762H2031ZM2041 772V782H2051V772H2041ZM2031 782V792H2041V782H2031ZM2041 792V802H2051V792H2041ZM2031 802V812H2041V802H2031ZM2041 812V822H2031V837H2051V812H2041Z" fill="#264a92"/>
<path d="M2246 772V782H2241L2211 827V862H2191V827L2161 782H2156V772H2246Z" fill="#264a92"/>
<path d="M2361 867C2340.29 867 2323.5 850.211 2323.5 829.5C2323.5 818.731 2328.04 809.022 2335.31 802.183C2342.02 795.869 2358.5 784.498 2356 759.5C2386 779.5 2401 799.5 2371 829.5C2376 829.5 2383.5 829.5 2396 817.148C2397.35 821.016 2398.5 825.173 2398.5 829.5C2398.5 850.211 2381.71 867 2361 867Z" fill="#264a92"/>
<path d="M1576.02 1037.01C1587.07 1037.01 1596.02 1045.97 1596.02 1057.01C1596.02 1060.66 1595.05 1064.08 1593.35 1067.02L1616.02 1067.01V1077.01H1606.02V1127.01C1606.02 1129.78 1603.79 1132.01 1601.02 1132.01H1521.02C1518.26 1132.01 1516.02 1129.78 1516.02 1127.01V1077.01H1506.02V1067.01L1528.7 1067.02C1527 1064.08 1526.02 1060.66 1526.02 1057.01C1526.02 1045.97 1534.98 1037.01 1546.02 1037.01C1552 1037.01 1557.36 1039.64 1561.03 1043.79C1564.68 1039.64 1570.05 1037.01 1576.02 1037.01ZM1566.02 1077.01H1556.02V1127.01H1566.02V1077.01ZM1546.02 1047.01C1540.5 1047.01 1536.02 1051.49 1536.02 1057.01C1536.02 1062.29 1540.1 1066.6 1545.28 1066.99L1546.02 1067.01H1556.02V1057.01C1556.02 1052.01 1552.34 1047.86 1547.54 1047.13L1546.77 1047.04L1546.02 1047.01ZM1576.02 1047.01C1570.75 1047.01 1566.43 1051.09 1566.05 1056.27L1566.02 1057.01V1067.01H1576.02C1581.3 1067.01 1585.62 1062.93 1586 1057.76L1586.02 1057.01C1586.02 1051.49 1581.55 1047.01 1576.02 1047.01Z" fill="#264a92"/>
<path d="M1726 1132V1144.5L1711 1134.5L1696 1144.5V1132H1693.5C1683.84 1132 1676 1124.17 1676 1114.5V1052C1676 1043.72 1682.72 1037 1691 1037H1761C1763.76 1037 1766 1039.24 1766 1042V1127C1766 1129.76 1763.76 1132 1761 1132H1726ZM1696 1122V1112H1726V1122H1756V1107H1693.5C1689.36 1107 1686 1110.36 1686 1114.5C1686 1118.64 1689.36 1122 1693.5 1122H1696ZM1696 1052V1062H1706V1052H1696ZM1696 1067V1077H1706V1067H1696ZM1696 1082V1092H1706V1082H1696Z" fill="#264a92"/>
<path d="M1831.25 1092H1858.64C1859.53 1108.34 1864.79 1123.53 1873.26 1136.4C1850.94 1132.94 1833.5 1114.7 1831.25 1092ZM1831.25 1082C1833.5 1059.3 1850.94 1041.06 1873.26 1037.6C1864.79 1050.47 1859.53 1065.66 1858.64 1082H1831.25ZM1930.75 1082H1903.36C1902.47 1065.66 1897.21 1050.47 1888.74 1037.6C1911.06 1041.06 1928.5 1059.3 1930.75 1082ZM1930.75 1092C1928.5 1114.7 1911.06 1132.94 1888.74 1136.4C1897.21 1123.53 1902.47 1108.34 1903.36 1092H1930.75ZM1868.65 1092H1893.35C1892.49 1105.91 1888.07 1118.87 1881 1129.96C1873.93 1118.87 1869.51 1105.91 1868.65 1092ZM1868.65 1082C1869.51 1068.09 1873.93 1055.13 1881 1044.04C1888.07 1055.13 1892.49 1068.09 1893.35 1082H1868.65Z" fill="#264a92"/>
<path d="M1991 1122V1067H1986V1057H2001V1047C2001 1044.24 2003.24 1042 2006 1042H2076C2078.76 1042 2081 1044.24 2081 1047V1057H2096V1067H2091V1122H2096V1132H1986V1122H1991ZM2046 1122V1087H2036V1122H2046ZM2021 1122V1087H2011V1122H2021ZM2071 1122V1087H2061V1122H2071ZM2011 1052V1057H2071V1052H2011Z" fill="#264a92"/>
<path d="M2201 1037L2141 1072L2201 1107L2251 1077.83V1114.5H2261V1072L2201 1037ZM2161 1094.45V1117C2170.12 1129.14 2184.64 1137 2201 1137C2217.36 1137 2231.88 1129.14 2241 1117L2241 1094.46L2201 1117.79L2161 1094.45Z" fill="#264a92"/>
<path d="M2316 1042H2406C2408.76 1042 2411 1044.24 2411 1047V1127C2411 1129.76 2408.76 1132 2406 1132H2316C2313.24 1132 2311 1129.76 2311 1127V1047C2311 1044.24 2313.24 1042 2316 1042ZM2338.5 1083.25V1072H2331V1102H2338.5V1090.75H2348.5V1102H2356V1072H2348.5V1083.25H2338.5ZM2373.5 1079.5H2381C2382.38 1079.5 2383.5 1080.62 2383.5 1082V1092C2383.5 1093.38 2382.38 1094.5 2381 1094.5H2373.5V1079.5ZM2366 1072V1102H2381C2386.52 1102 2391 1097.52 2391 1092V1082C2391 1076.48 2386.52 1072 2381 1072H2366Z" fill="#264a92"/>
<path d="M1521 1202H1601L1611 1222V1287C1611 1289.76 1608.76 1292 1606 1292H1516C1513.24 1292 1511 1289.76 1511 1287V1222.02L1521 1202ZM1566 1257V1237H1556V1257H1541L1561 1277L1581 1257H1566ZM1599.82 1222L1594.82 1212H1527.18L1522.19 1222H1599.82Z" fill="#264a92"/>
<path d="M1741 1231.98L1762.86 1240.73C1764.76 1241.49 1766 1243.32 1766 1245.37V1291.98C1766 1294.74 1763.76 1296.98 1761 1296.98H1681C1678.24 1296.98 1676 1294.74 1676 1291.98V1245.37C1676 1243.32 1677.24 1241.49 1679.14 1240.73L1701 1231.98H1741ZM1761 1256.98H1701V1281.98H1761V1256.98ZM1741 1201.98C1743.76 1201.98 1746 1204.22 1746 1206.98V1226.98H1696V1206.98C1696 1204.22 1698.24 1201.98 1701 1201.98H1741Z" fill="#264a92"/>
<path d="M1906 1257H1884.29C1880.17 1268.65 1869.06 1277 1856 1277C1839.43 1277 1826 1263.57 1826 1247C1826 1230.43 1839.43 1217 1856 1217C1869.06 1217 1880.17 1225.35 1884.29 1237H1936V1257H1926V1277H1906V1257ZM1856 1257C1861.52 1257 1866 1252.52 1866 1247C1866 1241.48 1861.52 1237 1856 1237C1850.48 1237 1846 1241.48 1846 1247C1846 1252.52 1850.48 1257 1856 1257Z" fill="#264a92"/>
<path d="M2085.99 1202V1212C2085.99 1260.14 2059.13 1282 2025.99 1282L2016.48 1282C2017.54 1266.94 2022.23 1257.82 2034.47 1246.99C2040.49 1241.67 2039.98 1238.59 2037.01 1240.36C2016.6 1252.51 2006.46 1268.93 2006.01 1295.15L2005.99 1297H1995.99C1995.99 1290.19 1996.57 1284 1997.72 1278.34C1996.57 1271.87 1995.99 1263.09 1995.99 1252C1995.99 1224.39 2018.38 1202 2045.99 1202C2055.99 1202 2065.99 1207 2085.99 1202Z" fill="#264a92"/>
<path d="M2168.5 1287C2172.64 1287 2176 1290.36 2176 1294.5C2176 1298.64 2172.64 1302 2168.5 1302C2164.36 1302 2161 1298.64 2161 1294.5C2161 1290.36 2164.36 1287 2168.5 1287ZM2233.5 1287C2237.64 1287 2241 1290.36 2241 1294.5C2241 1298.64 2237.64 1302 2233.5 1302C2229.36 1302 2226 1298.64 2226 1294.5C2226 1290.36 2229.36 1287 2233.5 1287ZM2151.86 1195.79L2171 1214.93V1272L2241 1272V1282H2166C2163.24 1282 2161 1279.76 2161 1277L2161 1219.07L2144.79 1202.86L2151.86 1195.79ZM2221 1202C2223.76 1202 2226 1204.24 2226 1207L2226 1217L2240.97 1217C2243.75 1217 2246 1219.28 2246 1221.98V1262.02C2246 1264.77 2243.75 1267 2240.97 1267H2181.04C2178.26 1267 2176 1264.72 2176 1262.02V1221.98C2176 1219.23 2178.25 1217 2181.04 1217L2196 1217L2196 1207C2196 1204.24 2198.24 1202 2201 1202H2221ZM2196 1227H2191V1257H2196V1227ZM2231 1227H2226V1257H2231V1227ZM2216 1212H2206V1217H2216V1212Z" fill="#264a92"/>
<path d="M2316 1202H2406C2408.76 1202 2411 1204.24 2411 1207V1287C2411 1289.76 2408.76 1292 2406 1292H2316C2313.24 1292 2311 1289.76 2311 1287V1207C2311 1204.24 2313.24 1202 2316 1202ZM2361.3 1245.41L2329.24 1218.19L2322.76 1225.81L2361.37 1258.59L2399.27 1225.78L2392.73 1218.22L2361.3 1245.41Z" fill="#264a92"/>
<path d="M192.912 1462.84C200.61 1456.68 210.375 1453 221 1453C231.625 1453 241.39 1456.68 249.089 1462.84L256.355 1455.57L263.426 1462.64L256.16 1469.91C262.318 1477.61 266 1487.38 266 1498C266 1522.85 245.853 1543 221 1543C196.147 1543 176 1522.85 176 1498C176 1487.38 179.682 1477.61 185.84 1469.91L178.574 1462.64L185.645 1455.57L192.912 1462.84ZM226 1493V1470.48L201 1503H216V1525.5L241 1493H226ZM201 1438H241V1448H201V1438Z" fill="#264a92"/>
<path d="M386.025 1517.7V1528.01H411.025V1538.01H351.024V1528.01H376.025V1517.7C356.293 1515.24 341.024 1498.41 341.024 1478.01V1448.01H421.025V1478.01C421.025 1498.41 405.756 1515.24 386.025 1517.7ZM326.024 1458.01H336.024V1478.01H326.024V1458.01ZM426.025 1458.01H436.025V1478.01H426.025V1458.01Z" fill="#264a92"/>
<path d="M558.071 1458H586.041C588.78 1458 591 1460.22 591 1463V1533C591 1535.76 588.723 1538 586.041 1538H495.959C493.22 1538 491 1535.78 491 1533V1463C491 1460.24 493.277 1458 495.959 1458H523.929L511.251 1445.32L518.322 1438.25L538.071 1458H543.929L563.677 1438.25L570.748 1445.32L558.071 1458Z" fill="#264a92"/>
<path d="M705.99 1443.25C731.257 1445.76 750.99 1467.07 750.99 1493V1498H705.99V1528C705.99 1533.52 710.467 1538 715.99 1538C721.513 1538 725.99 1533.52 725.99 1528V1523H735.99V1528C735.99 1539.05 727.036 1548 715.99 1548C704.944 1548 695.99 1539.05 695.99 1528V1498H650.99V1493C650.99 1467.07 670.724 1445.76 695.99 1443.25V1443C695.99 1440.24 698.229 1438 700.99 1438C703.751 1438 705.99 1440.24 705.99 1443V1443.25Z" fill="#264a92"/>
<path d="M836 1537.91C819.219 1536.63 806 1522.61 806 1505.5C806 1493.86 812.121 1483.65 821.321 1477.91C823.823 1458.22 840.634 1443 861 1443C881.366 1443 898.176 1458.22 900.678 1477.91C909.878 1483.65 916 1493.86 916 1505.5C916 1522.61 902.781 1536.63 886 1537.91V1538H836V1537.91ZM866 1498H881L861 1473L841 1498H856V1518H866V1498Z" fill="#264a92"/>
<path d="M981 1543C981 1520.91 998.909 1503 1021 1503C1043.09 1503 1061 1520.91 1061 1543H981ZM1021 1498C1004.42 1498 991 1484.58 991 1468C991 1451.42 1004.42 1438 1021 1438C1037.58 1438 1051 1451.42 1051 1468C1051 1484.58 1037.58 1498 1021 1498Z" fill="#264a92"/>
<path d="M1171.03 1443.52C1164.03 1441.25 1156.41 1444.41 1153.06 1450.97L1149.03 1458.85C1148.55 1459.79 1147.79 1460.55 1146.85 1461.03L1138.97 1465.06C1132.41 1468.41 1129.25 1476.03 1131.52 1483.03L1134.25 1491.46C1134.57 1492.46 1134.57 1493.54 1134.25 1494.54L1131.52 1502.96C1129.25 1509.97 1132.41 1517.59 1138.97 1520.94L1146.85 1524.97C1147.79 1525.45 1148.55 1526.21 1149.03 1527.15L1153.06 1535.03C1156.41 1541.59 1164.03 1544.75 1171.03 1542.48L1179.46 1539.75C1180.46 1539.43 1181.54 1539.43 1182.54 1539.75L1190.96 1542.48C1197.97 1544.75 1205.59 1541.59 1208.94 1535.03L1212.97 1527.15C1213.45 1526.21 1214.21 1525.45 1215.15 1524.97L1223.03 1520.94C1229.59 1517.59 1232.75 1509.97 1230.48 1502.96L1227.75 1494.54C1227.43 1493.54 1227.43 1492.46 1227.75 1491.46L1230.48 1483.03C1232.75 1476.03 1229.59 1468.41 1223.03 1465.06L1215.15 1461.03C1214.21 1460.55 1213.45 1459.79 1212.97 1458.85L1208.94 1450.97C1205.59 1444.41 1197.97 1441.25 1190.96 1443.52L1182.54 1446.25C1181.54 1446.57 1180.46 1446.57 1179.46 1446.25L1171.03 1443.52ZM1154.8 1491.79L1161.87 1484.71L1176.01 1498.86L1204.3 1470.57L1211.37 1477.64L1176.01 1513L1154.8 1491.79Z" fill="#264a92"/>
<path d="M191 1608C182.716 1608 176 1614.72 176 1623V1683C176 1691.28 182.716 1698 191 1698H251C259.285 1698 266 1691.28 266 1683V1623C266 1614.72 259.285 1608 251 1608H191ZM241 1648L216 1683V1658H201L226 1623V1648H241Z" fill="#264a92"/>
<path d="M341 1693V1663C341 1640.91 358.909 1623 381 1623C403.091 1623 421 1640.91 421 1663V1693H426V1703H336V1693H341ZM351 1663H361C361 1651.95 369.954 1643 381 1643V1633C364.431 1633 351 1646.43 351 1663ZM376 1603H386V1618H376V1603ZM419.891 1617.04L426.962 1624.11L416.355 1634.72L409.284 1627.64L419.891 1617.04ZM335.038 1624.11L342.109 1617.04L352.716 1627.64L345.645 1634.72L335.038 1624.11Z" fill="#264a92"/>
<path d="M545.33 1608L592.961 1690.5C594.342 1692.89 593.523 1695.95 591.131 1697.33C590.371 1697.77 589.509 1698 588.631 1698H493.368C490.607 1698 488.368 1695.76 488.368 1693C488.368 1692.12 488.599 1691.26 489.038 1690.5L536.67 1608C538.05 1605.61 541.108 1604.79 543.5 1606.17C544.26 1606.61 544.891 1607.24 545.33 1608ZM536 1673V1683H546V1673H536ZM536 1638V1663H546V1638H536Z" fill="#264a92"/>
<path d="M650.308 1642.96H672.792V1652.04H659.448C661.497 1668.48 674.523 1681.5 690.958 1683.55V1637.84C683.123 1635.83 677.333 1628.71 677.333 1620.25C677.333 1610.22 685.467 1602.08 695.5 1602.08C705.533 1602.08 713.667 1610.22 713.667 1620.25C713.667 1628.71 707.877 1635.83 700.042 1637.84V1683.55C716.477 1681.5 729.503 1668.48 731.552 1652.04H718.208V1642.96H740.692C740.841 1644.45 740.917 1645.97 740.917 1647.5C740.917 1672.58 720.583 1692.92 695.5 1692.92C670.417 1692.92 650.083 1672.58 650.083 1647.5C650.083 1645.97 650.159 1644.45 650.308 1642.96ZM695.5 1629.33C700.517 1629.33 704.583 1625.27 704.583 1620.25C704.583 1615.23 700.517 1611.17 695.5 1611.17C690.483 1611.17 686.417 1615.23 686.417 1620.25C686.417 1625.27 690.483 1629.33 695.5 1629.33Z" fill="#264a92"/>
<path d="M816 1643H906V1693.02C906 1695.77 903.775 1698 901.033 1698H820.967C818.224 1698 816 1695.78 816 1693.02V1643ZM846 1653V1663H876V1653H846ZM811 1613C811 1610.24 813.277 1608 815.959 1608H906.041C908.78 1608 911 1610.22 911 1613V1633H811V1613Z" fill="#264a92"/>
<path d="M1021 1603C1048.6 1603 1071 1625.4 1071 1653C1071 1680.6 1048.6 1703 1021 1703C993.4 1703 971 1680.6 971 1653C971 1625.4 993.4 1603 1021 1603ZM1026 1653V1633H1016V1653H1001L1021 1673L1041 1653H1026Z" fill="#264a92"/>
<path d="M1181 1603C1208.6 1603 1231 1625.4 1231 1653C1231 1680.6 1208.6 1703 1181 1703C1153.4 1703 1131 1680.6 1131 1653C1131 1625.4 1153.4 1603 1181 1603ZM1181 1648V1633L1161 1653L1181 1673V1658H1201V1648H1181Z" fill="#264a92"/>
<path d="M266 1933H191C188.239 1933 186 1935.24 186 1938C186 1940.76 188.239 1943 191 1943H266V1953H191C182.716 1953 176 1946.28 176 1938V1863C176 1857.48 180.477 1853 186 1853H266V1933ZM241 1888V1878H201V1888H241Z" fill="#264a92"/>
<path d="M346 1853H416C418.761 1853 421 1855.24 421 1858V1953.72C421 1955.1 419.881 1956.22 418.5 1956.22C418.031 1956.22 417.57 1956.08 417.172 1955.83L381 1933.16L344.828 1955.83C343.658 1956.57 342.115 1956.21 341.382 1955.04C341.132 1954.65 341 1954.19 341 1953.72V1858C341 1855.24 343.239 1853 346 1853Z" fill="#264a92"/>
<path d="M523.5 1853C513.835 1853 506 1860.84 506 1870.5C506 1871.4 506.068 1872.29 506.2 1873.15C497.622 1874.28 491 1881.61 491 1890.5C491 1895.4 493.011 1899.82 496.253 1903C493.011 1906.18 491 1910.6 491 1915.5C491 1922.51 495.118 1928.55 501.068 1931.35C501.023 1931.89 501 1932.44 501 1933C501 1944.05 509.954 1953 521 1953C526.973 1953 532.335 1950.38 536 1946.23V1858.25C532.824 1855.01 528.397 1853 523.5 1853ZM546 1858.25V1946.23C549.665 1950.38 555.026 1953 561 1953C572.046 1953 581 1944.05 581 1933C581 1932.44 580.977 1931.89 580.932 1931.35C586.882 1928.55 591 1922.51 591 1915.5C591 1910.6 588.989 1906.18 585.747 1903C588.989 1899.82 591 1895.4 591 1890.5C591 1881.61 584.378 1874.28 575.8 1873.15C575.932 1872.29 576 1871.4 576 1870.5C576 1860.84 568.165 1853 558.5 1853C553.604 1853 549.176 1855.01 546 1858.25Z" fill="#264a92"/>
<path d="M676 1868V1853C676 1850.24 678.239 1848 681 1848H721C723.761 1848 726 1850.24 726 1853V1868H746C748.761 1868 751 1870.24 751 1873V1943C751 1945.76 748.761 1948 746 1948H656C653.239 1948 651 1945.76 651 1943V1873C651 1870.24 653.239 1868 656 1868H676ZM661 1918V1938H741V1918H661ZM696 1898V1908H706V1898H696ZM686 1858V1868H716V1858H686Z" fill="#264a92"/>
<path d="M831.282 1884.5C831.6 1883.99 831.93 1883.49 832.273 1883H889.727C890.07 1883.49 890.4 1883.99 890.718 1884.5L900.82 1878.67L905.82 1887.33L894.756 1893.72C895.567 1896.67 896 1899.79 896 1903V1908H911V1918H896C896 1922.77 895.047 1927.31 893.321 1931.45L905.82 1938.67L900.82 1947.33L888.191 1940.04C882.766 1946.72 874.926 1951.37 866 1952.65V1913H856V1952.65C847.073 1951.37 839.233 1946.72 833.809 1940.04L821.18 1947.33L816.18 1938.67L828.679 1931.45C826.953 1927.31 826 1922.77 826 1918H811V1908H826V1903C826 1899.79 826.433 1896.67 827.244 1893.72L816.18 1887.33L821.18 1878.67L831.282 1884.5ZM841 1873C841 1861.95 849.954 1853 861 1853C872.046 1853 881 1861.95 881 1873H841Z" fill="#264a92"/>
<path d="M981 1853H1061C1063.76 1853 1066 1855.24 1066 1858V1948C1066 1950.76 1063.76 1953 1061 1953H981C978.239 1953 976 1950.76 976 1948V1858C976 1855.24 978.239 1853 981 1853ZM996 1903V1913H1006V1903H996ZM996 1923V1933H1006V1923H996ZM1016 1903V1913H1026V1903H1016ZM1016 1923V1933H1026V1923H1016ZM1036 1903V1933H1046V1903H1036ZM996 1873V1893H1046V1873H996Z" fill="#264a92"/>
<path d="M1131 1898H1231V1943C1231 1945.76 1228.76 1948 1226 1948H1136C1133.24 1948 1131 1945.76 1131 1943V1898ZM1206 1858H1226C1228.76 1858 1231 1860.24 1231 1863V1888H1131V1863C1131 1860.24 1133.24 1858 1136 1858H1156V1848H1166V1858H1196V1848H1206V1858Z" fill="#264a92"/>
<path d="M246 2038C228.853 2038 214.225 2048.79 208.537 2063.95L217.903 2067.46C222.168 2056.09 233.139 2048 246 2048C249.492 2048 252.844 2048.6 255.96 2049.69C267.632 2053.8 276 2064.92 276 2078C276 2094.57 262.568 2108 246 2108H196C179.431 2108 166 2094.57 166 2078C166 2064.92 174.367 2053.8 186.04 2049.69C186.014 2049.13 186 2048.57 186 2048C186 2028.67 201.67 2013 221 2013C237.21 2013 250.846 2024.02 254.826 2038.98C251.986 2038.34 249.033 2038 246 2038Z" fill="#264a92"/>
<path d="M406 2108H356C339.431 2108 326 2094.57 326 2078C326 2064.92 334.367 2053.8 346.04 2049.69C346.014 2049.13 346 2048.57 346 2048C346 2028.67 361.67 2013 381 2013C400.33 2013 416 2028.67 416 2048C416 2048.57 415.987 2049.13 415.96 2049.69C427.632 2053.8 436 2064.92 436 2078C436 2094.57 422.568 2108 406 2108Z" fill="#264a92"/>
<path d="M496 2018H586C588.761 2018 591 2020.24 591 2023V2103C591 2105.76 588.761 2108 586 2108H496C493.239 2108 491 2105.76 491 2103V2023C491 2020.24 493.239 2018 496 2018ZM563.323 2080.68L581 2063L563.323 2045.32L556.251 2052.39L566.858 2063L556.251 2073.61L563.323 2080.68ZM515.142 2063L525.749 2052.39L518.678 2045.32L501 2063L518.678 2080.68L525.749 2073.61L515.142 2063ZM537.222 2088L555.42 2038H544.778L526.58 2088H537.222Z" fill="#264a92"/>
<path d="M706 2093V2103H726V2113H676V2103H696V2093H655.959C653.22 2093 651 2090.76 651 2087.96V2023.04C651 2020.26 653.277 2018 655.959 2018H746.041C748.78 2018 751 2020.24 751 2023.04V2087.96C751 2090.74 748.723 2093 746.041 2093H706Z" fill="#264a92"/>
<path d="M821 2013C818.239 2013 816 2015.24 816 2018V2028H826V2038H811V2048H826V2058H811V2068H826V2078H811V2088H826V2098H816V2108C816 2110.76 818.239 2113 821 2113H901C903.761 2113 906 2110.76 906 2108V2018C906 2015.24 903.761 2013 901 2013H821ZM846 2083C846 2074.72 852.715 2068 861 2068C869.285 2068 876 2074.72 876 2083H846ZM861 2063C855.477 2063 851 2058.52 851 2053C851 2047.48 855.477 2043 861 2043C866.523 2043 871 2047.48 871 2053C871 2058.52 866.523 2063 861 2063Z" fill="#264a92"/>
<path d="M971.024 2050.5V2023C971.024 2020.24 973.263 2018 976.024 2018H1066.02C1068.79 2018 1071.02 2020.24 1071.02 2023V2050.5C1064.12 2050.5 1058.52 2056.09 1058.52 2063C1058.52 2069.9 1064.12 2075.5 1071.02 2075.5V2103C1071.02 2105.76 1068.79 2108 1066.02 2108H976.024C973.263 2108 971.024 2105.76 971.024 2103V2075.5C977.928 2075.5 983.524 2069.9 983.524 2063C983.524 2056.09 977.928 2050.5 971.024 2050.5ZM1006.02 2048V2058H1036.02V2048H1006.02ZM1006.02 2068V2078H1036.02V2068H1006.02Z" fill="#264a92"/>
<path d="M1181 2013C1208.61 2013 1231 2035.39 1231 2063C1231 2090.61 1208.61 2113 1181 2113C1153.39 2113 1131 2090.61 1131 2063C1131 2035.39 1153.39 2013 1181 2013ZM1191 2053H1171C1168.24 2053 1166 2055.24 1166 2058V2078H1173.5V2098H1188.5V2078H1196V2058C1196 2055.24 1193.76 2053 1191 2053ZM1181 2028C1175.48 2028 1171 2032.48 1171 2038C1171 2043.52 1175.48 2048 1181 2048C1186.52 2048 1191 2043.52 1191 2038C1191 2032.48 1186.52 2028 1181 2028Z" fill="#264a92"/>
<path d="M1601 1443C1603.76 1443 1606 1445.24 1606 1448V1466.78L1561.01 1511.78L1560.97 1532.98L1582.21 1533.01L1606 1509.21V1538C1606 1540.76 1603.76 1543 1601 1543H1521C1518.24 1543 1516 1540.76 1516 1538V1448C1516 1445.24 1518.24 1443 1521 1443H1601ZM1609.89 1477.04L1616.96 1484.11L1578.07 1523L1570.99 1522.99L1571 1515.93L1609.89 1477.04ZM1561 1493H1536V1503H1561V1493ZM1576 1473H1536V1483H1576V1473Z" fill="#264a92"/>
<path d="M1731 1443H1692.02C1689.05 1443 1686.48 1445.1 1685.9 1448.02L1681.9 1468H1671V1478H1681.54H1760.46H1771V1468H1760.1L1756.1 1448.02C1755.52 1445.1 1752.95 1443 1749.97 1443H1741V1433H1731V1443ZM1759.3 1488H1682.7L1688.41 1537.47C1688.77 1540.62 1691.44 1543 1694.61 1543H1747.39C1750.56 1543 1753.23 1540.62 1753.59 1537.47L1759.3 1488Z" fill="#264a92"/>
<path d="M1881 1543C1853.39 1543 1831 1520.61 1831 1493C1831 1465.39 1853.39 1443 1881 1443C1908.61 1443 1931 1465.39 1931 1493C1931 1520.61 1908.61 1543 1881 1543ZM1861 1498C1861 1509.05 1869.95 1518 1881 1518C1892.05 1518 1901 1509.05 1901 1498H1861Z" fill="#264a92"/>
<path d="M2041 1543C2013.39 1543 1991 1520.61 1991 1493C1991 1465.39 2013.39 1443 2041 1443C2068.61 1443 2091 1465.39 2091 1493C2091 1520.61 2068.61 1543 2041 1543ZM2016 1518H2026C2026 1509.72 2032.72 1503 2041 1503C2049.28 1503 2056 1509.72 2056 1518H2066C2066 1504.19 2054.81 1493 2041 1493C2027.19 1493 2016 1504.19 2016 1518ZM2021 1488C2025.14 1488 2028.5 1484.64 2028.5 1480.5C2028.5 1476.36 2025.14 1473 2021 1473C2016.86 1473 2013.5 1476.36 2013.5 1480.5C2013.5 1484.64 2016.86 1488 2021 1488ZM2061 1488C2065.14 1488 2068.5 1484.64 2068.5 1480.5C2068.5 1476.36 2065.14 1473 2061 1473C2056.86 1473 2053.5 1476.36 2053.5 1480.5C2053.5 1484.64 2056.86 1488 2061 1488Z" fill="#264a92"/>
<path d="M2146.91 1493C2151.61 1467.4 2174.04 1448 2201 1448C2227.96 1448 2250.39 1467.4 2255.09 1493C2250.39 1518.6 2227.96 1538 2201 1538C2174.04 1538 2151.61 1518.6 2146.91 1493ZM2201 1518C2214.81 1518 2226 1506.81 2226 1493C2226 1479.19 2214.81 1468 2201 1468C2187.19 1468 2176 1479.19 2176 1493C2176 1506.81 2187.19 1518 2201 1518ZM2201 1508C2192.72 1508 2186 1501.28 2186 1493C2186 1484.72 2192.72 1478 2201 1478C2209.29 1478 2216 1484.72 2216 1493C2216 1501.28 2209.29 1508 2201 1508Z" fill="#264a92"/>
<path d="M2316 1478H2346C2348.76 1478 2351 1475.76 2351 1473V1443H2401.01C2403.77 1443 2406 1445.28 2406 1447.96V1538.04C2406 1540.78 2403.78 1543 2401.03 1543H2320.97C2318.22 1543 2316 1540.76 2316 1537.96V1478ZM2316 1468L2341 1443.02V1468H2316Z" fill="#264a92"/>
<path d="M2566 1508H2531V1543H2480.99C2478.23 1543 2476 1540.72 2476 1538.04V1447.96C2476 1445.22 2478.22 1443 2480.97 1443H2561.03C2563.78 1443 2566 1445.24 2566 1448.04V1508ZM2566 1518L2541 1542.98V1518H2566Z" fill="#264a92"/>
<path d="M1516 1608H1562.91C1564.8 1608 1566.53 1609.07 1567.38 1610.76L1571 1618H1601C1603.76 1618 1606 1620.24 1606 1623V1678C1606 1680.76 1603.76 1683 1601 1683H1569.09C1567.2 1683 1565.47 1681.93 1564.62 1680.24L1561 1673H1526V1703H1516V1608Z" fill="#264a92"/>
<path d="M1741 1603V1613H1736V1629.21C1736 1635 1737.25 1640.72 1739.68 1645.98L1761.08 1692.36C1762.82 1696.12 1761.18 1700.57 1757.42 1702.31C1756.43 1702.76 1755.36 1703 1754.28 1703H1687.72C1683.58 1703 1680.22 1699.64 1680.22 1695.5C1680.22 1694.41 1680.45 1693.34 1680.91 1692.36L1702.32 1645.98C1704.74 1640.72 1706 1635 1706 1629.21V1613H1701V1603H1741ZM1726 1613H1716V1633H1726V1613Z" fill="#264a92"/>
<path d="M1828.92 1658.03C1827.04 1653.39 1826 1648.32 1826 1643C1826 1620.91 1843.91 1603 1866 1603C1882.97 1603 1897.48 1613.57 1903.29 1628.49C1904.98 1628.17 1906.72 1628 1908.5 1628C1923.69 1628 1936 1640.31 1936 1655.5C1936 1656.35 1935.96 1657.2 1935.88 1658.03H1828.92ZM1841 1688H1926V1698H1841V1688ZM1831 1668H1936V1678H1831V1668Z" fill="#264a92"/>
<path d="M2091 1648V1693C2091 1695.76 2088.76 1698 2086 1698H1996C1993.24 1698 1991 1695.76 1991 1693V1648H2091ZM2091 1638H1991V1613C1991 1610.24 1993.24 1608 1996 1608H2033.07L2043.07 1618H2086C2088.76 1618 2091 1620.24 2091 1623V1638Z" fill="#264a92"/>
<path d="M2203.07 1618H2246C2248.76 1618 2251 1620.24 2251 1623V1693C2251 1695.76 2248.76 1698 2246 1698H2156C2153.24 1698 2151 1695.76 2151 1693V1613C2151 1610.24 2153.24 1608 2156 1608H2193.07L2203.07 1618Z" fill="#264a92"/>
<path d="M2316.02 1608.01H2406.02C2408.79 1608.01 2411.02 1610.25 2411.02 1613.01V1693.01C2411.02 1695.78 2408.79 1698.01 2406.02 1698.01H2316.02C2313.26 1698.01 2311.02 1695.78 2311.02 1693.01V1613.01C2311.02 1610.25 2313.26 1608.01 2316.02 1608.01ZM2374.99 1641.98L2362.74 1654.23L2352.13 1643.62L2330.92 1664.83L2337.99 1671.9L2352.13 1657.76L2362.74 1668.37L2382.06 1649.05L2391.02 1658.01V1633.01H2366.02L2374.99 1641.98Z" fill="#264a92"/>
<path d="M2480.51 1682.32L2500.06 1662.76L2514.2 1676.9L2537.06 1654.05L2546.02 1663.01V1638.01H2521.02L2529.99 1646.98L2514.2 1662.76L2500.06 1648.62L2475.33 1673.35C2472.56 1667.14 2471.02 1660.26 2471.02 1653.01C2471.02 1625.4 2493.41 1603.01 2521.02 1603.01C2548.64 1603.01 2571.02 1625.4 2571.02 1653.01C2571.02 1680.63 2548.64 1703.01 2521.02 1703.01C2504.36 1703.01 2489.59 1694.86 2480.51 1682.32Z" fill="#264a92"/>
<path d="M1521 1899H1536C1541.52 1899 1546 1903.48 1546 1909V1934C1546 1939.52 1541.52 1944 1536 1944H1521C1515.48 1944 1511 1939.52 1511 1934V1899C1511 1871.39 1533.39 1849 1561 1849C1588.61 1849 1611 1871.39 1611 1899V1934C1611 1939.52 1606.52 1944 1601 1944H1586C1580.48 1944 1576 1939.52 1576 1934V1909C1576 1903.48 1580.48 1899 1586 1899H1601C1601 1876.91 1583.09 1859 1561 1859C1538.91 1859 1521 1876.91 1521 1899Z" fill="#264a92"/>
<path d="M1721 1861.64C1732.75 1851.1 1750.9 1851.45 1762.21 1862.79C1773.53 1874.12 1773.91 1892.19 1763.39 1903.97L1721 1946.43L1678.61 1903.97C1668.09 1892.19 1668.48 1874.1 1679.79 1862.79C1691.11 1851.47 1709.23 1851.08 1721 1861.64Z" fill="#264a92"/>
<path d="M1886 1929V1954H1876V1929H1866V1944H1856V1927.74C1838.75 1923.3 1826 1907.64 1826 1889C1826 1866.91 1843.91 1849 1866 1849C1882.97 1849 1897.48 1859.57 1903.29 1874.49C1904.98 1874.17 1906.72 1874 1908.5 1874C1923.69 1874 1936 1886.31 1936 1901.5C1936 1916.69 1923.69 1929 1908.5 1929H1906V1944H1896V1929H1886Z" fill="#264a92"/>
<path d="M2081 1939C2081 1941.76 2078.76 1944 2076 1944H2006C2003.24 1944 2001 1941.76 2001 1939V1894H1986L2037.64 1847.06C2039.54 1845.32 2042.46 1845.32 2044.36 1847.06L2096 1894H2081V1939Z" fill="#264a92"/>
<path d="M2246 1939C2246 1941.76 2243.76 1944 2241 1944H2161C2158.24 1944 2156 1941.76 2156 1939V1886.45C2156 1884.9 2156.71 1883.45 2157.93 1882.5L2197.93 1851.39C2199.74 1849.98 2202.26 1849.98 2204.07 1851.39L2244.07 1882.5C2245.29 1883.45 2246 1884.9 2246 1886.45V1939ZM2176 1914V1924H2226V1914H2176Z" fill="#264a92"/>
<path d="M2401 1939C2401 1941.76 2398.76 1944 2396 1944H2326C2323.24 1944 2321 1941.76 2321 1939V1894H2306L2357.64 1847.06C2359.54 1845.32 2362.46 1845.32 2364.36 1847.06L2416 1894H2401V1939ZM2343.96 1908.04L2339 1910.9L2344.01 1919.57L2348.97 1916.7C2350.94 1918.56 2353.33 1919.96 2356 1920.76V1926.48H2366V1920.76C2368.67 1919.96 2371.06 1918.56 2373.03 1916.7L2377.99 1919.57L2383 1910.9L2378.04 1908.04C2378.35 1906.74 2378.51 1905.38 2378.51 1903.99C2378.51 1902.59 2378.35 1901.24 2378.04 1899.94L2383 1897.08L2377.99 1888.41L2373.03 1891.28C2371.06 1889.42 2368.67 1888.01 2366 1887.22V1881.5H2356V1887.22C2353.33 1888.01 2350.94 1889.42 2348.97 1891.28L2344.01 1888.41L2339 1897.08L2343.96 1899.94C2343.65 1901.24 2343.49 1902.59 2343.49 1903.99C2343.49 1905.38 2343.65 1906.74 2343.96 1908.04ZM2361 1911.49C2356.85 1911.49 2353.49 1908.13 2353.49 1903.99C2353.49 1899.85 2356.85 1896.49 2361 1896.49C2365.14 1896.49 2368.5 1899.85 2368.5 1903.99C2368.5 1908.13 2365.14 1911.49 2361 1911.49Z" fill="#264a92"/>
<path d="M2565 1884H2521V1924H2516V1944H2486C2483.24 1944 2481 1941.76 2481 1939V1894H2466L2517.64 1847.06C2519.54 1845.32 2522.46 1845.32 2524.36 1847.06L2565 1884ZM2531 1894H2576V1929H2531V1894ZM2526 1944H2581V1934H2526V1944Z" fill="#264a92"/>
<path d="M1512.21 2033.27L1558.45 2005.54C1560.03 2004.59 1562.01 2004.59 1563.59 2005.54L1609.79 2033.27C1610.54 2033.72 1611 2034.54 1611 2035.42V2099C1611 2101.76 1608.76 2104 1606 2104H1516C1513.24 2104 1511 2101.76 1511 2099V2035.42C1511 2034.54 1511.46 2033.72 1512.21 2033.27ZM1592.73 2040.22L1561.3 2067.41L1529.24 2040.19L1522.76 2047.81L1561.37 2080.59L1599.27 2047.78L1592.73 2040.22Z" fill="#264a92"/>
<path d="M1671 2024L1706 2009L1736 2024L1767.51 2010.49C1768.78 2009.95 1770.25 2010.54 1770.8 2011.81C1770.93 2012.12 1771 2012.45 1771 2012.79V2094L1736 2109L1706 2094L1674.48 2107.51C1673.22 2108.05 1671.75 2107.46 1671.2 2106.19C1671.07 2105.88 1671 2105.55 1671 2105.21V2024Z" fill="#264a92"/>
<path d="M1886 2054V2029H1876V2064H1906V2054H1886ZM1912.82 2085.82L1881 2117.64L1849.18 2085.82C1831.61 2068.25 1831.61 2039.75 1849.18 2022.18C1866.75 2004.61 1895.25 2004.61 1912.82 2022.18C1930.39 2039.75 1930.39 2068.25 1912.82 2085.82Z" fill="#264a92"/>
<path d="M2041 2034C2063.09 2034 2081 2051.91 2081 2074C2081 2096.09 2063.09 2114 2041 2114C2018.91 2114 2001 2096.09 2001 2074C2001 2051.91 2018.91 2034 2041 2034ZM2041 2051.5L2034.39 2064.9L2019.6 2067.05L2030.3 2077.48L2027.77 2092.2L2041 2085.25L2054.23 2092.2L2051.7 2077.48L2062.4 2067.05L2047.61 2064.9L2041 2051.5ZM2046 2009L2071 2009V2024L2064.18 2029.69C2058.65 2026.79 2052.51 2024.89 2046.01 2024.25L2046 2009ZM2036 2009L2036 2024.25C2029.49 2024.89 2023.35 2026.79 2017.82 2029.69L2011 2024V2009L2036 2009Z" fill="#264a92"/>
<path d="M2246 2049.31V2019C2246 2016.24 2243.76 2014 2241 2014H2236C2226.11 2023.89 2207.51 2029.44 2196 2032.06V2085.94C2207.51 2088.56 2226.11 2094.11 2236 2104H2241C2243.76 2104 2246 2101.76 2246 2099V2068.69C2250.31 2067.58 2253.5 2063.66 2253.5 2059C2253.5 2054.34 2250.31 2050.42 2246 2049.31ZM2166 2034C2160.48 2034 2156 2038.48 2156 2044V2074C2156 2079.52 2160.48 2084 2166 2084H2171L2176 2109H2186V2034H2166Z" fill="#264a92"/>
<path d="M2361 2004C2374.81 2004 2386 2015.19 2386 2029V2059C2386 2072.81 2374.81 2084 2361 2084C2347.19 2084 2336 2072.81 2336 2059V2029C2336 2015.19 2347.19 2004 2361 2004ZM2311.96 2068.81L2321.77 2066.85C2325.42 2085.18 2341.59 2099 2361 2099C2380.41 2099 2396.58 2085.18 2400.23 2066.85L2410.04 2068.81C2405.48 2091.73 2385.26 2109 2361 2109C2336.74 2109 2316.52 2091.73 2311.96 2068.81Z" fill="#264a92"/>
<path d="M2517.9 2009.09C2510.58 2015.94 2506 2025.68 2506 2036.5C2506 2057.21 2522.79 2074 2543.5 2074C2554.32 2074 2564.06 2069.42 2570.91 2062.1C2569.31 2088.27 2547.57 2109 2521 2109C2493.39 2109 2471 2086.61 2471 2059C2471 2032.43 2491.73 2010.69 2517.9 2009.09Z" fill="#264a92"/>
<path d="M2536.71 147H2545.29C2555.36 147 2560.76 148.392 2565.65 151.007C2570.54 153.622 2574.38 157.458 2576.99 162.347C2579.61 167.236 2581 172.636 2581 182.706V211.295C2581 221.364 2579.61 226.764 2576.99 231.652C2574.38 236.542 2570.54 240.379 2565.65 242.993C2560.76 245.608 2555.36 247 2545.29 247H2536.71C2526.64 247 2521.24 245.608 2516.35 242.993C2511.46 240.379 2507.62 236.542 2505.01 231.652C2502.39 226.764 2501 221.364 2501 211.295V182.706C2501 172.636 2502.39 167.236 2505.01 162.347C2507.62 157.458 2511.46 153.622 2516.35 151.007C2521.24 148.392 2526.64 147 2536.71 147ZM2536 167V192H2546V167H2536Z" fill="#264a92"/>
<path d="M2651 156.967C2651 154.224 2653.28 152 2655.96 152H2746.04C2748.78 152 2751 154.225 2751 156.967V237.033C2751 239.776 2748.72 242 2746.04 242H2655.96C2653.22 242 2651 239.775 2651 237.033V156.967ZM2701 197.854C2699.44 197.301 2697.75 197 2696 197C2687.72 197 2681 203.715 2681 212C2681 220.285 2687.72 227 2696 227C2704.28 227 2711 220.285 2711 212V177H2726V167H2701V197.854Z" fill="#264a92"/>
<path d="M2521 317C2521 308.716 2527.72 302 2536 302C2544.28 302 2551 308.716 2551 317C2551 318.753 2550.7 320.436 2550.15 322H2571C2573.76 322 2576 324.239 2576 327V347.854C2577.56 347.301 2579.25 347 2581 347C2589.28 347 2596 353.715 2596 362C2596 370.285 2589.28 377 2581 377C2579.25 377 2577.56 376.699 2576 376.146V397C2576 399.761 2573.76 402 2571 402H2501C2498.24 402 2496 399.761 2496 397V327C2496 324.239 2498.24 322 2501 322H2521.85C2521.3 320.436 2521 318.753 2521 317Z" fill="#264a92"/>
<path d="M2681 387H2732.19L2741 393.925V342H2746C2748.76 342 2751 344.239 2751 347V414.5L2728.73 397H2686C2683.24 397 2681 394.761 2681 392V387ZM2668.27 377L2646 394.5V317C2646 314.239 2648.24 312 2651 312H2726C2728.76 312 2731 314.239 2731 317V377H2668.27Z" fill="#264a92"/>
<path d="M2495.5 603.499L2589.53 634.842C2590.84 635.279 2591.54 636.695 2591.11 638.004C2590.87 638.702 2590.35 639.262 2589.66 639.535L2546 657L2523.88 701.252C2523.26 702.487 2521.76 702.987 2520.52 702.37C2519.89 702.056 2519.43 701.494 2519.24 700.82L2492.3 606.558C2491.92 605.23 2492.69 603.846 2494.02 603.467C2494.5 603.329 2495.02 603.34 2495.5 603.499Z" fill="#264a92"/>
<path d="M2741 677H2751V687H2651V677H2661V642C2661 619.909 2678.91 602 2701 602C2723.09 602 2741 619.909 2741 642V677ZM2686 697H2716V707H2686V697Z" fill="#264a92"/>
<path d="M2586 761.983C2511 761.983 2501 831.983 2496 861.983C2499.33 861.983 2502.66 861.983 2505.99 861.983C2509.32 845.318 2517.66 836.151 2531 834.483C2551 831.983 2566 814.483 2571 799.483L2563.5 794.483C2565.17 792.817 2566.83 791.15 2568.5 789.483C2573.5 784.483 2578.52 776.983 2586 761.983Z" fill="#264a92"/>
<path d="M2746.02 781.701C2737.33 791.554 2725.45 798.528 2711.99 801.014C2709.87 797.14 2705.75 794.514 2701.02 794.514C2696.3 794.514 2692.18 797.14 2690.06 801.014C2676.6 798.528 2664.72 791.554 2656.02 781.701V767.014C2656.02 764.253 2658.26 762.014 2661.02 762.014H2741.02C2743.79 762.014 2746.02 764.253 2746.02 767.014V781.701ZM2746.02 795.635V857.014C2746.02 859.775 2743.79 862.014 2741.02 862.014H2661.02C2658.26 862.014 2656.02 859.775 2656.02 857.014V795.635C2665.33 803.448 2676.69 808.887 2689.18 811.016C2690.85 815.957 2695.52 819.514 2701.02 819.514C2706.53 819.514 2711.2 815.957 2712.87 811.016C2725.36 808.887 2736.72 803.448 2746.02 795.635Z" fill="#264a92"/>
<path d="M2526 1103H2501V1063H2526V1103ZM2556 1103H2531V1043H2556V1103ZM2586 1103H2561V1023H2586V1103ZM2591 1123H2496V1113H2591V1123Z" fill="#264a92"/>
<path d="M2741 1123H2661C2658.24 1123 2656 1120.76 2656 1118V1053H2746V1118C2746 1120.76 2743.76 1123 2741 1123ZM2746 1043H2656V1028C2656 1025.24 2658.24 1023 2661 1023H2741C2743.76 1023 2746 1025.24 2746 1028V1043ZM2676 1068V1088H2696V1068H2676ZM2676 1098V1108H2726V1098H2676ZM2706 1073V1083H2726V1073H2706Z" fill="#264a92"/>
<path d="M2541 1283C2513.39 1283 2491 1260.61 2491 1233C2491 1205.39 2513.39 1183 2541 1183C2568.61 1183 2591 1205.39 2591 1233C2591 1260.61 2568.61 1283 2541 1283ZM2565.1 1258.38C2571.81 1252 2576 1242.99 2576 1233C2576 1213.67 2560.33 1198 2541 1198C2535.7 1198 2530.67 1199.18 2526.16 1201.29L2531.04 1210.06C2534.09 1208.74 2537.46 1208 2541 1208C2554.81 1208 2566 1219.19 2566 1233H2551L2565.1 1258.38ZM2555.84 1264.71L2550.96 1255.94C2547.91 1257.26 2544.54 1258 2541 1258C2527.19 1258 2516 1246.81 2516 1233H2531L2516.9 1207.62C2510.19 1214 2506 1223.01 2506 1233C2506 1252.33 2521.67 1268 2541 1268C2546.3 1268 2551.33 1266.82 2555.84 1264.71Z" fill="#264a92"/>
<path d="M2708.5 1183C2708.5 1185.22 2707.53 1187.22 2706 1188.59V1198H2731C2739.28 1198 2746 1204.72 2746 1213V1263C2746 1271.28 2739.28 1278 2731 1278H2671C2662.72 1278 2656 1271.28 2656 1263V1213C2656 1204.72 2662.72 1198 2671 1198H2696V1188.59C2694.47 1187.22 2693.5 1185.22 2693.5 1183C2693.5 1178.86 2696.86 1175.5 2701 1175.5C2705.14 1175.5 2708.5 1178.86 2708.5 1183ZM2641 1223H2651V1253H2641V1223ZM2761 1223H2751V1253H2761V1223ZM2686 1245.5C2690.14 1245.5 2693.5 1242.14 2693.5 1238C2693.5 1233.86 2690.14 1230.5 2686 1230.5C2681.86 1230.5 2678.5 1233.86 2678.5 1238C2678.5 1242.14 2681.86 1245.5 2686 1245.5ZM2723.5 1238C2723.5 1233.86 2720.14 1230.5 2716 1230.5C2711.86 1230.5 2708.5 1233.86 2708.5 1238C2708.5 1242.14 2711.86 1245.5 2716 1245.5C2720.14 1245.5 2723.5 1242.14 2723.5 1238Z" fill="#264a92"/>
<path d="M1181.02 307C1197.59 307 1211.02 320.431 1211.02 337V342H1231.02V352H1225.19L1221.41 397.415C1221.19 400.007 1219.02 402 1216.42 402H1145.63C1143.02 402 1140.86 400.007 1140.64 397.415L1136.85 352H1131.02V342H1151.02V337C1151.02 320.431 1164.46 307 1181.02 307ZM1186.02 362H1176.02V382H1186.02V362ZM1166.02 362H1156.02V382H1166.02V362ZM1206.02 362H1196.02V382H1206.02V362ZM1181.02 317C1170.31 317 1161.57 325.42 1161.05 336.002L1161.02 337V342H1201.02V337C1201.02 326.289 1192.6 317.545 1182.02 317.024L1181.02 317Z" fill="#264a92"/>
<path d="M1389.39 336.896L1382.32 343.967L1371.71 333.36L1361.1 343.967L1378.78 361.644L1371.71 368.715L1368.18 365.18L1336.36 397H1308.07L1297.47 407.606L1290.39 400.535L1301 389.929V361.644L1332.82 329.825L1329.29 326.289L1336.36 319.218L1354.03 336.896L1364.64 326.289L1354.03 315.683L1361.1 308.612L1389.39 336.896ZM1329.29 368.715L1315.14 354.573L1308.07 361.644L1322.21 375.787L1329.29 368.715ZM1343.43 354.573L1329.29 340.431L1322.21 347.502L1336.36 361.644L1343.43 354.573Z" fill="#264a92"/>
<path d="M1141 231.612L1134.25 228.885C1131.69 227.851 1130.46 224.936 1131.49 222.376L1141 198.835V231.612ZM1165.3 242H1156C1153.24 242 1151 239.761 1151 237V206.611L1165.3 242ZM1151.11 166.839L1197.47 148.108C1200.03 147.074 1202.94 148.311 1203.98 150.871L1232.07 220.41C1233.11 222.97 1231.87 225.885 1229.31 226.919L1182.95 245.649C1180.39 246.683 1177.48 245.446 1176.44 242.886L1148.35 173.348C1147.31 170.787 1148.55 167.873 1151.11 166.839ZM1166 182C1168.76 182 1171 179.762 1171 177C1171 174.239 1168.76 172 1166 172C1163.24 172 1161 174.239 1161 177C1161 179.762 1163.24 182 1166 182Z" fill="#264a92"/>
<path d="M1305.64 244.41L1334.88 215.18C1338.21 216.071 1341.92 215.207 1344.54 212.59C1348.44 208.685 1348.44 202.353 1344.54 198.448C1340.63 194.543 1334.3 194.543 1330.39 198.448C1327.78 201.065 1326.91 204.772 1327.8 208.109L1298.57 237.339L1293.27 232.035C1307.41 215.536 1312.72 197.27 1319.79 166.628L1351.61 163.092L1379.89 191.377L1376.36 223.197C1345.71 230.268 1327.45 235.571 1310.95 249.713L1305.64 244.41ZM1363.98 147.183L1395.71 178.916C1396.69 179.892 1396.69 181.475 1395.71 182.451C1395.34 182.826 1394.86 183.072 1394.33 183.153L1386.96 184.306L1358.68 156.021L1359.74 148.597C1359.93 147.23 1361.2 146.28 1362.57 146.475C1363.1 146.552 1363.6 146.8 1363.98 147.183Z" fill="#264a92"/>
<path d="M1221.56 1043.88L1214.49 1050.95L1210.96 1047.41L1189.74 1068.62L1186.21 1086.3L1179.14 1093.37L1157.92 1072.16L1133.17 1096.91L1126.1 1089.84L1150.85 1065.09L1129.64 1043.88L1136.71 1036.81L1154.39 1033.27L1175.6 1012.06L1172.07 1008.52L1179.14 1001.45L1221.56 1043.88Z" fill="#264a92"/>
</svg>
