<svg width="959" height="296" viewBox="0 0 959 296" fill="none" xmlns="http://www.w3.org/2000/svg">
<path d="M660.19 10.67H657.15C657.15 8.55 656.18 6.51 654.47 5.01C652.75 3.51 650.42 2.67 648 2.67V0C651.23 0 654.33 1.12 656.62 3.12C657.44 3.83 658.12 4.63 658.67 5.5C659.22 4.63 659.91 3.83 660.72 3.12C663.01 1.12 666.11 0 669.34 0V2.67C666.91 2.67 664.59 3.51 662.87 5.01C661.15 6.51 660.19 8.55 660.19 10.67Z" fill="#264A92"/>
<path d="M791.52 72H744.13V147.12H775.4V103.6H791.52C797.97 103.6 803.13 108.76 803.13 115.21V178.08C803.13 184.2 797.97 189.36 791.52 189.36H787.01C763.15 189.36 744.13 208.7 744.13 232.24V295.18H834.4V242.88H803.13V266.41H775.4V232.24C775.4 226.12 780.56 220.96 787.01 220.96H791.52C815.06 220.96 834.4 201.62 834.4 178.08V115.21C834.4 91.35 815.06 72.01 791.52 72.01V72Z" fill="#264A92"/>
<path fill-rule="evenodd" clip-rule="evenodd" d="M942.6 226.72L943.34 72.32H884.66L847.26 259.05H911.74V295.16H942.59V259.05H958.99V226.72H942.6ZM911.75 226.72H885.31L911.75 96.83V226.72Z" fill="#264A92"/>
<path d="M626.28 48C626.28 44.82 627.73 41.77 630.3 39.51C632.87 37.26 636.36 36 640 36V32C635.15 32 630.5 33.69 627.07 36.69C625.85 37.76 624.82 38.96 624 40.26C623.18 38.96 622.15 37.76 620.93 36.69C617.5 33.69 612.85 32 608 32V36C611.64 36 615.13 37.26 617.7 39.51C620.27 41.76 621.72 44.81 621.72 48H626.28Z" fill="#264A92"/>
<path d="M697.24 51.58C698.86 53.01 700.24 54.61 701.33 56.34H701.34C702.43 54.61 703.8 53 705.43 51.58C710 47.58 716.2 45.33 722.67 45.33V50.66C717.82 50.66 713.17 52.35 709.74 55.35C706.31 58.35 704.38 62.42 704.38 66.66H698.29C698.29 62.42 696.36 58.35 692.93 55.35C689.5 52.35 684.85 50.66 680 50.66V45.33C686.47 45.33 692.67 47.58 697.24 51.58Z" fill="#264A92"/>
<path fill-rule="evenodd" clip-rule="evenodd" d="M349.51 102.7H362.57V262.9H349.51V295.16H453.02V191.55C452.7 168.3 433.91 149.51 410.34 149.51H394.1V102.69H421.81V132.31H453.02V71.48H349.51V102.7ZM394.09 180.73H410.33C416.7 180.73 421.8 185.83 421.8 192.2V262.91H394.09V180.73Z" fill="#264A92"/>
<path d="M113.67 71.17L105.07 128.82C102.2 141.24 97.74 149.84 92.33 155.89L114.06 295.17H82.53L62.71 168.31H49.33V295.17H18.12V102.7H0V71.17H49.34V137.1H62.4C66.22 137.1 71.31 137.1 74.18 122.45L81.82 71.17H113.67Z" fill="#264A92"/>
<path fill-rule="evenodd" clip-rule="evenodd" d="M259.15 145.38V295.17H284.9C284.9 279.67 294.1 266 307.5 260.22V295.17H333.25V110.43H294.09C274.91 110.43 259.14 126.2 259.14 145.38H259.15ZM307.5 233.15C300.67 234.73 293.05 238.14 284.9 244.71V145.38C284.9 140.39 289.11 136.18 294.1 136.18H307.5V233.15Z" fill="#264A92"/>
<path fill-rule="evenodd" clip-rule="evenodd" d="M145.01 102.7H131.95V71.17H247.24L229.09 208.44C225.27 233.29 208.7 249.21 186.41 249.21H176.54V295.17H145.01V102.7ZM176.54 102.7H211.57L198.19 203.98C196.6 213.22 192.78 217.99 186.41 217.99H176.54V102.7Z" fill="#264A92"/>
<path fill-rule="evenodd" clip-rule="evenodd" d="M473.05 102.7H486.11V295.17H517.64V249.21H527.51C549.8 249.21 566.37 233.29 570.19 208.44L588.34 71.17H473.05V102.7ZM552.68 102.7H517.65V217.99H527.52C533.89 217.99 537.71 213.22 539.3 203.98L552.68 102.7Z" fill="#264A92"/>
<path fill-rule="evenodd" clip-rule="evenodd" d="M697 277.77V285L697.04 285.01H711.04V295.18H596.04V285.01H610.04V277.78H622.37C622.315 277.734 622.219 277.664 622.088 277.568L622.05 277.54L622.034 277.529C621.123 276.87 618.743 275.152 615.86 272.05C612.48 268.41 613.43 262.07 614.82 260.33V258.25H612.22V256.95C612.22 255.8 613.15 254.87 614.3 254.87C615.45 254.87 616.38 255.8 616.38 256.95V258.25L617.17 256.78C617.8 255.6 619.04 254.86 620.38 254.86H624.45C623.55 258.47 619.28 259.84 616.12 260.33L619.15 262.57C621.75 264.5 624.9 265.54 628.14 265.54H631.4V256.42H637.13L638.84 252.26L639.86 189.07L636.94 187.18C633.15 184.73 629.72 181.78 626.73 178.4C624.66 176.07 624.57 172.59 626.5 170.15L628.11 168.12V164.99H626.55V163.69C626.55 162.69 627.37 161.87 628.37 161.87C629.37 161.87 630.19 162.68 630.19 163.69V167.86C630.19 169.29 631.35 170.46 632.79 170.46H640.15L640.91 123.57H640.86C638.27 123.57 636.17 121.47 636.17 118.88H633.04C632.75 118.88 632.52 118.65 632.52 118.36V104.3H637.21V101.7H647.79L646.1 84.26H643.75V82.51H647.12V82.19C647.12 79.6 645.02 77.5 642.43 77.5V76.39H645.49V74.64H651.61V72.89H655.11V74.64H661.24V76.39H664.3V77.5C661.71 77.5 659.61 79.6 659.61 82.19V82.51H662.99V84.26H660.88L659.18 101.7H669.5V104.3H674.19V118.36C674.19 118.65 673.96 118.88 673.67 118.88H670.54C670.54 121.45 668.47 123.54 665.9 123.57L666.66 170.46H674.19C675.62 170.46 676.79 169.3 676.79 167.86V163.69C676.79 162.69 677.61 161.87 678.61 161.87C679.61 161.87 680.43 162.68 680.43 163.69V164.99H678.87V168.12L680.48 170.15C682.41 172.59 682.32 176.07 680.25 178.4C677.26 181.78 673.82 184.73 670.04 187.18L666.96 189.17L667.98 252.25H667.95L669.66 256.41H675.39V265.53H678.83C682.07 265.53 685.22 264.49 687.82 262.56L690.85 260.32C687.68 259.83 683.41 258.45 682.51 254.85H686.58C687.92 254.85 689.15 255.59 689.79 256.77L690.58 258.24V256.94C690.58 255.79 691.51 254.86 692.66 254.86C693.81 254.86 694.74 255.79 694.74 256.94V258.24H692.14V260.32C693.53 262.06 694.49 268.39 691.1 272.04C688.217 275.142 685.837 276.86 684.926 277.519L684.91 277.53C684.75 277.64 684.64 277.72 684.58 277.77H697ZM673.14 105.34H669.47V113.67H673.14V105.34ZM637.17 113.68V105.34H633.5V113.68H637.17ZM657.15 92.37L658.61 96.55L659.49 87.49L657.15 92.37ZM652.55 87.51L650.88 92.28L652.55 95.75V87.51ZM652.54 101.69V98.16L650.39 93.67L648.54 98.97L648.8 101.69H652.54ZM656.03 92.29L654.36 87.52V95.76L656.03 92.29ZM656.51 93.67L654.36 98.16V101.69H658.1L658.36 98.97L656.51 93.67ZM654.58 85.03L656.66 90.98L659.52 85.03H654.58ZM652.33 85.02H647.39L648.2 86.71L650.25 90.97L652.33 85.02ZM647.42 87.49L647.48 88.16L648.3 96.55L649.76 92.37L647.61 87.9L647.42 87.49ZM668.43 102.73H638.22V104.29H668.43V102.73ZM638.21 113.67H641.86V105.34H638.21V113.67ZM642.9 113.67H646.55V105.33H642.9V113.67ZM647.59 113.67H650.72V105.33H647.59V113.67ZM654.89 113.67L654.88 113.66V105.33H651.76V113.67H654.89ZM655.92 113.67H659.05V105.34H655.92V113.67ZM660.09 113.67H663.74V105.34H660.09V113.67ZM668.43 105.34H664.78V113.67H668.43V105.34Z" fill="#264A92"/>
</svg>
