<svg width="641" height="706" viewBox="0 0 641 706" fill="none" xmlns="http://www.w3.org/2000/svg">
<g clip-path="url(#clip0_22414_1774)">
<mask id="mask0_22414_1774" style="mask-type:luminance" maskUnits="userSpaceOnUse" x="400" y="470" width="161" height="115">
<path d="M560.467 470.867H400.467V584.867H560.467V470.867Z" fill="white"/>
</mask>
<g mask="url(#mask0_22414_1774)">
<path d="M560.467 111.867H400.467V584.867H560.467V111.867Z" fill="url(#paint0_linear_22414_1774)"/>
<path d="M560.467 536.867H544.467V520.867H560.467V536.867Z" fill="white"/>
<path d="M560.467 584.867H544.467V568.867H560.467V584.867Z" fill="white"/>
<path d="M560.467 568.867H544.467V552.867H560.467V568.867Z" fill="white"/>
<path d="M560.467 552.867H544.467V536.867H560.467V552.867Z" fill="white"/>
<path d="M544.467 552.867H528.467V536.867H544.467V552.867Z" fill="white"/>
<g opacity="0.8">
<path d="M520.467 552.867H512.467V544.867H520.467V552.867Z" fill="white"/>
</g>
<path d="M528.467 568.867H512.467V552.867H528.467V568.867Z" fill="white"/>
<path d="M528.467 584.867H512.467V568.867H528.467V584.867Z" fill="white"/>
<path d="M512.467 584.867H496.467V568.867H512.467V584.867Z" fill="white"/>
<g opacity="0.75">
<path d="M496.467 584.867H480.467V568.867H496.467V584.867Z" fill="white"/>
</g>
<path d="M496.467 568.867H480.467V552.867H496.467V568.867Z" fill="white"/>
<path d="M480.467 584.867H464.467V568.867H480.467V584.867Z" fill="white"/>
<path d="M480.467 568.867H464.467V552.867H480.467V568.867Z" fill="white"/>
<path d="M464.467 584.867H448.467V568.867H464.467V584.867Z" fill="white"/>
<path d="M464.467 568.867H448.467V552.867H464.467V568.867Z" fill="white"/>
<path d="M448.467 584.867H432.467V568.867H448.467V584.867Z" fill="white"/>
<path d="M448.467 568.867H432.467V552.867H448.467V568.867Z" fill="white"/>
<path d="M432.467 584.867H416.467V568.867H432.467V584.867Z" fill="white"/>
<path d="M432.467 568.867H416.467V552.867H432.467V568.867Z" fill="white"/>
<path d="M416.467 584.867H400.467V568.867H416.467V584.867Z" fill="white"/>
<path d="M416.467 568.867H400.467V552.867H416.467V568.867Z" fill="white"/>
<path d="M464.467 552.867H448.467V536.867H464.467V552.867Z" fill="white"/>
<path d="M480.467 552.867H464.467V536.867H480.467V552.867Z" fill="white"/>
<g opacity="0.5">
<path d="M448.467 552.867H432.467V536.867H448.467V552.867Z" fill="white"/>
</g>
<path d="M432.467 552.867H416.467V536.867H432.467V552.867Z" fill="white"/>
<path d="M416.467 552.867H400.467V536.867H416.467V552.867Z" fill="white"/>
<path d="M496.467 552.867H480.467V536.867H496.467V552.867Z" fill="white"/>
<g opacity="0.65">
<path d="M512.467 568.867H496.467V552.867H512.467V568.867Z" fill="#EDF2FF"/>
</g>
<path d="M544.467 584.867H528.467V568.867H544.467V584.867Z" fill="white"/>
<path d="M528.467 536.867H512.467V520.867H528.467V536.867Z" fill="white"/>
<path d="M512.467 536.867H496.467V520.867H512.467V536.867Z" fill="white"/>
<g opacity="0.5">
<path d="M496.467 536.867H480.467V520.867H496.467V536.867Z" fill="white"/>
</g>
<path d="M480.467 520.867H464.467V504.867H480.467V520.867Z" fill="white"/>
<g opacity="0.5">
<path d="M480.467 504.867H464.467V488.867H480.467V504.867Z" fill="white"/>
</g>
<path d="M480.467 536.867H464.467V520.867H480.467V536.867Z" fill="white"/>
<path d="M496.467 520.867H480.467V504.867H496.467V520.867Z" fill="white"/>
<path d="M464.467 520.867H448.467V504.867H464.467V520.867Z" fill="white"/>
<path d="M448.467 536.867H432.467V520.867H448.467V536.867Z" fill="white"/>
<path d="M432.467 536.867H416.467V520.867H432.467V536.867Z" fill="white"/>
<path d="M416.467 536.867H400.467V520.867H416.467V536.867Z" fill="white"/>
<g opacity="0.75">
<path d="M416.467 520.867H400.467V504.867H416.467V520.867Z" fill="white"/>
</g>
<path d="M416.467 504.867H400.467V488.867H416.467V504.867Z" fill="white"/>
<g opacity="0.25">
<path d="M416.467 472.867H400.467V456.867H416.467V472.867Z" fill="white"/>
</g>
<g opacity="0.5">
<path d="M432.467 520.867H416.467V504.867H432.467V520.867Z" fill="white"/>
</g>
<g opacity="0.75">
<path d="M464.467 536.867H448.467V520.867H464.467V536.867Z" fill="white"/>
</g>
<g opacity="0.75">
<path d="M448.467 520.867H432.467V504.867H448.467V520.867Z" fill="white"/>
</g>
<g opacity="0.25">
<path d="M432.467 504.867H416.467V488.867H432.467V504.867Z" fill="white"/>
</g>
<path d="M544.467 536.867H528.467V520.867H544.467V536.867Z" fill="white"/>
<path d="M512.467 520.867H496.467V504.867H512.467V520.867Z" fill="white"/>
<g opacity="0.5">
<path d="M560.467 520.867H544.467V504.867H560.467V520.867Z" fill="white"/>
</g>
<path d="M496.467 504.867H480.467V488.867H496.467V504.867Z" fill="white"/>
<path d="M544.467 520.867H528.467V504.867H544.467V520.867Z" fill="white"/>
<path d="M560.467 504.867H544.467V488.867H560.467V504.867Z" fill="white"/>
<g opacity="0.25">
<path d="M528.467 472.867H512.467V456.867H528.467V472.867Z" fill="white"/>
</g>
<g opacity="0.5">
<path d="M496.467 488.867H480.467V472.867H496.467V488.867Z" fill="white"/>
</g>
<path d="M480.467 488.867H464.467V472.867H480.467V488.867Z" fill="white"/>
<g opacity="0.25">
<path d="M528.467 504.867H512.467V488.867H528.467V504.867Z" fill="white"/>
</g>
<g opacity="0.5">
<path d="M544.467 504.867H528.467V488.867H544.467V504.867Z" fill="white"/>
</g>
<path d="M464.467 504.867H448.467V488.867H464.467V504.867Z" fill="white"/>
<path d="M448.467 488.867H432.467V472.867H448.467V488.867Z" fill="white"/>
<g opacity="0.5">
<path d="M560.467 488.867H544.467V472.867H560.467V488.867Z" fill="white"/>
</g>
<path d="M528.467 488.867H512.467V472.867H528.467V488.867Z" fill="white"/>
<g opacity="0.5">
<path d="M528.467 544.867H520.467V536.867H528.467V544.867Z" fill="white"/>
</g>
<g opacity="0.25">
<path d="M408.467 488.867H400.467V480.867H408.467V488.867Z" fill="white"/>
</g>
<g opacity="0.5">
<path d="M424.467 488.867H416.467V480.867H424.467V488.867Z" fill="white"/>
</g>
<g opacity="0.15">
<path d="M432.467 480.867H424.467V472.867H432.467V480.867Z" fill="white"/>
</g>
<g opacity="0.5">
<path d="M504.467 544.867H496.467V536.867H504.467V544.867Z" fill="white"/>
</g>
<path d="M512.467 536.867H504.467V528.867H512.467V536.867Z" fill="#FFF2E3"/>
</g>
<mask id="mask1_22414_1774" style="mask-type:luminance" maskUnits="userSpaceOnUse" x="240" y="470" width="161" height="115">
<path d="M400.467 470.867H240.467V584.867H400.467V470.867Z" fill="white"/>
</mask>
<g mask="url(#mask1_22414_1774)">
<path d="M400.467 111.867H240.467V584.867H400.467V111.867Z" fill="url(#paint1_linear_22414_1774)"/>
<path d="M400.467 536.867H384.467V520.867H400.467V536.867Z" fill="white"/>
<path d="M400.467 584.867H384.467V568.867H400.467V584.867Z" fill="white"/>
<path d="M400.467 568.867H384.467V552.867H400.467V568.867Z" fill="white"/>
<path d="M400.467 552.867H384.467V536.867H400.467V552.867Z" fill="white"/>
<g opacity="0.8">
<path d="M360.467 552.867H352.467V544.867H360.467V552.867Z" fill="white"/>
</g>
<g opacity="0.75">
<path d="M336.467 584.867H320.467V568.867H336.467V584.867Z" fill="white"/>
</g>
<g opacity="0.5">
<path d="M288.467 552.867H272.467V536.867H288.467V552.867Z" fill="white"/>
</g>
<g opacity="0.65">
<path d="M352.467 568.867H336.467V552.867H352.467V568.867Z" fill="#EDF2FF"/>
</g>
<g opacity="0.5">
<path d="M336.467 536.867H320.467V520.867H336.467V536.867Z" fill="white"/>
</g>
<g opacity="0.5">
<path d="M320.467 504.867H304.467V488.867H320.467V504.867Z" fill="white"/>
</g>
<g opacity="0.75">
<path d="M256.467 520.867H240.467V504.867H256.467V520.867Z" fill="white"/>
</g>
<g opacity="0.25">
<path d="M256.467 472.867H240.467V456.867H256.467V472.867Z" fill="white"/>
</g>
<g opacity="0.5">
<path d="M272.467 520.867H256.467V504.867H272.467V520.867Z" fill="white"/>
</g>
<g opacity="0.75">
<path d="M304.467 536.867H288.467V520.867H304.467V536.867Z" fill="white"/>
</g>
<g opacity="0.75">
<path d="M288.467 520.867H272.467V504.867H288.467V520.867Z" fill="white"/>
</g>
<g opacity="0.25">
<path d="M272.467 504.867H256.467V488.867H272.467V504.867Z" fill="white"/>
</g>
<g opacity="0.5">
<path d="M400.467 520.867H384.467V504.867H400.467V520.867Z" fill="white"/>
</g>
<path d="M400.467 504.867H384.467V488.867H400.467V504.867Z" fill="white"/>
<g opacity="0.25">
<path d="M368.467 472.867H352.467V456.867H368.467V472.867Z" fill="white"/>
</g>
<g opacity="0.5">
<path d="M336.467 488.867H320.467V472.867H336.467V488.867Z" fill="white"/>
</g>
<g opacity="0.25">
<path d="M368.467 504.867H352.467V488.867H368.467V504.867Z" fill="white"/>
</g>
<g opacity="0.5">
<path d="M384.467 504.867H368.467V488.867H384.467V504.867Z" fill="white"/>
</g>
<g opacity="0.5">
<path d="M400.467 488.867H384.467V472.867H400.467V488.867Z" fill="white"/>
</g>
<path d="M352.467 568.867H336.467V584.867H352.467H368.467H384.467V568.867H368.467V552.867H352.467V568.867Z" fill="white"/>
<path d="M256.467 488.867H240.467V504.867H256.467V488.867Z" fill="white"/>
<path d="M368.467 504.867V520.867H352.467V504.867H336.467V488.867H320.467V504.867H304.467V488.867H288.467V504.867V520.867H304.467V536.867H288.467V552.867H272.467V536.867H288.467V520.867H272.467H256.467H240.467V536.867V552.867V568.867V584.867H256.467H272.467H288.467H304.467H320.467V568.867H336.467V552.867V536.867H320.467V520.867H336.467V536.867H352.467H368.467V552.867H384.467V536.867V520.867V504.867H368.467Z" fill="white"/>
<path d="M320.467 472.867H304.467V488.867H320.467V472.867Z" fill="white"/>
<path d="M288.467 472.867H272.467V488.867H288.467V472.867Z" fill="white"/>
<path d="M368.467 472.867H352.467V488.867H368.467V472.867Z" fill="white"/>
<g opacity="0.5">
<path d="M368.467 544.867H360.467V536.867H368.467V544.867Z" fill="white"/>
</g>
<g opacity="0.25">
<path d="M248.467 488.867H240.467V480.867H248.467V488.867Z" fill="white"/>
</g>
<g opacity="0.5">
<path d="M264.467 488.867H256.467V480.867H264.467V488.867Z" fill="white"/>
</g>
<g opacity="0.15">
<path d="M272.467 480.867H264.467V472.867H272.467V480.867Z" fill="white"/>
</g>
<g opacity="0.5">
<path d="M344.467 544.867H336.467V536.867H344.467V544.867Z" fill="white"/>
</g>
<path d="M352.467 536.867H344.467V528.867H352.467V536.867Z" fill="#FFF2E3"/>
</g>
<mask id="mask2_22414_1774" style="mask-type:luminance" maskUnits="userSpaceOnUse" x="80" y="470" width="161" height="115">
<path d="M240.467 470.867H80.4667V584.867H240.467V470.867Z" fill="white"/>
</mask>
<g mask="url(#mask2_22414_1774)">
<path d="M240.467 111.867H80.4667V584.867H240.467V111.867Z" fill="url(#paint2_linear_22414_1774)"/>
<path d="M240.467 536.867H224.467V520.867H240.467V536.867Z" fill="white"/>
<path d="M240.467 584.867H224.467V568.867H240.467V584.867Z" fill="white"/>
<path d="M240.467 568.867H224.467V552.867H240.467V568.867Z" fill="white"/>
<path d="M240.467 552.867H224.467V536.867H240.467V552.867Z" fill="white"/>
<path d="M224.467 552.867H208.467V536.867H224.467V552.867Z" fill="white"/>
<g opacity="0.8">
<path d="M200.467 552.867H192.467V544.867H200.467V552.867Z" fill="white"/>
</g>
<path d="M208.467 568.867H192.467V552.867H208.467V568.867Z" fill="white"/>
<path d="M208.467 584.867H192.467V568.867H208.467V584.867Z" fill="white"/>
<path d="M192.467 584.867H176.467V568.867H192.467V584.867Z" fill="white"/>
<g opacity="0.75">
<path d="M176.467 584.867H160.467V568.867H176.467V584.867Z" fill="white"/>
</g>
<path d="M176.467 568.867H160.467V552.867H176.467V568.867Z" fill="white"/>
<path d="M160.467 584.867H144.467V568.867H160.467V584.867Z" fill="white"/>
<path d="M160.467 568.867H144.467V552.867H160.467V568.867Z" fill="white"/>
<path d="M144.467 584.867H128.467V568.867H144.467V584.867Z" fill="white"/>
<path d="M144.467 568.867H128.467V552.867H144.467V568.867Z" fill="white"/>
<path d="M128.467 584.867H112.467V568.867H128.467V584.867Z" fill="white"/>
<path d="M128.467 568.867H112.467V552.867H128.467V568.867Z" fill="white"/>
<path d="M112.467 584.867H96.4667V568.867H112.467V584.867Z" fill="white"/>
<path d="M112.467 568.867H96.4667V552.867H112.467V568.867Z" fill="white"/>
<path d="M96.4667 584.867H80.4667V568.867H96.4667V584.867Z" fill="white"/>
<path d="M96.4667 568.867H80.4667V552.867H96.4667V568.867Z" fill="white"/>
<path d="M144.467 552.867H128.467V536.867H144.467V552.867Z" fill="white"/>
<path d="M160.467 552.867H144.467V536.867H160.467V552.867Z" fill="white"/>
<g opacity="0.5">
<path d="M128.467 552.867H112.467V536.867H128.467V552.867Z" fill="white"/>
</g>
<path d="M112.467 552.867H96.4667V536.867H112.467V552.867Z" fill="white"/>
<path d="M96.4667 552.867H80.4667V536.867H96.4667V552.867Z" fill="white"/>
<path d="M176.467 552.867H160.467V536.867H176.467V552.867Z" fill="white"/>
<g opacity="0.65">
<path d="M192.467 568.867H176.467V552.867H192.467V568.867Z" fill="#EDF2FF"/>
</g>
<path d="M224.467 584.867H208.467V568.867H224.467V584.867Z" fill="white"/>
<path d="M208.467 536.867H192.467V520.867H208.467V536.867Z" fill="white"/>
<path d="M192.467 536.867H176.467V520.867H192.467V536.867Z" fill="white"/>
<g opacity="0.5">
<path d="M176.467 536.867H160.467V520.867H176.467V536.867Z" fill="white"/>
</g>
<path d="M160.467 520.867H144.467V504.867H160.467V520.867Z" fill="white"/>
<g opacity="0.5">
<path d="M160.467 504.867H144.467V488.867H160.467V504.867Z" fill="white"/>
</g>
<path d="M160.467 536.867H144.467V520.867H160.467V536.867Z" fill="white"/>
<path d="M176.467 520.867H160.467V504.867H176.467V520.867Z" fill="white"/>
<path d="M144.467 520.867H128.467V504.867H144.467V520.867Z" fill="white"/>
<path d="M128.467 536.867H112.467V520.867H128.467V536.867Z" fill="white"/>
<path d="M112.467 536.867H96.4667V520.867H112.467V536.867Z" fill="white"/>
<path d="M96.4667 536.867H80.4667V520.867H96.4667V536.867Z" fill="white"/>
<g opacity="0.75">
<path d="M96.4667 520.867H80.4667V504.867H96.4667V520.867Z" fill="white"/>
</g>
<path d="M96.4667 504.867H80.4667V488.867H96.4667V504.867Z" fill="white"/>
<g opacity="0.25">
<path d="M96.4667 472.867H80.4667V456.867H96.4667V472.867Z" fill="white"/>
</g>
<g opacity="0.5">
<path d="M112.467 520.867H96.4667V504.867H112.467V520.867Z" fill="white"/>
</g>
<g opacity="0.75">
<path d="M144.467 536.867H128.467V520.867H144.467V536.867Z" fill="white"/>
</g>
<g opacity="0.75">
<path d="M128.467 520.867H112.467V504.867H128.467V520.867Z" fill="white"/>
</g>
<g opacity="0.25">
<path d="M112.467 504.867H96.4667V488.867H112.467V504.867Z" fill="white"/>
</g>
<path d="M224.467 536.867H208.467V520.867H224.467V536.867Z" fill="white"/>
<path d="M192.467 520.867H176.467V504.867H192.467V520.867Z" fill="white"/>
<g opacity="0.5">
<path d="M240.467 520.867H224.467V504.867H240.467V520.867Z" fill="white"/>
</g>
<path d="M176.467 504.867H160.467V488.867H176.467V504.867Z" fill="white"/>
<path d="M224.467 520.867H208.467V504.867H224.467V520.867Z" fill="white"/>
<path d="M240.467 504.867H224.467V488.867H240.467V504.867Z" fill="white"/>
<g opacity="0.25">
<path d="M208.467 472.867H192.467V456.867H208.467V472.867Z" fill="white"/>
</g>
<g opacity="0.5">
<path d="M176.467 488.867H160.467V472.867H176.467V488.867Z" fill="white"/>
</g>
<path d="M160.467 488.867H144.467V472.867H160.467V488.867Z" fill="white"/>
<g opacity="0.25">
<path d="M208.467 504.867H192.467V488.867H208.467V504.867Z" fill="white"/>
</g>
<g opacity="0.5">
<path d="M224.467 504.867H208.467V488.867H224.467V504.867Z" fill="white"/>
</g>
<path d="M144.467 504.867H128.467V488.867H144.467V504.867Z" fill="white"/>
<path d="M128.467 488.867H112.467V472.867H128.467V488.867Z" fill="white"/>
<g opacity="0.5">
<path d="M240.467 488.867H224.467V472.867H240.467V488.867Z" fill="white"/>
</g>
<path d="M208.467 488.867H192.467V472.867H208.467V488.867Z" fill="white"/>
<g opacity="0.5">
<path d="M208.467 544.867H200.467V536.867H208.467V544.867Z" fill="white"/>
</g>
<g opacity="0.25">
<path d="M88.4667 488.867H80.4667V480.867H88.4667V488.867Z" fill="white"/>
</g>
<g opacity="0.5">
<path d="M104.467 488.867H96.4667V480.867H104.467V488.867Z" fill="white"/>
</g>
<g opacity="0.15">
<path d="M112.467 480.867H104.467V472.867H112.467V480.867Z" fill="white"/>
</g>
<g opacity="0.5">
<path d="M184.467 544.867H176.467V536.867H184.467V544.867Z" fill="white"/>
</g>
<path d="M192.467 536.867H184.467V528.867H192.467V536.867Z" fill="#FFF2E3"/>
</g>
<path opacity="0.4" d="M576.467 472.867H608.467V504.867H576.467V472.867Z" fill="#A7C0FF"/>
<path opacity="0.2" d="M576.467 504.867H608.467V536.867H576.467V504.867Z" fill="#3AF6C8"/>
<path opacity="0.2" d="M608.467 472.867H640.467V504.867H608.467V472.867Z" fill="#A7C0FF"/>
<path opacity="0.4" d="M512.467 536.867H544.467V568.867H512.467V536.867Z" fill="#A7C0FF"/>
<path opacity="0.2" d="M512.467 568.867H544.467V600.867H512.467V568.867Z" fill="#A7C0FF"/>
<path opacity="0.2" d="M544.467 536.867H576.467V568.867H544.467V536.867Z" fill="#A7C0FF"/>
<path opacity="0.4" d="M32.4667 472.867H64.4667V504.867H32.4667V472.867Z" fill="#A7C0FF"/>
<path opacity="0.2" d="M0.466675 472.867H32.4667V504.867H0.466675V472.867Z" fill="#A7C0FF"/>
<path opacity="0.2" d="M32.4667 504.867H64.4667V536.867H32.4667V504.867Z" fill="#3AF5CA"/>
<path opacity="0.4" d="M96.4667 536.867H128.467V568.867H96.4667V536.867Z" fill="#A7C0FF"/>
<path opacity="0.2" d="M64.4667 536.867H96.4667V568.867H64.4667V536.867Z" fill="#A7C0FF"/>
<path opacity="0.2" d="M96.4667 568.867H128.467V600.867H96.4667V568.867Z" fill="#A7C0FF"/>
<mask id="mask3_22414_1774" style="mask-type:luminance" maskUnits="userSpaceOnUse" x="312" y="312" width="313" height="161">
<path d="M624.467 312.867H312.467V472.867H624.467V312.867Z" fill="white"/>
</mask>
<g mask="url(#mask3_22414_1774)">
<path d="M592.467 344.867V360.867H576.467V344.867H592.467Z" fill="#F6B5C5"/>
<g opacity="0.75">
<path d="M624.467 376.867V392.867H608.467V376.867H624.467Z" fill="#F9F9F9"/>
</g>
<g opacity="0.5">
<path d="M592.467 424.867V440.867H576.467V424.867H592.467Z" fill="#F9F9F9"/>
</g>
<g opacity="0.65">
<path d="M608.467 360.867V376.867H592.467V360.867H608.467Z" fill="#EDF2FF"/>
</g>
<g opacity="0.5">
<path d="M576.467 376.867V392.867H560.467V376.867H576.467Z" fill="#F9F9F9"/>
</g>
<g opacity="0.5">
<path d="M544.467 392.867V408.867H528.467V392.867H544.467Z" fill="#F9F9F9"/>
</g>
<g opacity="0.75">
<path d="M560.467 456.867V472.867H544.467V456.867H560.467Z" fill="#F9F9F9"/>
</g>
<g opacity="0.25">
<path d="M512.467 456.867V472.867H496.467V456.867H512.467Z" fill="#F9F9F9"/>
</g>
<g opacity="0.5">
<path d="M560.467 440.867V456.867H544.467V440.867H560.467Z" fill="#F9F9F9"/>
</g>
<g opacity="0.75">
<path d="M576.467 408.867V424.867H560.467V408.867H576.467Z" fill="#F9F9F9"/>
</g>
<g opacity="0.75">
<path d="M560.467 424.867V440.867H544.467V424.867H560.467Z" fill="#F9F9F9"/>
</g>
<g opacity="0.25">
<path d="M544.467 440.867V456.867H528.467V440.867H544.467Z" fill="#F9F9F9"/>
</g>
<g opacity="0.5">
<path d="M560.467 312.867V328.867H544.467V312.867H560.467Z" fill="#F9F9F9"/>
</g>
<g opacity="0.5">
<path d="M464.467 328.867V344.867H448.467V328.867H464.467Z" fill="#F9F9F9"/>
</g>
<g opacity="0.5">
<path d="M496.467 328.867V344.867H480.467V328.867H496.467Z" fill="#F9F9F9"/>
</g>
<g opacity="0.5">
<path d="M480.467 312.867V328.867H464.467V312.867H480.467Z" fill="#F9F9F9"/>
</g>
<g opacity="0.25">
<path d="M512.467 344.867V360.867H496.467V344.867H512.467Z" fill="#F9F9F9"/>
</g>
<g opacity="0.5">
<path d="M528.467 376.867V392.867H512.467V376.867H528.467Z" fill="#F9F9F9"/>
</g>
<g opacity="0.25">
<path d="M544.467 344.867V360.867H528.467V344.867H544.467Z" fill="#F9F9F9"/>
</g>
<g opacity="0.5">
<path d="M544.467 328.867V344.867H528.467V328.867H544.467Z" fill="#F9F9F9"/>
</g>
<g opacity="0.5">
<path d="M528.467 312.867V328.867H512.467V312.867H528.467Z" fill="#F9F9F9"/>
</g>
<path d="M544.467 392.867H528.467V408.867H544.467V392.867Z" fill="url(#paint3_linear_22414_1774)"/>
<path d="M560.467 312.867H544.467V328.867H560.467V312.867Z" fill="url(#paint4_linear_22414_1774)"/>
<path d="M576.467 408.867H560.467V424.867H576.467V408.867Z" fill="url(#paint5_linear_22414_1774)"/>
<path d="M592.467 424.867H576.467V440.867H592.467V424.867Z" fill="url(#paint6_linear_22414_1774)"/>
<path d="M624.467 376.867H608.467V392.867H624.467V376.867Z" fill="url(#paint7_linear_22414_1774)"/>
<path d="M560.467 440.867V424.867H528.467V440.867H512.467V424.867H528.467V408.867H512.467V392.867H528.467V376.867H544.467V360.867H560.467V344.867H544.467V328.867H528.467V312.867H151.467V472.867H528.467V456.867H544.467V472.867H560.467V440.867ZM512.467 344.867H528.467V360.867H512.467V344.867Z" fill="url(#paint8_linear_22414_1774)"/>
<path d="M608.467 328.867H592.467V344.867H608.467V328.867Z" fill="url(#paint9_linear_22414_1774)"/>
<path d="M592.467 360.867V344.867H576.467V360.867V376.867H592.467H608.467V360.867H592.467Z" fill="url(#paint10_linear_22414_1774)"/>
<path d="M576.467 376.867H560.467V392.867H576.467V376.867Z" fill="url(#paint11_linear_22414_1774)"/>
<g opacity="0.25">
<path d="M528.467 464.867V472.867H520.467V464.867H528.467Z" fill="#F9F9F9"/>
</g>
<g opacity="0.5">
<path d="M528.467 448.867V456.867H520.467V448.867H528.467Z" fill="#F9F9F9"/>
</g>
<g opacity="0.15">
<path d="M520.467 440.867V448.867H512.467V440.867H520.467Z" fill="#F9F9F9"/>
</g>
</g>
<mask id="mask4_22414_1774" style="mask-type:luminance" maskUnits="userSpaceOnUse" x="16" y="312" width="313" height="161">
<path d="M328.467 312.867H16.4667V472.867H328.467V312.867Z" fill="white"/>
</mask>
<g mask="url(#mask4_22414_1774)">
<path d="M48.4667 344.867V360.867H64.4667V344.867H48.4667Z" fill="#F6B5C5"/>
<g opacity="0.75">
<path d="M16.4667 376.867V392.867H32.4667V376.867H16.4667Z" fill="#F9F9F9"/>
</g>
<g opacity="0.5">
<path d="M48.4667 424.867V440.867H64.4667V424.867H48.4667Z" fill="#F9F9F9"/>
</g>
<g opacity="0.5">
<path d="M64.4667 376.867V392.867H80.4667V376.867H64.4667Z" fill="#F9F9F9"/>
</g>
<g opacity="0.5">
<path d="M96.4667 392.867V408.867H112.467V392.867H96.4667Z" fill="#F9F9F9"/>
</g>
<path d="M80.4667 408.867V424.867H96.4667V408.867H80.4667Z" fill="#F9F9F9"/>
<path d="M64.4667 424.867V440.867H80.4667V424.867H64.4667Z" fill="#F9F9F9"/>
<path d="M64.4667 440.867V456.867H80.4667V440.867H64.4667Z" fill="#F9F9F9"/>
<path d="M64.4667 456.867V472.867H80.4667V456.867H64.4667Z" fill="#F9F9F9"/>
<g opacity="0.75">
<path d="M80.4667 456.867V472.867H96.4667V456.867H80.4667Z" fill="#F9F9F9"/>
</g>
<g opacity="0.25">
<path d="M128.467 456.867V472.867H144.467V456.867H128.467Z" fill="#F9F9F9"/>
</g>
<g opacity="0.5">
<path d="M80.4667 440.867V456.867H96.4667V440.867H80.4667Z" fill="#F9F9F9"/>
</g>
<g opacity="0.75">
<path d="M64.4667 408.867V424.867H80.4667V408.867H64.4667Z" fill="#F9F9F9"/>
</g>
<g opacity="0.75">
<path d="M80.4667 424.867V440.867H96.4667V424.867H80.4667Z" fill="#F9F9F9"/>
</g>
<g opacity="0.25">
<path d="M96.4667 440.867V456.867H112.467V440.867H96.4667Z" fill="#F9F9F9"/>
</g>
<g opacity="0.5">
<path d="M176.467 328.867V344.867H192.467V328.867H176.467Z" fill="#F9F9F9"/>
</g>
<g opacity="0.5">
<path d="M144.467 328.867V344.867H160.467V328.867H144.467Z" fill="#F9F9F9"/>
</g>
<g opacity="0.5">
<path d="M160.467 312.867V328.867H176.467V312.867H160.467Z" fill="#F9F9F9"/>
</g>
<g opacity="0.25">
<path d="M128.467 344.867V360.867H144.467V344.867H128.467Z" fill="#F9F9F9"/>
</g>
<g opacity="0.5">
<path d="M112.467 376.867V392.867H128.467V376.867H112.467Z" fill="#F9F9F9"/>
</g>
<g opacity="0.5">
<path d="M112.467 312.867V328.867H128.467V312.867H112.467Z" fill="#F9F9F9"/>
</g>
<path d="M112.467 312.867V328.867V344.867H128.467V360.867H112.467V376.867V392.867H128.467V408.867H112.467V424.867H128.467V440.867H112.467V424.867H96.4667V408.867H80.4667H64.4667V424.867H48.4667V440.867H64.4667V456.867V472.867H96.4667V456.867H112.467V472.867H489.467V312.867H112.467Z" fill="url(#paint12_linear_22414_1774)"/>
<path d="M112.467 392.867H96.4667V408.867H112.467V392.867Z" fill="url(#paint13_linear_22414_1774)"/>
<path d="M48.4667 328.867H32.4667V344.867H48.4667V328.867Z" fill="url(#paint14_linear_22414_1774)"/>
<path d="M80.4667 376.867H64.4667V392.867H80.4667V376.867Z" fill="url(#paint15_linear_22414_1774)"/>
<path d="M48.4667 376.867H64.4667V360.867V344.867H48.4667V360.867V376.867Z" fill="url(#paint16_linear_22414_1774)"/>
<path d="M32.4667 376.867H16.4667V392.867H32.4667V376.867Z" fill="url(#paint17_linear_22414_1774)"/>
<g opacity="0.25">
<path d="M112.467 464.867V472.867H120.467V464.867H112.467Z" fill="#F9F9F9"/>
</g>
<g opacity="0.5">
<path d="M112.467 448.867V456.867H120.467V448.867H112.467Z" fill="#F9F9F9"/>
</g>
<g opacity="0.15">
<path d="M120.467 440.867V448.867H128.467V440.867H120.467Z" fill="#F9F9F9"/>
</g>
</g>
<mask id="mask5_22414_1774" style="mask-type:luminance" maskUnits="userSpaceOnUse" x="240" y="0" width="161" height="305">
<path d="M400.467 0.866699H240.467V304.867H400.467V0.866699Z" fill="white"/>
</mask>
<g mask="url(#mask5_22414_1774)">
<g opacity="0.8">
<path d="M280.467 32.8667H288.467V40.8667H280.467V32.8667Z" fill="#F9F9F9"/>
</g>
<g opacity="0.75">
<path d="M304.467 0.866699H320.467V16.8667H304.467V0.866699Z" fill="#F9F9F9"/>
</g>
<g opacity="0.5">
<path d="M352.467 32.8667H368.467V48.8667H352.467V32.8667Z" fill="#F9F9F9"/>
</g>
<g opacity="0.65">
<path d="M288.467 16.8667H304.467V32.8667H288.467V16.8667Z" fill="#EDF2FF"/>
</g>
<path d="M288.467 48.8667H304.467V64.8667H288.467V48.8667Z" fill="#F9F9F9"/>
<g opacity="0.5">
<path d="M304.467 48.8667H320.467V64.8667H304.467V48.8667Z" fill="#F9F9F9"/>
</g>
<g opacity="0.5">
<path d="M320.467 80.8667H336.467V96.8667H320.467V80.8667Z" fill="#F9F9F9"/>
</g>
<g opacity="0.75">
<path d="M384.467 64.8667H400.467V80.8667H384.467V64.8667Z" fill="#F9F9F9"/>
</g>
<path d="M384.467 80.8667H400.467V96.8667H384.467V80.8667Z" fill="#F9F9F9"/>
<g opacity="0.25">
<path d="M384.467 112.867H400.467V128.867H384.467V112.867Z" fill="#F9F9F9"/>
</g>
<g opacity="0.5">
<path d="M368.467 64.8667H384.467V80.8667H368.467V64.8667Z" fill="#F9F9F9"/>
</g>
<g opacity="0.75">
<path d="M336.467 48.8667H352.467V64.8667H336.467V48.8667Z" fill="#F9F9F9"/>
</g>
<g opacity="0.75">
<path d="M352.467 64.8667H368.467V80.8667H352.467V64.8667Z" fill="#F9F9F9"/>
</g>
<g opacity="0.25">
<path d="M368.467 80.8667H384.467V96.8667H368.467V80.8667Z" fill="#F9F9F9"/>
</g>
<g opacity="0.5">
<path d="M240.467 64.8667H256.467V80.8667H240.467V64.8667Z" fill="#F9F9F9"/>
</g>
<path d="M304.467 80.8667H320.467V96.8667H304.467V80.8667Z" fill="#F9F9F9"/>
<g opacity="0.5">
<path d="M256.467 160.867H272.467V176.867H256.467V160.867Z" fill="#F9F9F9"/>
</g>
<g opacity="0.5">
<path d="M256.467 128.867H272.467V144.867H256.467V128.867Z" fill="#F9F9F9"/>
</g>
<g opacity="0.5">
<path d="M240.467 144.867H256.467V160.867H240.467V144.867Z" fill="#F9F9F9"/>
</g>
<g opacity="0.25">
<path d="M272.467 112.867H288.467V128.867H272.467V112.867Z" fill="#F9F9F9"/>
</g>
<g opacity="0.5">
<path d="M304.467 96.8667H320.467V112.867H304.467V96.8667Z" fill="#F9F9F9"/>
</g>
<g opacity="0.25">
<path d="M272.467 80.8667H288.467V96.8667H272.467V80.8667Z" fill="#F9F9F9"/>
</g>
<g opacity="0.5">
<path d="M256.467 80.8667H272.467V96.8667H256.467V80.8667Z" fill="#F9F9F9"/>
</g>
<path d="M336.467 80.8667H352.467V96.8667H336.467V80.8667Z" fill="#F9F9F9"/>
<g opacity="0.5">
<path d="M240.467 96.8667H256.467V112.867H240.467V96.8667Z" fill="#F9F9F9"/>
</g>
<path d="M352.467 48.8667H336.467V64.8667H352.467V48.8667Z" fill="url(#paint18_linear_22414_1774)"/>
<path d="M320.467 0.866699H304.467V16.8667H320.467V0.866699Z" fill="url(#paint19_linear_22414_1774)"/>
<path d="M272.467 16.8667H256.467V32.8667H272.467V16.8667Z" fill="url(#paint20_linear_22414_1774)"/>
<path d="M320.467 64.8667V48.8667H304.467V32.8667V16.8667H288.467V32.8667H272.467V48.8667H288.467V64.8667H304.467H320.467Z" fill="url(#paint21_linear_22414_1774)"/>
<path d="M368.467 32.8667H352.467V48.8667H368.467V32.8667Z" fill="url(#paint22_linear_22414_1774)"/>
<path d="M384.467 64.8667H352.467V80.8667H288.467V64.8667H272.467V80.8667H256.467V96.8667H240.467V473.867H400.467V64.8667H384.467ZM288.467 112.867H272.467V96.8667H288.467V112.867ZM368.467 112.867H352.467V96.8667H368.467V112.867Z" fill="url(#paint23_linear_22414_1774)"/>
<path d="M256.467 64.8667H240.467V80.8667H256.467V64.8667Z" fill="url(#paint24_linear_22414_1774)"/>
<path d="M256.467 80.8667H240.467V96.8667H256.467V80.8667Z" fill="#F9F9F9"/>
<g opacity="0.5">
<path d="M272.467 40.8667H280.467V48.8667H272.467V40.8667Z" fill="#F9F9F9"/>
</g>
<g opacity="0.25">
<path d="M392.467 96.8667H400.467V104.867H392.467V96.8667Z" fill="#F9F9F9"/>
</g>
<g opacity="0.5">
<path d="M376.467 96.8667H384.467V104.867H376.467V96.8667Z" fill="#F9F9F9"/>
</g>
<g opacity="0.15">
<path d="M368.467 104.867H376.467V112.867H368.467V104.867Z" fill="#F9F9F9"/>
</g>
<g opacity="0.5">
<path d="M296.467 40.8667H304.467V48.8667H296.467V40.8667Z" fill="#F9F9F9"/>
</g>
<path d="M288.467 48.8667H296.467V56.8667H288.467V48.8667Z" fill="#FFF2E3"/>
</g>
<g opacity="0.25">
<path d="M288.467 96.8667H304.467V112.867H288.467V96.8667Z" fill="white"/>
</g>
<path fill-rule="evenodd" clip-rule="evenodd" d="M368.467 232.867V176.867H373.467V168.867H371.107V164.867H373.467V160.867H371.107V155.437H270.447V160.867H268.467V164.867H270.447V168.867H268.467V176.867H272.467V232.867H264.467V245.867H377.467V232.867H368.467ZM352.467 164.867H356.197V168.867H352.467V164.867ZM323.267 164.867H326.997V168.867H323.267V164.867ZM313.317 164.867H317.047V168.867H313.317V164.867ZM279.767 168.867H276.037V164.867H279.767V168.867ZM288.467 232.867H280.467V176.867H288.467V232.867ZM289.087 168.867H285.357V164.867H289.087V168.867ZM294.677 164.867H298.407V168.867H294.677V164.867ZM304.467 232.867H296.467V176.867H304.467V232.867ZM307.727 168.867H303.997V164.867H307.727V168.867ZM328.467 232.867H312.467V176.867H328.467V232.867ZM332.587 164.867H337.557V168.867H332.587V164.867ZM344.467 232.867H336.467V176.867H344.467V232.867ZM346.877 168.867H343.147V164.867H346.877V168.867ZM360.467 232.867H352.467V176.867H360.467V232.867ZM365.517 168.867H361.787V164.867H365.517V168.867Z" fill="#264A92"/>
<path fill-rule="evenodd" clip-rule="evenodd" d="M316.517 110.257C297.707 112.067 282.977 127.817 282.767 147.057H293.527C294.307 134.747 300.237 123.287 309.937 115.527L316.527 110.257H316.517Z" fill="#264A92"/>
<path fill-rule="evenodd" clip-rule="evenodd" d="M319.897 112.507C313.997 123.107 310.697 134.947 310.257 147.047H330.037C329.577 134.877 326.097 123.007 319.897 112.507Z" fill="#264A92"/>
<path fill-rule="evenodd" clip-rule="evenodd" d="M319.847 107.597C319.947 107.597 320.057 107.597 320.157 107.597C342.037 107.597 359.807 125.227 360.037 147.057H368.807C364.887 128.357 350.457 113.517 331.967 109.017V88.3368H333.827V86.4768H333.187C332.817 81.4968 329.587 77.3068 325.127 75.5568V73.4268H323.267V70.9368H321.407V47.9468H318.917V70.9368H317.057V73.4268H315.197V75.8168C311.057 77.6968 308.097 81.7168 307.737 86.4668H306.497V88.3268H308.357V109.007C289.877 113.507 275.447 128.347 271.517 147.047H280.287C280.507 125.317 298.107 107.757 319.847 107.597ZM325.127 88.3368V107.847C324.307 107.767 323.477 107.697 322.637 107.657V88.3268H325.127V88.3368ZM317.667 88.3368V107.667C316.837 107.707 316.007 107.767 315.177 107.857V88.3468H317.667V88.3368Z" fill="#264A92"/>
<path fill-rule="evenodd" clip-rule="evenodd" d="M316.627 113.357L311.487 117.467C302.377 124.747 296.797 135.507 296.017 147.057H307.777C308.187 135.307 311.217 123.797 316.627 113.357Z" fill="#264A92"/>
<path fill-rule="evenodd" clip-rule="evenodd" d="M369.347 150.157H270.967C270.807 151.287 270.667 152.427 270.587 153.577H369.727C369.637 152.427 369.507 151.287 369.347 150.157Z" fill="#264A92"/>
<path fill-rule="evenodd" clip-rule="evenodd" d="M344.297 147.057C343.507 135.537 337.867 124.837 328.697 117.677L323.287 113.447C328.927 123.777 332.097 135.287 332.527 147.057H344.287H344.297Z" fill="#264A92"/>
<path fill-rule="evenodd" clip-rule="evenodd" d="M357.547 147.057C357.327 127.617 342.277 111.737 323.177 110.207L330.227 115.717C339.997 123.357 345.987 134.777 346.777 147.057H357.537H357.547Z" fill="#264A92"/>
<path d="M320.157 27.8667L320.587 33.5567C320.987 38.8367 325.187 43.0367 330.467 43.4367L336.157 43.8667L330.467 44.2967C325.187 44.6967 320.987 48.8967 320.587 54.1767L320.157 59.8667L319.727 54.1767C319.327 48.8967 315.127 44.6967 309.847 44.2967L304.157 43.8667L309.847 43.4367C315.127 43.0367 319.327 38.8367 319.727 33.5567L320.157 27.8667Z" fill="#264A92"/>
<g opacity="0.1">
<path d="M272.467 64.8667H288.467V80.8667H272.467V64.8667Z" fill="white"/>
</g>
<mask id="mask6_22414_1774" style="mask-type:luminance" maskUnits="userSpaceOnUse" x="376" y="152" width="25" height="14">
<path d="M400.467 152.867H376.467V165.867H400.467V152.867Z" fill="white"/>
</mask>
<g mask="url(#mask6_22414_1774)">
<g opacity="0.34">
<path d="M336.867 169.227C339.817 169.867 342.937 169.517 345.697 168.177C351.067 165.577 357.377 165.577 362.737 168.177C366.477 169.987 370.877 169.987 374.607 168.177C377.287 166.877 380.207 166.227 383.127 166.227V171.827C381.097 171.827 379.057 172.277 377.197 173.187C371.837 175.787 365.517 175.787 360.157 173.187C356.417 171.377 352.027 171.377 348.287 173.187C344.717 174.917 340.727 175.487 336.877 174.917V169.227H336.867Z" fill="#FFE5CB"/>
<path d="M429.397 169.227C426.447 169.867 423.327 169.517 420.567 168.177C415.207 165.577 408.887 165.587 403.527 168.177C399.787 169.987 395.397 169.987 391.657 168.177C388.977 166.877 386.057 166.227 383.137 166.227V171.827C385.167 171.827 387.207 172.277 389.067 173.177C394.437 175.777 400.747 175.767 406.107 173.177C409.847 171.367 414.237 171.367 417.977 173.177C421.547 174.907 425.537 175.487 429.387 174.907V169.217L429.397 169.227Z" fill="#FFE5CB"/>
<path d="M401.067 169.227C398.117 169.867 394.997 169.517 392.237 168.177C386.877 165.577 380.557 165.587 375.197 168.177C371.457 169.987 367.067 169.987 363.327 168.177C360.647 166.877 357.727 166.227 354.807 166.227V171.827C356.837 171.827 358.877 172.277 360.737 173.187C366.097 175.787 372.417 175.777 377.777 173.187C381.517 171.377 385.917 171.377 389.647 173.187C393.217 174.917 397.207 175.487 401.057 174.917V169.227H401.067Z" fill="#FFE5CB"/>
</g>
</g>
<path d="M274.467 281.867H367.467L320.967 258.867L274.467 281.867Z" fill="#264A92"/>
<path d="M384.467 278.137V272.867H374.107L360.327 265.867H384.467V250.867H330.807L320.967 245.867L311.127 250.867H256.467V265.867H281.607L267.827 272.867H256.467V278.637L243.357 285.297L245.167 292.867H396.757L398.567 285.297L384.457 278.127L384.467 278.137ZM261.877 284.867L320.967 254.837L380.057 284.867H261.867H261.877Z" fill="#264A92"/>
<path d="M248.467 238.867H246.467V237.867H248.257C247.217 232.467 243.457 228.037 238.467 226.027V219.867C238.067 217.697 236.517 215.927 234.477 215.217V212.867H233.477V202.367L234.477 200.867L232.477 197.867L230.477 200.867L231.477 202.367V212.867H230.477V215.217C228.427 215.927 226.867 217.687 226.467 219.867V226.047C221.497 228.057 217.757 232.477 216.717 237.867H218.467V238.867H216.467V240.867H248.467V238.867ZM235.467 220.867V225.147C234.817 225.027 234.147 224.947 233.467 224.907V220.867H235.467ZM229.467 220.867H231.467V224.917C230.787 224.957 230.117 225.037 229.467 225.157V220.867Z" fill="#264A92"/>
<path d="M248.467 243.867V241.867H216.467V243.867H215.467V245.867H216.467V292.867H248.467V245.867H249.467V243.867H248.467ZM238.087 273.917H226.837V255.857C226.837 252.747 229.357 250.237 232.457 250.237C235.557 250.237 238.077 252.757 238.077 255.857V273.917H238.087Z" fill="#264A92"/>
<path d="M424.467 243.867V241.867H392.467V243.867H391.467V245.867H392.467V292.867H424.467V245.867H425.467V243.867H424.467ZM414.087 273.917H402.837V255.857C402.837 252.747 405.357 250.237 408.457 250.237C411.557 250.237 414.077 252.757 414.077 255.857V273.917H414.087Z" fill="#264A92"/>
<path d="M424.467 238.867H422.467V237.867H424.257C423.217 232.467 419.457 228.037 414.467 226.027V219.867C414.067 217.697 412.517 215.927 410.477 215.217V212.867H409.477V202.367L410.477 200.867L408.477 197.867L406.477 200.867L407.477 202.367V212.867H406.477V215.207C404.427 215.917 402.867 217.687 402.467 219.867V226.047C397.497 228.057 393.757 232.477 392.717 237.867H394.467V238.867H392.467V240.867H424.467V238.867ZM407.467 224.917C406.787 224.957 406.117 225.037 405.467 225.157V220.867H407.467V224.917ZM411.467 225.147C410.817 225.027 410.147 224.947 409.467 224.907V220.867H411.467V225.147Z" fill="#264A92"/>
<path d="M267.467 288.867H259.467H251.467H243.467H235.467H224.717H223.467H216.717V312.867H224.717V292.867H235.467V312.867H243.467V292.867H251.467V312.867H259.467V292.867H267.467V312.867H275.467V292.867H287.467V288.867H275.467H267.467Z" fill="#264A92"/>
<path d="M325.467 288.867H317.467V312.867H325.467V288.867Z" fill="#264A92"/>
<path d="M309.467 288.867H301.467V312.867H309.467V288.867Z" fill="#264A92"/>
<path d="M341.467 288.867H333.467V312.867H341.467V288.867Z" fill="#264A92"/>
<path d="M391.467 288.867H383.467V312.867H391.467V288.867Z" fill="#264A92"/>
<path d="M375.467 288.867H367.467V312.867H375.467V288.867Z" fill="#264A92"/>
<path d="M407.467 288.867H399.467V312.867H407.467V288.867Z" fill="#264A92"/>
<path d="M424.467 288.867H416.467V312.867H424.467V288.867Z" fill="#264A92"/>
<path d="M524.467 304.867H112.467V312.867H524.467V304.867Z" fill="#264A92"/>
<path fill-rule="evenodd" clip-rule="evenodd" d="M432.467 292.867H176.467V288.867H432.467V292.867Z" fill="#264A92"/>
<path d="M528.467 466.867H112.467V472.867H528.467V466.867Z" fill="#264A92"/>
<path d="M32.4667 440.867H48.4667V424.867H32.4667V440.867Z" fill="#B77DFE"/>
<path d="M48.4667 440.867H64.4667V424.867H48.4667V440.867Z" fill="#774AFA"/>
<path d="M48.4667 424.867H64.4667V408.867H48.4667V424.867Z" fill="#F6B5C5"/>
<path d="M608.467 440.867H592.467V424.867H608.467V440.867Z" fill="#774AFA"/>
<path d="M592.467 440.867H576.467V424.867H592.467V440.867Z" fill="#B77DFE"/>
<path d="M592.467 424.867H576.467V408.867H592.467V424.867Z" fill="#F6B5C5"/>
<path d="M485.247 246.867C482.637 246.867 480.517 244.747 480.517 242.127C480.517 235.327 475.017 229.817 468.237 229.817H468.487V211.677H468.227C467.127 211.677 466.227 210.777 466.227 209.677V203.177C466.227 200.167 464.667 197.357 462.117 195.767V189.857C462.117 189.307 462.567 188.857 463.117 188.857H463.267V186.937H463.107C462.557 186.937 462.107 186.487 462.107 185.937V183.817C462.107 182.717 461.207 181.817 460.107 181.817H458.697V159.577H457.447V104.877H455.497V159.577H454.247V181.817H452.837C451.737 181.817 450.837 182.717 450.837 183.817V185.937C450.837 186.487 450.387 186.937 449.837 186.937H449.677V188.857H449.827C450.377 188.857 450.827 189.307 450.827 189.857V195.767C448.267 197.357 446.717 200.157 446.717 203.177V209.677C446.717 210.777 445.817 211.677 444.717 211.677H444.457V229.817H444.707C437.927 229.817 432.427 235.327 432.427 242.127C432.427 244.747 430.307 246.867 427.697 246.867V251.877H432.427V304.867H440.427V251.877H454.587V269.367H458.307V257.827H460.267V251.877H474.777V261.467H480.797V251.877H485.207V246.867H485.247ZM450.497 245.877H437.797C438.237 244.707 438.467 243.447 438.467 242.127C438.467 238.647 441.287 235.817 444.747 235.817H450.497V245.877ZM448.217 229.807V213.877H454.627V229.807H448.217ZM458.357 229.807V213.877H464.767V229.807H458.357Z" fill="#264A92"/>
<path d="M209.727 270.297C208.157 270.297 206.877 269.017 206.877 267.447C206.877 263.357 203.567 260.037 199.487 260.037H199.637V249.127H199.487C198.827 249.127 198.287 248.587 198.287 247.927V244.017C198.287 242.207 197.347 240.517 195.807 239.557V236.007C195.807 235.677 196.077 235.407 196.407 235.407H196.497V234.257H196.407C196.077 234.257 195.807 233.987 195.807 233.657V232.387C195.807 231.727 195.267 231.187 194.607 231.187H193.757V217.807H193.007V184.897H191.837V217.807H191.087V231.187H190.237C189.577 231.187 189.037 231.727 189.037 232.387V233.657C189.037 233.987 188.767 234.257 188.437 234.257H188.347V235.407H188.437C188.767 235.407 189.037 235.677 189.037 236.007V239.557C187.497 240.517 186.557 242.197 186.557 244.017V247.927C186.557 248.587 186.017 249.127 185.357 249.127H185.207V260.037H185.357C181.277 260.037 177.967 263.357 177.967 267.447C177.967 269.027 176.697 270.297 175.117 270.297V273.307H176.467V304.867H180.467V273.307H184.447V305.047H188.447V273.307H196.477V305.047H200.477V273.307H204.487V304.867H208.487V273.307H209.727V270.297ZM189.197 260.037V250.447H191.417V260.037H189.197ZM193.417 260.037V250.447H195.637V260.037H193.417ZM196.417 269.307V264.037H199.487C201.357 264.037 202.877 265.567 202.877 267.447C202.877 268.097 202.967 268.717 203.137 269.317H196.427L196.417 269.307Z" fill="#264A92"/>
<path d="M456.467 84.8667L456.897 90.5567C457.297 95.8367 461.497 100.037 466.777 100.437L472.467 100.867L466.777 101.297C461.497 101.697 457.297 105.897 456.897 111.177L456.467 116.867L456.037 111.177C455.637 105.897 451.437 101.697 446.157 101.297L440.467 100.867L446.157 100.437C451.437 100.037 455.637 95.8367 456.037 90.5567L456.467 84.8667Z" fill="#264A92"/>
<path d="M192.467 176.867L192.687 179.717C192.887 182.357 194.987 184.457 197.627 184.657L200.477 184.877L197.627 185.097C194.987 185.297 192.887 187.397 192.687 190.037L192.467 192.887L192.247 190.037C192.047 187.397 189.947 185.297 187.307 185.097L184.457 184.877L187.307 184.657C189.947 184.457 192.047 182.357 192.247 179.717L192.467 176.867Z" fill="#264A92"/>
<path fill-rule="evenodd" clip-rule="evenodd" d="M208.467 100.867C212.107 100.867 215.597 102.127 218.167 104.377C220.737 106.627 222.187 109.677 222.187 112.867H226.757C226.757 109.687 228.197 106.627 230.777 104.377C233.347 102.127 236.837 100.867 240.477 100.867V96.8667C235.627 96.8667 230.977 98.5567 227.547 101.557C226.327 102.627 225.297 103.827 224.477 105.127C223.657 103.827 222.627 102.627 221.407 101.557C217.977 98.5567 213.327 96.8667 208.477 96.8667V100.867H208.467Z" fill="#264A92"/>
<path fill-rule="evenodd" clip-rule="evenodd" d="M176.467 130.867C180.107 130.867 183.597 132.127 186.167 134.377C188.737 136.627 190.187 139.677 190.187 142.867H194.757C194.757 139.687 196.207 136.627 198.777 134.377C201.347 132.127 204.837 130.867 208.477 130.867V126.867C203.627 126.867 198.977 128.557 195.547 131.557C194.327 132.627 193.297 133.827 192.477 135.127C191.657 133.827 190.627 132.627 189.407 131.557C185.977 128.557 181.327 126.867 176.477 126.867V130.867H176.467Z" fill="#264A92"/>
<path fill-rule="evenodd" clip-rule="evenodd" d="M400.467 118.867C404.107 118.867 407.597 120.127 410.167 122.377C412.737 124.627 414.187 127.677 414.187 130.867H418.757C418.757 127.687 420.197 124.627 422.777 122.377C425.347 120.127 428.837 118.867 432.477 118.867V114.867C427.627 114.867 422.977 116.557 419.547 119.557C418.327 120.627 417.297 121.827 416.477 123.127C415.657 121.827 414.627 120.627 413.407 119.557C409.977 116.557 405.327 114.867 400.477 114.867V118.867H400.467Z" fill="#264A92"/>
<path fill-rule="evenodd" clip-rule="evenodd" d="M132.467 243.867V242.867H134.967L137.467 245.367L130.467 252.367V256.867H126.967L125.967 257.867L123.967 257.367L118.967 262.367L118.467 266.367L120.467 268.867L121.467 265.867L120.467 264.867L124.967 260.367L123.467 266.867L127.467 270.867V266.867H125.467L126.467 265.867V261.367L127.467 260.367L131.967 264.867H134.967L131.967 267.867H129.467V269.867H133.967V267.867L136.467 265.367L141.967 270.867H146.967L145.467 272.367V275.867L147.467 277.867V279.367L150.467 282.367L148.467 284.367L144.967 282.867H122.467L117.967 287.367L119.467 288.867V294.367H123.967V300.867L118.467 306.367H115.467V307.867H179.467L174.967 300.867L169.967 295.867H172.967L171.967 294.867H175.967L173.467 292.367H176.967L168.467 283.867V271.367L164.467 267.367H162.967L161.467 261.867L158.467 258.867H157.467L155.467 256.867V254.867L154.467 253.867V252.367L154.967 251.867V241.367L153.467 239.867L154.467 238.867H155.467V234.867H154.467L152.467 232.867H150.467V234.867L149.467 235.867V238.867H150.467V239.867H149.967L146.467 243.367V246.867H144.967V244.367L145.967 243.367L144.467 241.867H146.967L143.967 238.867H145.467L141.967 235.367H139.967L137.467 232.867V235.367H134.967L131.467 238.867H129.467V239.867H128.467V242.867H129.467V243.867H130.467V244.867H131.467V243.867H132.467ZM160.467 280.867L156.467 286.867L161.967 288.867L167.467 292.367V288.367L164.467 285.367V276.367L161.967 271.367L160.467 274.367L157.467 275.867L160.467 280.867ZM153.967 282.867L151.467 285.367L154.467 286.367L157.467 281.867L155.967 278.867H153.967V277.367H151.967V279.367L153.967 282.867Z" fill="#264A92"/>
<g opacity="0.4">
<path d="M224.467 224.867V222.957L222.567 224.867H224.467Z" fill="#A7C0FF"/>
<path d="M209.207 208.867L231.047 187.037V186.287H229.137L208.467 206.957V208.867V209.627L209.227 208.867H209.207Z" fill="#A7C0FF"/>
<path d="M209.207 192.867L217.477 184.597V183.857H215.577L208.467 190.957V192.867V193.627L209.227 192.867H209.207Z" fill="#A7C0FF"/>
<path d="M217.657 208.867L237.927 188.597V185.947L215.007 208.867L208.467 215.407V218.057L213.067 213.467L217.657 208.867Z" fill="#A7C0FF"/>
<path d="M222.557 208.867L208.467 222.957V225.607L224.467 209.607V208.867V206.957L222.567 208.867H222.557Z" fill="#A7C0FF"/>
<path d="M217.657 192.867L225.877 184.647V181.997L215.007 192.867L208.467 199.407V202.057L213.067 197.467L217.657 192.867Z" fill="#A7C0FF"/>
<path d="M208.467 234.057L224.467 218.057V215.407L208.467 231.407V234.057Z" fill="#A7C0FF"/>
<path d="M240.467 215.407V218.057L245.067 213.467L249.657 208.867L256.467 202.057V199.407L247.007 208.867L240.467 215.407Z" fill="#A7C0FF"/>
<path d="M256.467 224.867V222.957L254.567 224.867H256.467Z" fill="#A7C0FF"/>
<path d="M249.657 224.867L256.467 218.057V215.407L247.007 224.867H249.657Z" fill="#A7C0FF"/>
<path d="M254.557 208.867L240.467 222.957V224.867H241.207L256.467 209.607V208.867V206.957L254.567 208.867H254.557Z" fill="#A7C0FF"/>
<path d="M254.557 192.867L240.467 206.957V208.867V209.627L241.227 208.867H241.207L256.467 193.607V192.867V190.967L254.567 192.867H254.557Z" fill="#A7C0FF"/>
<path d="M241.207 192.867L248.497 185.577V184.837H246.597L240.467 190.967V192.867V193.627L241.227 192.867H241.207Z" fill="#A7C0FF"/>
<path d="M236.447 203.427V206.077L245.067 197.467L249.657 192.867L256.467 186.057V183.407L247.007 192.867L236.447 203.427Z" fill="#A7C0FF"/>
<path d="M400.487 224.867V222.957L398.577 224.867H400.487Z" fill="#A7C0FF"/>
<path d="M398.577 208.867L384.487 222.957V224.867V225.627L385.237 224.867H385.227L400.487 209.607V208.867V206.957L398.577 208.867Z" fill="#A7C0FF"/>
<path d="M384.497 234.047L400.487 218.057V215.407L384.507 231.387L384.497 234.047Z" fill="#A7C0FF"/>
<path d="M385.227 208.867L405.297 188.807V188.057H403.387L384.487 206.957V208.867V209.627L385.237 208.867H385.227Z" fill="#A7C0FF"/>
<path d="M387.137 215.407L416.487 186.057L421.077 181.467L423.287 179.257H420.637L416.487 183.407L384.487 215.407V218.057L387.137 215.407Z" fill="#A7C0FF"/>
<path d="M423.027 192.867L413.507 202.387V205.037L421.077 197.467L425.677 192.867L432.487 186.057V183.407L423.027 192.867Z" fill="#A7C0FF"/>
<path d="M416.487 190.957L414.577 192.867H416.487H417.227L426.297 183.807V183.057H424.387L416.487 190.967V190.957Z" fill="#A7C0FF"/>
<path d="M385.227 192.867L396.097 182.007V181.257H394.187L384.487 190.957V192.867V193.627L385.237 192.867H385.227Z" fill="#A7C0FF"/>
<path d="M387.787 182.757H385.137L384.487 183.407V186.057L386.897 183.647L387.787 182.757Z" fill="#A7C0FF"/>
<path d="M393.677 192.867L400.487 186.057V183.407L391.027 192.867L384.487 199.407V202.057L389.077 197.467L393.677 192.867Z" fill="#A7C0FF"/>
<path d="M430.577 192.867L416.487 206.957V208.867V209.627L417.237 208.867H417.227L432.487 193.607V192.867V190.967L430.577 192.867Z" fill="#A7C0FF"/>
<path d="M432.487 224.867V222.957L430.577 224.867H432.487Z" fill="#A7C0FF"/>
<path d="M425.677 224.867L432.487 218.057V215.407L423.027 224.867H425.677Z" fill="#A7C0FF"/>
<path d="M416.487 215.407V218.057L421.077 213.467L425.677 208.867L432.487 202.057V199.407L423.027 208.867L416.487 215.407Z" fill="#A7C0FF"/>
<path d="M430.577 208.867L416.487 222.957V224.867H417.227L432.487 209.607V208.867V206.957L430.577 208.867Z" fill="#A7C0FF"/>
<path d="M481.207 208.867L485.067 205.007H482.417L480.467 206.967V208.867V209.627L481.227 208.867H481.207Z" fill="#A7C0FF"/>
<path d="M489.657 208.867L493.517 205.007H490.867L487.007 208.867L480.467 215.407V218.057L485.067 213.467L489.657 208.867Z" fill="#A7C0FF"/>
<path d="M487.007 224.867H489.657L496.467 218.057L501.067 213.467L505.657 208.867H503.007L496.467 215.407L487.007 224.867Z" fill="#A7C0FF"/>
<path d="M496.467 209.617V209.627L497.227 208.867H496.467H494.557L480.467 222.967V224.867H481.207L496.467 209.617Z" fill="#A7C0FF"/>
<path d="M503.007 224.867L496.467 231.407V234.057L501.067 229.467L505.657 224.867L512.467 218.057L517.067 213.467L525.597 204.937H522.937L512.467 215.407L503.007 224.867Z" fill="#A7C0FF"/>
<path d="M496.467 225.627L497.227 224.867H497.217L512.467 209.617V209.627L513.227 208.867H513.207L514.277 207.807V207.057H512.367L480.467 238.957V240.867H481.217L496.467 225.617V225.627Z" fill="#A7C0FF"/>
<path d="M160.467 247.407V250.057L165.067 245.467L169.657 240.867L176.467 234.057V231.407L167.007 240.867L160.467 247.407Z" fill="#A7C0FF"/>
<path d="M176.467 256.867V254.957L174.567 256.867H176.467Z" fill="#A7C0FF"/>
<path d="M169.657 256.867L176.467 250.057V247.407L167.007 256.867H169.657Z" fill="#A7C0FF"/>
<path d="M174.557 240.867L160.467 254.957V256.867H161.207L176.467 241.607V240.867V238.957L174.567 240.867H174.557Z" fill="#A7C0FF"/>
<path d="M512.467 225.627L513.227 224.867H513.217L520.467 217.617V217.627L521.227 216.867H520.467H518.557L512.467 222.967L510.567 224.867H510.557L488.507 246.917V248.827H489.257L512.467 225.607V225.627Z" fill="#A7C0FF"/>
<path d="M519.007 224.867L512.467 231.407L503.007 240.867L496.467 247.407V250.057L501.067 245.467L505.657 240.867L512.467 234.057L517.067 229.467L521.657 224.867L528.467 218.057L533.067 213.467L537.657 208.867H535.007L528.467 215.407L519.007 224.867Z" fill="#A7C0FF"/>
<path d="M528.467 247.407L519.007 256.867H521.657L528.467 250.057V247.407Z" fill="#A7C0FF"/>
<path d="M535.007 256.867L528.467 263.407V266.057L533.067 261.467L537.657 256.867H535.007Z" fill="#A7C0FF"/>
<path d="M537.657 272.867L544.467 266.057V263.407L535.007 272.867H537.657Z" fill="#A7C0FF"/>
<path d="M528.467 270.957V272.867H529.207L544.467 257.607V256.867H542.557L528.467 270.957Z" fill="#A7C0FF"/>
<path d="M542.557 208.867L528.467 222.967L526.567 224.867H526.557L512.467 238.957L510.567 240.867H510.557L496.467 254.957V256.867H497.207L512.467 241.607V241.627L513.227 240.867H513.207L528.467 225.607V225.627L529.227 224.867H529.217L544.467 209.617V208.867H542.557Z" fill="#A7C0FF"/>
<path d="M535.007 224.867L528.467 231.407L519.007 240.867L512.467 247.407L503.007 256.867H505.657L512.467 250.057L517.067 245.467L521.657 240.867L528.467 234.057L533.067 229.467L537.657 224.867L544.467 218.057V215.407L535.007 224.867Z" fill="#A7C0FF"/>
<path d="M537.657 240.867L544.467 234.057V231.407L535.007 240.867H537.657Z" fill="#A7C0FF"/>
<path d="M542.557 224.867L526.557 240.867L512.467 254.957L510.567 256.867H512.467H513.207L528.467 241.607L544.467 225.607V224.867V222.967L542.567 224.867H542.557Z" fill="#A7C0FF"/>
<path d="M542.557 240.867L510.787 272.637V274.547H511.537L528.467 257.607V257.627L529.227 256.867H529.207L544.467 241.607V240.867V238.957L542.567 240.867H542.557Z" fill="#A7C0FF"/>
<path d="M162.667 220.737L152.457 230.957V232.857H153.197L160.467 225.587V225.627L161.227 224.867H161.207L176.467 209.607V206.957L162.687 220.737H162.667Z" fill="#A7C0FF"/>
<path d="M542.557 272.867L528.427 287.007V288.907H529.167L544.467 273.607V272.867V270.957L542.567 272.867H542.557Z" fill="#A7C0FF"/>
<path d="M122.927 207.597H120.277L112.467 215.407V218.057L117.067 213.467L122.927 207.597Z" fill="#A7C0FF"/>
<path d="M121.657 224.867L128.467 218.057L133.067 213.467L133.617 212.907H130.967L128.467 215.407L119.007 224.867L112.467 231.407V234.057L117.067 229.467L121.657 224.867Z" fill="#A7C0FF"/>
<path d="M113.207 224.867L133.217 204.857V204.117H131.307L112.467 222.957V224.867V225.627L113.227 224.867H113.207Z" fill="#A7C0FF"/>
<path d="M149.067 213.467L153.657 208.867H151.007L144.467 215.407L135.007 224.867L119.007 240.867H121.657L137.607 224.917V224.867H137.657L144.467 218.057L149.067 213.467Z" fill="#A7C0FF"/>
<path d="M120.467 232.867H121.217L145.677 208.407V207.657H143.767L120.467 230.957V232.867Z" fill="#A7C0FF"/>
<path d="M145.207 224.867L160.467 209.607V208.867H158.557L144.467 222.957L142.567 224.867H144.467H145.207Z" fill="#A7C0FF"/>
<path d="M165.067 213.467L173.547 204.987H170.887L160.467 215.407L143.037 232.837H145.687L160.467 218.057L165.067 213.467Z" fill="#A7C0FF"/>
<path d="M160.467 231.407V234.057L165.067 229.467L169.657 224.867L176.467 218.057V215.407L167.007 224.867L160.467 231.407Z" fill="#A7C0FF"/>
<path d="M174.557 224.867L160.467 238.957V240.867V241.627L161.227 240.867H161.207L176.467 225.607V224.867V222.957L174.567 224.867H174.557Z" fill="#A7C0FF"/>
</g>
<path fill-rule="evenodd" clip-rule="evenodd" d="M415.067 179.837C409.557 182.597 403.067 182.597 397.557 179.837C393.437 177.777 388.947 176.787 384.467 176.877V185.407C387.637 185.327 390.827 186.007 393.737 187.467C401.647 191.427 410.967 191.427 418.877 187.467C423.127 185.347 427.947 184.857 432.457 186.007V177.287C426.607 176.267 420.497 177.117 415.057 179.837H415.067Z" fill="#264A92"/>
<path fill-rule="evenodd" clip-rule="evenodd" d="M415.067 158.837C410.497 161.117 405.267 161.507 400.467 160.007V168.817C406.627 170.127 413.127 169.337 418.887 166.467C423.137 164.347 427.957 163.857 432.467 165.007V156.287C426.617 155.267 420.507 156.117 415.067 158.837Z" fill="#264A92"/>
<path d="M248.727 179.297C246.127 180.597 243.307 181.287 240.467 181.357C237.637 181.287 234.817 180.597 232.207 179.297C224.757 175.567 216.057 175.357 208.467 178.647V187.997C209.287 187.677 210.087 187.327 210.887 186.927C216.397 184.167 222.887 184.167 228.397 186.927C232.197 188.827 236.327 189.817 240.467 189.887C244.607 189.817 248.737 188.827 252.537 186.927C253.807 186.297 255.117 185.807 256.467 185.467V176.747C253.807 177.207 251.197 178.057 248.727 179.297Z" fill="#264A92"/>
<path d="M145.867 179.297C137.957 175.337 128.637 175.337 120.727 179.297C118.127 180.597 115.307 181.287 112.467 181.357V189.887C116.607 189.817 120.737 188.827 124.537 186.927C130.047 184.167 136.537 184.167 142.047 186.927C149.957 190.887 159.277 190.887 167.187 186.927C170.107 185.467 173.287 184.787 176.457 184.867V176.337C171.977 176.257 167.487 177.237 163.367 179.297C157.857 182.057 151.367 182.057 145.857 179.297H145.867Z" fill="#264A92"/>
<path d="M145.867 199.827C137.957 195.867 128.637 195.867 120.727 199.827C118.127 201.127 115.307 201.817 112.467 201.887V210.417C116.607 210.347 120.737 209.357 124.537 207.457C130.047 204.697 136.537 204.697 142.047 207.457C149.957 211.417 159.277 211.417 167.187 207.457C170.107 205.997 173.287 205.317 176.457 205.397V196.867C171.977 196.787 167.487 197.767 163.367 199.827C157.857 202.587 151.367 202.587 145.857 199.827H145.867Z" fill="#264A92"/>
<path d="M228.397 165.927C232.197 167.827 236.327 168.817 240.467 168.887V160.357C237.637 160.287 234.817 159.597 232.207 158.297C224.297 154.337 214.977 154.337 207.067 158.297C201.557 161.057 195.067 161.057 189.557 158.297C185.437 156.237 180.947 155.247 176.467 155.337C171.987 155.257 167.497 156.237 163.377 158.297C157.867 161.057 151.377 161.057 145.867 158.297C137.957 154.337 128.637 154.337 120.727 158.297C118.127 159.597 115.307 160.287 112.467 160.357V168.887C116.607 168.817 120.737 167.827 124.537 165.927C130.047 163.167 136.537 163.167 142.047 165.927C149.957 169.887 159.277 169.887 167.187 165.927C170.107 164.467 173.287 163.787 176.457 163.867C179.627 163.787 182.817 164.467 185.727 165.927C193.637 169.887 202.957 169.887 210.867 165.927C216.377 163.167 222.867 163.167 228.377 165.927H228.397Z" fill="#264A92"/>
<path d="M536.207 158.837C528.297 154.877 518.977 154.877 511.067 158.837C505.557 161.597 499.067 161.597 493.557 158.837C489.447 156.777 484.947 155.787 480.467 155.877V164.407C483.637 164.327 486.827 165.007 489.737 166.467C497.647 170.427 506.967 170.427 514.877 166.467C520.387 163.707 526.877 163.707 532.387 166.467C536.187 168.367 540.317 169.357 544.457 169.427V160.897C541.627 160.827 538.807 160.137 536.197 158.837H536.207Z" fill="#264A92"/>
<path d="M511.067 179.837C505.557 182.597 499.067 182.597 493.557 179.837C489.447 177.777 484.947 176.787 480.467 176.877V185.407C483.637 185.327 486.827 186.007 489.737 187.467C497.647 191.427 506.967 191.427 514.877 187.467C520.387 184.707 526.877 184.707 532.387 187.467C536.187 189.367 540.317 190.357 544.457 190.427V181.897C541.627 181.827 538.807 181.137 536.197 179.837C528.287 175.877 518.967 175.877 511.057 179.837H511.067Z" fill="#264A92"/>
<path d="M511.067 200.367C505.557 203.127 499.067 203.127 493.557 200.367C489.447 198.307 484.947 197.317 480.467 197.407V205.937C483.637 205.857 486.827 206.537 489.737 207.997C497.647 211.957 506.967 211.957 514.877 207.997C520.387 205.237 526.877 205.237 532.387 207.997C536.187 209.897 540.317 210.887 544.457 210.957V202.427C541.627 202.357 538.807 201.667 536.197 200.367C528.287 196.407 518.967 196.407 511.057 200.367H511.067Z" fill="#264A92"/>
<path d="M530.817 312.787H497.397L482.797 281.317L490.507 264.447H508.277L530.827 312.797L530.817 312.787ZM503.607 303.067H515.567L502.077 274.157H496.747L493.497 281.277L503.607 303.067Z" fill="#264A92"/>
<path d="M465.597 312.867H432.177L459.267 254.867H492.527L465.597 312.867ZM447.447 303.147H459.407L477.317 264.577H465.467L447.447 303.147Z" fill="#264A92"/>
<path d="M112.167 466.917V462.447H105.317C105.567 462.247 107.107 461.257 109.037 459.177C110.967 457.097 110.427 453.467 109.637 452.477V451.287H111.127V450.547C111.127 449.887 110.597 449.357 109.937 449.357C109.277 449.357 108.747 449.887 108.747 450.547V451.287L108.297 450.447C107.937 449.777 107.227 449.347 106.467 449.347H104.137C104.657 451.407 107.097 452.197 108.897 452.477L107.167 453.757C105.677 454.857 103.877 455.457 102.027 455.457H100.057V450.247H96.7867L95.8067 447.867H95.8267L95.2467 411.817L97.0067 410.677C99.1667 409.277 101.127 407.587 102.837 405.657C104.017 404.327 104.077 402.337 102.967 400.947L102.047 399.787V397.997H102.937V397.257C102.937 396.677 102.467 396.217 101.897 396.217C101.327 396.217 100.857 396.687 100.857 397.257V399.637C100.857 400.457 100.187 401.127 99.3667 401.127H95.0667L94.6367 374.337C96.1067 374.317 97.2867 373.127 97.2867 371.657H99.0767C99.2367 371.657 99.3767 371.527 99.3767 371.357V363.317H96.6967V361.827H90.7967L91.7667 351.857H92.9667V350.857H91.0367V350.677C91.0367 349.197 92.2367 347.997 93.7167 347.997V347.357H91.9667V346.357H88.4667V345.357H86.4667V346.357H82.9667V347.357H81.2167V347.997C82.6967 347.997 83.8967 349.197 83.8967 350.677V350.857H81.9667V351.857H83.3067L84.2767 361.827H78.2267V363.317H75.5467V371.357C75.5467 371.517 75.6767 371.657 75.8467 371.657H77.6367C77.6367 373.137 78.8367 374.337 80.3167 374.337H80.3467L79.9167 401.127H75.7067C74.8867 401.127 74.2167 400.457 74.2167 399.637V397.257C74.2167 396.677 73.7467 396.217 73.1767 396.217C72.6067 396.217 72.1367 396.687 72.1367 397.257V397.997H73.0267V399.787L72.1067 400.947C71.0067 402.347 71.0567 404.327 72.2367 405.657C73.9467 407.587 75.9067 409.277 78.0667 410.677L79.7367 411.757L79.1567 447.867L78.1767 450.247H74.9067V455.457H73.0467C71.1967 455.457 69.3967 454.867 67.9067 453.757L66.1767 452.477C67.9867 452.197 70.4267 451.407 70.9367 449.357H68.6067C67.8367 449.357 67.1367 449.777 66.7667 450.457L66.3167 451.297V450.557C66.3167 449.897 65.7867 449.367 65.1267 449.367C64.4667 449.367 63.9367 449.897 63.9367 450.557V451.297H65.4267V452.487C64.6367 453.477 64.0867 457.097 66.0267 459.187C67.9567 461.267 69.4967 462.267 69.7467 462.457H62.7467V466.927H54.7067V472.877H120.197V466.927H112.157L112.167 466.917ZM90.4767 358.897L89.6367 356.507L90.9767 353.717L90.4767 358.897ZM90.9967 352.307L89.3667 355.707L88.1767 352.307H90.9967ZM88.0567 353.737L89.0067 356.457L88.0567 358.437V353.727V353.737ZM88.0567 359.817L89.2867 357.257L90.3467 360.287L90.1967 361.837H88.0567V359.817ZM86.0667 356.457L87.0167 353.737V358.447L86.0667 356.467V356.457ZM87.0167 359.817V361.837H84.8767L84.7267 360.287L85.7867 357.257L87.0167 359.817ZM86.8967 352.307L85.7067 355.707L84.0767 352.307H86.8967ZM84.0867 353.717L85.4267 356.507L84.5867 358.897L84.0867 353.717ZM78.8267 362.427H96.0967V363.317H78.8267V362.427ZM76.1367 368.677V363.917H78.2367V368.677H78.8367V363.917H80.9167V368.677H81.5167V363.917H83.5967V368.677H84.1967V363.917H85.9867V368.677H86.5867V363.917H88.3767V368.677H88.9767V363.917H90.7667V368.677H91.3667V363.917H93.4467V368.677H94.0467V363.917H96.1267V368.677H96.7267V363.917H98.8267V368.677H76.1767H76.1367Z" fill="#264A92"/>
<path d="M573.907 466.917V462.447H567.057C567.307 462.247 568.847 461.257 570.777 459.177C572.707 457.097 572.167 453.467 571.377 452.477V451.287H572.867V450.547C572.867 449.887 572.337 449.357 571.677 449.357C571.017 449.357 570.487 449.887 570.487 450.547V451.287L570.037 450.447C569.677 449.777 568.967 449.347 568.207 449.347H565.877C566.397 451.407 568.837 452.197 570.637 452.477L568.907 453.757C567.417 454.857 565.617 455.457 563.767 455.457H561.797V450.247H558.527L557.547 447.867H557.567L556.987 411.817L558.747 410.677C560.907 409.277 562.867 407.587 564.577 405.657C565.757 404.327 565.817 402.337 564.707 400.947L563.787 399.787V397.997H564.677V397.257C564.677 396.677 564.207 396.217 563.637 396.217C563.067 396.217 562.597 396.687 562.597 397.257V399.637C562.597 400.457 561.927 401.127 561.107 401.127H556.807L556.377 374.337C557.847 374.317 559.027 373.127 559.027 371.657H560.817C560.977 371.657 561.117 371.527 561.117 371.357V363.317H558.437V361.827H552.537L553.507 351.857H554.707V350.857H552.777V350.677C552.777 349.197 553.977 347.997 555.457 347.997V347.357H553.707V346.357H550.207V345.357H548.207V346.357H544.707V347.357H542.957V347.997C544.437 347.997 545.637 349.197 545.637 350.677V350.857H543.707V351.857H545.047L546.017 361.827H539.967V363.317H537.287V371.357C537.287 371.517 537.417 371.657 537.587 371.657H539.377C539.377 373.137 540.577 374.337 542.057 374.337H542.087L541.657 401.127H537.447C536.627 401.127 535.957 400.457 535.957 399.637V397.257C535.957 396.677 535.487 396.217 534.917 396.217C534.347 396.217 533.877 396.687 533.877 397.257V397.997H534.767V399.787L533.847 400.947C532.747 402.347 532.797 404.327 533.977 405.657C535.687 407.587 537.647 409.277 539.807 410.677L541.477 411.757L540.897 447.867L539.917 450.247H536.647V455.457H534.787C532.937 455.457 531.137 454.867 529.647 453.757L527.917 452.477C529.727 452.197 532.167 451.407 532.677 449.357H530.347C529.577 449.357 528.877 449.777 528.507 450.457L528.057 451.297V450.557C528.057 449.897 527.527 449.367 526.867 449.367C526.207 449.367 525.677 449.897 525.677 450.557V451.297H527.167V452.487C526.377 453.477 525.827 457.097 527.767 459.187C529.697 461.267 531.237 462.267 531.487 462.457H524.487V466.927H516.447V472.877H581.937V466.927H573.897L573.907 466.917ZM552.217 358.897L551.377 356.507L552.717 353.717L552.217 358.897ZM552.737 352.307L551.107 355.707L549.917 352.307H552.737ZM549.787 353.737L550.737 356.457L549.787 358.437V353.727V353.737ZM549.787 359.817L551.017 357.257L552.077 360.287L551.927 361.837H549.787V359.817ZM547.797 356.457L548.747 353.737V358.447L547.797 356.467V356.457ZM548.747 359.817V361.837H546.607L546.457 360.287L547.517 357.257L548.747 359.817ZM548.627 352.307L547.437 355.707L545.807 352.307H548.627ZM545.817 353.717L547.157 356.507L546.317 358.897L545.817 353.717ZM540.567 362.427H557.837V363.317H540.567V362.427ZM537.877 368.677V363.917H539.977V368.677H540.577V363.917H542.657V368.677H543.257V363.917H545.337V368.677H545.937V363.917H547.727V368.677H548.327V363.917H550.117V368.677H550.717V363.917H552.507V368.677H553.107V363.917H555.187V368.677H555.787V363.917H557.867V368.677H558.467V363.917H560.567V368.677H537.917H537.877Z" fill="#264A92"/>
<path fill-rule="evenodd" clip-rule="evenodd" d="M160.467 489.397C171.467 489.397 181.427 492.537 192.467 500.277V493.267C181.657 485.517 171.057 482.867 160.467 482.867C149.877 482.867 139.277 485.517 128.467 493.267V500.277C139.507 492.537 149.467 489.397 160.467 489.397Z" fill="#264A92"/>
<path fill-rule="evenodd" clip-rule="evenodd" d="M160.467 508.117C150.947 508.117 146.507 513.387 140.937 517.257C137.697 519.507 134.697 521.297 128.467 521.297V526.947C136.767 526.947 141.947 523.777 145.877 520.557C149.967 517.197 152.787 513.777 160.467 513.777C168.147 513.777 170.967 517.197 175.057 520.557C178.987 523.787 184.167 526.947 192.467 526.947V521.297C186.237 521.297 183.237 519.517 179.997 517.257C174.427 513.387 169.987 508.117 160.467 508.117Z" fill="#264A92"/>
<path fill-rule="evenodd" clip-rule="evenodd" d="M180.457 501.137C174.467 496.897 167.467 494.777 160.467 494.797C153.467 494.777 146.467 496.887 140.477 501.137L134.547 505.337C132.737 506.617 130.597 507.257 128.467 507.227V514.107C131.987 514.137 135.507 513.077 138.497 510.957L144.427 506.757C149.237 503.347 154.857 501.657 160.467 501.677C166.077 501.657 171.697 503.357 176.507 506.757L182.437 510.957C185.437 513.077 188.947 514.137 192.467 514.107V507.227C190.337 507.257 188.197 506.627 186.387 505.337L180.457 501.137Z" fill="#264A92"/>
<path fill-rule="evenodd" clip-rule="evenodd" d="M480.467 489.397C491.467 489.397 501.427 492.537 512.467 500.277V493.267C501.657 485.517 491.057 482.867 480.467 482.867C469.877 482.867 459.277 485.517 448.467 493.267V500.277C459.507 492.537 469.467 489.397 480.467 489.397Z" fill="#264A92"/>
<path fill-rule="evenodd" clip-rule="evenodd" d="M480.467 508.117C470.947 508.117 466.507 513.387 460.937 517.257C457.697 519.507 454.697 521.297 448.467 521.297V526.947C456.767 526.947 461.947 523.777 465.877 520.557C469.967 517.197 472.787 513.777 480.467 513.777C488.147 513.777 490.967 517.197 495.057 520.557C498.987 523.787 504.167 526.947 512.467 526.947V521.297C506.237 521.297 503.237 519.517 499.997 517.257C494.427 513.387 489.987 508.117 480.467 508.117Z" fill="#264A92"/>
<path fill-rule="evenodd" clip-rule="evenodd" d="M500.457 501.137C494.467 496.897 487.467 494.777 480.467 494.797C473.467 494.777 466.467 496.887 460.477 501.137L454.547 505.337C452.737 506.617 450.597 507.257 448.467 507.227V514.107C451.987 514.137 455.507 513.077 458.497 510.957L464.427 506.757C469.237 503.347 474.857 501.657 480.467 501.677C486.077 501.657 491.697 503.357 496.507 506.757L502.437 510.957C505.427 513.077 508.947 514.137 512.467 514.107V507.227C510.337 507.257 508.197 506.627 506.387 505.337L500.457 501.137Z" fill="#264A92"/>
<path d="M404.627 515.227L411.507 504.867L413.037 515.227H419.787L421.317 504.867L428.187 515.227L425.067 521.117L430.407 524.607L427.807 536.867L423.607 529.287H409.217L405.017 536.867L402.417 524.607L407.757 521.117L404.637 515.227H404.627Z" fill="#264A92"/>
<path d="M212.627 515.227L219.507 504.867L221.037 515.227H227.787L229.317 504.867L236.187 515.227L233.067 521.117L238.407 524.607L235.807 536.867L231.607 529.287H217.217L213.017 536.867L210.417 524.607L215.757 521.117L212.637 515.227H212.627Z" fill="#264A92"/>
<mask id="mask7_22414_1774" style="mask-type:luminance" maskUnits="userSpaceOnUse" x="256" y="497" width="129" height="66">
<path d="M384.467 497.867H256.467V562.867H384.467V497.867Z" fill="white"/>
</mask>
<g mask="url(#mask7_22414_1774)">
<path d="M384.467 542.707V551.877H379.317V563.387H370.147V551.877H351.427L362.287 497.957H379.327V542.707H384.477H384.467ZM362.467 542.707H370.147V505.077L362.467 542.707Z" fill="#264A92"/>
<path d="M335.237 497.867C342.067 497.867 347.687 503.487 347.687 510.407V528.657C347.687 535.487 342.067 541.107 335.237 541.107H333.927C332.057 541.107 330.557 542.607 330.557 544.387V554.307H338.607V547.477H347.687V563.387H321.477V544.387C321.477 537.557 326.997 531.937 333.927 531.937H335.237C337.107 531.937 338.607 530.437 338.607 528.657V510.407C338.607 508.537 337.107 507.037 335.237 507.037H330.557V519.677H321.477V497.867H335.237Z" fill="#264A92"/>
<path d="M300.827 497.867H314.847V550.427C314.847 557.207 309.207 562.867 302.237 562.867H288.307V510.207C288.307 503.427 293.957 497.857 300.817 497.857L300.827 497.867ZM305.617 550.427V506.967H300.817C299.027 506.967 297.527 508.457 297.527 510.217V553.677H302.227C304.107 553.677 305.617 552.187 305.617 550.427Z" fill="#264A92"/>
<path d="M270.397 497.867C277.317 497.867 282.997 503.437 282.997 510.317V528.427C282.997 535.207 277.307 540.777 270.397 540.777H269.067C267.167 540.777 265.657 542.267 265.657 544.027V553.867H273.807V547.087H282.997V562.877H256.467V544.027C256.467 537.247 262.057 531.677 269.067 531.677H270.397C272.297 531.677 273.807 530.187 273.807 528.427V510.317C273.807 508.457 272.287 506.977 270.397 506.977H265.657V519.517H256.467V497.877H270.397V497.867Z" fill="#264A92"/>
</g>
<path d="M275.096 631.864L269.439 637.521L275.096 643.177L280.753 637.521L275.096 631.864Z" fill="#264A92"/>
<path d="M320.353 631.867L314.696 637.524L320.353 643.181L326.009 637.524L320.353 631.867Z" fill="#264A92"/>
<path fill-rule="evenodd" clip-rule="evenodd" d="M320.347 698.377C313.987 698.377 307.877 700.907 303.377 705.407L297.717 699.747C303.717 693.747 311.857 690.377 320.347 690.377C328.837 690.377 336.977 693.747 342.977 699.747L337.317 705.407C332.817 700.907 326.707 698.377 320.347 698.377Z" fill="#264A92"/>
<path d="M365.606 631.864L359.949 637.52L365.606 643.177L371.263 637.52L365.606 631.864Z" fill="#264A92"/>
<path d="M320.349 677.124L314.692 682.781L320.349 688.437L326.006 682.781L320.349 677.124Z" fill="#264A92"/>
<path fill-rule="evenodd" clip-rule="evenodd" d="M342.977 667.747C334.487 667.747 326.347 671.117 320.347 677.117L326.007 682.777C330.507 678.277 336.617 675.747 342.977 675.747C349.337 675.747 355.447 678.277 359.947 682.777L365.607 677.117C359.607 671.117 351.467 667.747 342.977 667.747Z" fill="#264A92"/>
<path fill-rule="evenodd" clip-rule="evenodd" d="M275.097 677.117L280.757 682.777C285.257 678.277 291.367 675.747 297.727 675.747C304.087 675.747 310.197 678.277 314.697 682.777L320.357 677.117C314.357 671.117 306.217 667.747 297.727 667.747C289.237 667.747 281.097 671.117 275.097 677.117Z" fill="#264A92"/>
<path d="M365.607 645.117C357.117 645.117 348.977 648.487 342.977 654.487C336.977 648.487 328.837 645.117 320.347 645.117C311.857 645.117 303.717 648.487 297.717 654.487C291.717 648.487 283.577 645.117 275.087 645.117C266.597 645.117 258.457 648.487 252.457 654.487L258.117 660.147C262.617 655.647 268.717 653.117 275.087 653.117C281.457 653.117 287.557 655.647 292.057 660.147L297.717 665.807L303.377 660.147C307.877 655.647 313.987 653.117 320.347 653.117C326.707 653.117 332.817 655.647 337.317 660.147L342.977 665.807L348.637 660.147C353.137 655.647 359.247 653.117 365.607 653.117C371.967 653.117 378.077 655.647 382.577 660.147L388.237 654.487C382.237 648.487 374.097 645.117 365.607 645.117Z" fill="#264A92"/>
<mask id="mask8_22414_1774" style="mask-type:luminance" maskUnits="userSpaceOnUse" x="128" y="541" width="193" height="100">
<path d="M320.467 541.867H128.467V640.867H320.467V541.867Z" fill="white"/>
</mask>
<g mask="url(#mask8_22414_1774)">
<mask id="mask9_22414_1774" style="mask-type:luminance" maskUnits="userSpaceOnUse" x="192" y="576" width="65" height="65">
<path d="M256.467 576.867H192.467V640.867H256.467V576.867Z" fill="white"/>
</mask>
<g mask="url(#mask9_22414_1774)">
<path fill-rule="evenodd" clip-rule="evenodd" d="M188.717 623.107C193.067 624.077 197.667 623.547 201.737 621.507C209.647 617.547 218.967 617.547 226.877 621.507C232.387 624.267 238.877 624.267 244.387 621.507C248.347 619.527 252.647 618.537 256.957 618.537V627.067C253.957 627.067 250.957 627.757 248.197 629.137C240.287 633.097 230.967 633.097 223.057 629.137C217.547 626.377 211.057 626.377 205.547 629.137C200.277 631.767 194.397 632.647 188.707 631.777V623.097L188.717 623.107ZM188.717 605.537C193.067 606.507 197.667 605.977 201.737 603.937C209.647 599.977 218.967 599.977 226.877 603.937C232.387 606.697 238.877 606.697 244.387 603.937C248.347 601.957 252.647 600.967 256.957 600.967V609.497C253.957 609.497 250.957 610.187 248.197 611.567C240.287 615.527 230.967 615.527 223.057 611.567C217.547 608.807 211.057 608.807 205.547 611.567C200.277 614.197 194.397 615.077 188.707 614.207V605.527L188.717 605.537ZM201.737 586.377C197.667 588.417 193.067 588.947 188.717 587.977V596.657C194.397 597.527 200.287 596.657 205.557 594.017C211.067 591.257 217.557 591.257 223.067 594.017C230.977 597.977 240.297 597.977 248.207 594.017C250.967 592.637 253.967 591.947 256.967 591.947V583.417C252.657 583.417 248.357 584.407 244.397 586.387C238.887 589.147 232.397 589.147 226.887 586.387C218.977 582.427 209.657 582.427 201.747 586.387L201.737 586.377Z" fill="#264A92"/>
</g>
<mask id="mask10_22414_1774" style="mask-type:luminance" maskUnits="userSpaceOnUse" x="256" y="576" width="65" height="65">
<path d="M320.467 576.867H256.467V640.867H320.467V576.867Z" fill="white"/>
</mask>
<g mask="url(#mask10_22414_1774)">
<path fill-rule="evenodd" clip-rule="evenodd" d="M324.217 623.107C319.867 624.077 315.267 623.547 311.197 621.507C303.287 617.547 293.967 617.547 286.057 621.507C280.547 624.267 274.057 624.267 268.547 621.507C264.587 619.527 260.287 618.537 255.977 618.537V627.067C258.977 627.067 261.977 627.757 264.737 629.137C272.647 633.097 281.967 633.097 289.877 629.137C295.387 626.377 301.877 626.377 307.387 629.137C312.657 631.767 318.537 632.647 324.227 631.777V623.097L324.217 623.107ZM324.217 605.537C319.867 606.507 315.267 605.977 311.197 603.937C303.287 599.977 293.967 599.977 286.057 603.937C280.547 606.697 274.057 606.697 268.547 603.937C264.587 601.957 260.287 600.967 255.977 600.967V609.497C258.977 609.497 261.977 610.187 264.737 611.567C272.647 615.527 281.967 615.527 289.877 611.567C295.387 608.807 301.877 608.807 307.387 611.567C312.657 614.197 318.537 615.077 324.227 614.207V605.527L324.217 605.537ZM311.197 586.377C315.267 588.417 319.867 588.947 324.217 587.977V596.657C318.537 597.527 312.647 596.657 307.377 594.017C301.867 591.257 295.377 591.257 289.867 594.017C281.957 597.977 272.637 597.977 264.727 594.017C261.967 592.637 258.967 591.947 255.967 591.947V583.417C260.277 583.417 264.577 584.407 268.537 586.387C274.047 589.147 280.537 589.147 286.047 586.387C293.957 582.427 303.277 582.427 311.187 586.387L311.197 586.377Z" fill="#264A92"/>
</g>
<mask id="mask11_22414_1774" style="mask-type:luminance" maskUnits="userSpaceOnUse" x="128" y="541" width="65" height="65">
<path d="M192.467 541.867H128.467V605.867H192.467V541.867Z" fill="white"/>
</mask>
<g mask="url(#mask11_22414_1774)">
<mask id="mask12_22414_1774" style="mask-type:luminance" maskUnits="userSpaceOnUse" x="128" y="541" width="65" height="65">
<path d="M192.467 541.867H128.467V605.867H192.467V541.867Z" fill="white"/>
</mask>
<g mask="url(#mask12_22414_1774)">
<path fill-rule="evenodd" clip-rule="evenodd" d="M183.197 568.947C187.267 570.977 191.867 571.517 196.217 570.547V579.227C190.537 580.097 184.647 579.227 179.377 576.587C173.867 573.827 167.377 573.827 161.867 576.587C153.957 580.547 144.637 580.547 136.727 576.587C133.967 575.207 130.967 574.517 127.967 574.517V565.987C132.277 565.987 136.587 566.977 140.537 568.957C146.047 571.717 152.537 571.717 158.047 568.957C165.957 564.997 175.277 564.997 183.187 568.957L183.197 568.947ZM183.197 551.377C187.267 553.417 191.867 553.947 196.217 552.977V561.657C190.537 562.527 184.647 561.657 179.377 559.017C173.867 556.257 167.377 556.257 161.867 559.017C153.957 562.977 144.637 562.977 136.727 559.017C133.967 557.637 130.967 556.947 127.967 556.947V548.417C132.277 548.417 136.587 549.407 140.537 551.387C146.047 554.147 152.537 554.147 158.047 551.387C165.957 547.427 175.277 547.427 183.187 551.387L183.197 551.377Z" fill="#264A92"/>
</g>
</g>
<mask id="mask13_22414_1774" style="mask-type:luminance" maskUnits="userSpaceOnUse" x="192" y="541" width="42" height="65">
<path d="M233.467 541.867H192.467V605.867H233.467V541.867Z" fill="white"/>
</mask>
<g mask="url(#mask13_22414_1774)">
<mask id="mask14_22414_1774" style="mask-type:luminance" maskUnits="userSpaceOnUse" x="192" y="541" width="65" height="65">
<path d="M256.467 541.867H192.467V605.867H256.467V541.867Z" fill="white"/>
</mask>
<g mask="url(#mask14_22414_1774)">
<path fill-rule="evenodd" clip-rule="evenodd" d="M201.737 568.947C197.667 570.977 193.067 571.517 188.717 570.547V579.227C194.397 580.097 200.287 579.227 205.557 576.587C211.067 573.827 217.557 573.827 223.067 576.587C230.977 580.547 240.297 580.547 248.207 576.587C250.967 575.207 253.967 574.517 256.967 574.517V565.987C252.657 565.987 248.357 566.977 244.397 568.957C238.887 571.717 232.397 571.717 226.887 568.957C218.977 564.997 209.657 564.997 201.747 568.957L201.737 568.947ZM201.737 551.377C197.667 553.417 193.067 553.947 188.717 552.977V561.657C194.397 562.527 200.287 561.657 205.557 559.017C211.067 556.257 217.557 556.257 223.067 559.017C230.977 562.977 240.297 562.977 248.207 559.017C250.967 557.637 253.967 556.947 256.967 556.947V548.417C252.657 548.417 248.357 549.407 244.397 551.387C238.887 554.147 232.397 554.147 226.887 551.387C218.977 547.427 209.657 547.427 201.747 551.387L201.737 551.377Z" fill="#264A92"/>
</g>
</g>
<mask id="mask15_22414_1774" style="mask-type:luminance" maskUnits="userSpaceOnUse" x="128" y="576" width="65" height="65">
<path d="M192.467 576.867H128.467V640.867H192.467V576.867Z" fill="white"/>
</mask>
<g mask="url(#mask15_22414_1774)">
<path fill-rule="evenodd" clip-rule="evenodd" d="M183.197 603.947C187.267 605.977 191.867 606.517 196.217 605.547V614.227C190.537 615.097 184.647 614.227 179.377 611.587C173.867 608.827 167.377 608.827 161.867 611.587C153.957 615.547 144.637 615.547 136.727 611.587C133.967 610.207 130.967 609.517 127.967 609.517V600.987C132.277 600.987 136.587 601.977 140.537 603.957C146.047 606.717 152.537 606.717 158.047 603.957C165.957 599.997 175.277 599.997 183.187 603.957L183.197 603.947ZM183.197 586.377C187.267 588.417 191.867 588.947 196.217 587.977V596.657C190.537 597.527 184.647 596.657 179.377 594.017C173.867 591.257 167.377 591.257 161.867 594.017C153.957 597.977 144.637 597.977 136.727 594.017C133.967 592.637 130.967 591.947 127.967 591.947V583.417C132.277 583.417 136.587 584.407 140.537 586.387C146.047 589.147 152.537 589.147 158.047 586.387C165.957 582.427 175.277 582.427 183.187 586.387L183.197 586.377Z" fill="#264A92"/>
</g>
</g>
<mask id="mask16_22414_1774" style="mask-type:luminance" maskUnits="userSpaceOnUse" x="320" y="541" width="193" height="100">
<path d="M512.467 541.867H320.467V640.867H512.467V541.867Z" fill="white"/>
</mask>
<g mask="url(#mask16_22414_1774)">
<mask id="mask17_22414_1774" style="mask-type:luminance" maskUnits="userSpaceOnUse" x="384" y="576" width="65" height="65">
<path d="M448.467 576.867H384.467V640.867H448.467V576.867Z" fill="white"/>
</mask>
<g mask="url(#mask17_22414_1774)">
<path fill-rule="evenodd" clip-rule="evenodd" d="M452.217 623.107C447.867 624.077 443.267 623.547 439.197 621.507C431.287 617.547 421.967 617.547 414.057 621.507C408.547 624.267 402.057 624.267 396.547 621.507C392.587 619.527 388.287 618.537 383.977 618.537V627.067C386.977 627.067 389.977 627.757 392.737 629.137C400.647 633.097 409.967 633.097 417.877 629.137C423.387 626.377 429.877 626.377 435.387 629.137C440.657 631.767 446.537 632.647 452.227 631.777V623.097L452.217 623.107ZM452.217 605.537C447.867 606.507 443.267 605.977 439.197 603.937C431.287 599.977 421.967 599.977 414.057 603.937C408.547 606.697 402.057 606.697 396.547 603.937C392.587 601.957 388.287 600.967 383.977 600.967V609.497C386.977 609.497 389.977 610.187 392.737 611.567C400.647 615.527 409.967 615.527 417.877 611.567C423.387 608.807 429.877 608.807 435.387 611.567C440.657 614.197 446.537 615.077 452.227 614.207V605.527L452.217 605.537ZM439.197 586.377C443.267 588.417 447.867 588.947 452.217 587.977V596.657C446.537 597.527 440.647 596.657 435.377 594.017C429.867 591.257 423.377 591.257 417.867 594.017C409.957 597.977 400.637 597.977 392.727 594.017C389.967 592.637 386.967 591.947 383.967 591.947V583.417C388.277 583.417 392.577 584.407 396.537 586.387C402.047 589.147 408.537 589.147 414.047 586.387C421.957 582.427 431.277 582.427 439.187 586.387L439.197 586.377Z" fill="#264A92"/>
</g>
<mask id="mask18_22414_1774" style="mask-type:luminance" maskUnits="userSpaceOnUse" x="320" y="576" width="65" height="65">
<path d="M384.467 576.867H320.467V640.867H384.467V576.867Z" fill="white"/>
</mask>
<g mask="url(#mask18_22414_1774)">
<path fill-rule="evenodd" clip-rule="evenodd" d="M316.717 623.107C321.067 624.077 325.667 623.547 329.737 621.507C337.647 617.547 346.967 617.547 354.877 621.507C360.387 624.267 366.877 624.267 372.387 621.507C376.347 619.527 380.647 618.537 384.957 618.537V627.067C381.957 627.067 378.957 627.757 376.197 629.137C368.287 633.097 358.967 633.097 351.057 629.137C345.547 626.377 339.057 626.377 333.547 629.137C328.277 631.767 322.397 632.647 316.707 631.777V623.097L316.717 623.107ZM316.717 605.537C321.067 606.507 325.667 605.977 329.737 603.937C337.647 599.977 346.967 599.977 354.877 603.937C360.387 606.697 366.877 606.697 372.387 603.937C376.347 601.957 380.647 600.967 384.957 600.967V609.497C381.957 609.497 378.957 610.187 376.197 611.567C368.287 615.527 358.967 615.527 351.057 611.567C345.547 608.807 339.057 608.807 333.547 611.567C328.277 614.197 322.397 615.077 316.707 614.207V605.527L316.717 605.537ZM329.737 586.377C325.667 588.417 321.067 588.947 316.717 587.977V596.657C322.397 597.527 328.287 596.657 333.557 594.017C339.067 591.257 345.557 591.257 351.067 594.017C358.977 597.977 368.297 597.977 376.207 594.017C378.967 592.637 381.967 591.947 384.967 591.947V583.417C380.657 583.417 376.357 584.407 372.397 586.387C366.887 589.147 360.397 589.147 354.887 586.387C346.977 582.427 337.657 582.427 329.747 586.387L329.737 586.377Z" fill="#264A92"/>
</g>
<mask id="mask19_22414_1774" style="mask-type:luminance" maskUnits="userSpaceOnUse" x="448" y="541" width="65" height="65">
<path d="M512.467 541.867H448.467V605.867H512.467V541.867Z" fill="white"/>
</mask>
<g mask="url(#mask19_22414_1774)">
<path fill-rule="evenodd" clip-rule="evenodd" d="M457.737 568.947C453.667 570.977 449.067 571.517 444.717 570.547V579.227C450.397 580.097 456.287 579.227 461.557 576.587C467.067 573.827 473.557 573.827 479.067 576.587C486.977 580.547 496.297 580.547 504.207 576.587C506.967 575.207 509.967 574.517 512.967 574.517V565.987C508.657 565.987 504.357 566.977 500.397 568.957C494.887 571.717 488.397 571.717 482.887 568.957C474.967 564.997 465.657 564.997 457.747 568.957L457.737 568.947ZM457.737 551.377C453.667 553.417 449.067 553.947 444.717 552.977V561.657C450.397 562.527 456.287 561.657 461.557 559.017C467.067 556.257 473.557 556.257 479.067 559.017C486.977 562.977 496.297 562.977 504.207 559.017C506.967 557.637 509.967 556.947 512.967 556.947V548.417C508.657 548.417 504.357 549.407 500.397 551.387C494.887 554.147 488.397 554.147 482.887 551.387C474.967 547.427 465.657 547.427 457.747 551.387L457.737 551.377Z" fill="#264A92"/>
</g>
<mask id="mask20_22414_1774" style="mask-type:luminance" maskUnits="userSpaceOnUse" x="448" y="576" width="65" height="65">
<path d="M512.467 576.867H448.467V640.867H512.467V576.867Z" fill="white"/>
</mask>
<g mask="url(#mask20_22414_1774)">
<path fill-rule="evenodd" clip-rule="evenodd" d="M457.737 603.947C453.667 605.977 449.067 606.517 444.717 605.547V614.227C450.397 615.097 456.287 614.227 461.557 611.587C467.067 608.827 473.557 608.827 479.067 611.587C486.977 615.547 496.297 615.547 504.207 611.587C506.967 610.207 509.967 609.517 512.967 609.517V600.987C508.657 600.987 504.357 601.977 500.397 603.957C494.887 606.717 488.397 606.717 482.887 603.957C474.967 599.997 465.657 599.997 457.747 603.957L457.737 603.947ZM457.737 586.377C453.667 588.417 449.067 588.947 444.717 587.977V596.657C450.397 597.527 456.287 596.657 461.557 594.017C467.067 591.257 473.557 591.257 479.067 594.017C486.977 597.977 496.297 597.977 504.207 594.017C506.967 592.637 509.967 591.947 512.967 591.947V583.417C508.657 583.417 504.357 584.407 500.397 586.387C494.887 589.147 488.397 589.147 482.887 586.387C474.967 582.427 465.657 582.427 457.747 586.387L457.737 586.377Z" fill="#264A92"/>
</g>
<mask id="mask21_22414_1774" style="mask-type:luminance" maskUnits="userSpaceOnUse" x="407" y="541" width="42" height="65">
<path d="M448.467 541.867H407.467V605.867H448.467V541.867Z" fill="white"/>
</mask>
<g mask="url(#mask21_22414_1774)">
<mask id="mask22_22414_1774" style="mask-type:luminance" maskUnits="userSpaceOnUse" x="384" y="541" width="65" height="65">
<path d="M448.467 541.867H384.467V605.867H448.467V541.867Z" fill="white"/>
</mask>
<g mask="url(#mask22_22414_1774)">
<path fill-rule="evenodd" clip-rule="evenodd" d="M439.197 568.947C443.267 570.977 447.867 571.517 452.217 570.547V579.227C446.537 580.097 440.647 579.227 435.377 576.587C429.867 573.827 423.377 573.827 417.867 576.587C409.957 580.547 400.637 580.547 392.727 576.587C389.967 575.207 386.967 574.517 383.967 574.517V565.987C388.277 565.987 392.577 566.977 396.537 568.957C402.047 571.717 408.537 571.717 414.047 568.957C421.957 564.997 431.277 564.997 439.187 568.957L439.197 568.947ZM439.197 551.377C443.267 553.417 447.867 553.947 452.217 552.977V561.657C446.537 562.527 440.647 561.657 435.377 559.017C429.867 556.257 423.377 556.257 417.867 559.017C409.957 562.977 400.637 562.977 392.727 559.017C389.967 557.637 386.967 556.947 383.967 556.947V548.417C388.277 548.417 392.577 549.407 396.537 551.387C402.047 554.147 408.537 554.147 414.047 551.387C421.957 547.427 431.277 547.427 439.187 551.387L439.197 551.377Z" fill="#264A92"/>
</g>
</g>
</g>
<path d="M441.467 320.867H519.707L507.387 414.017C504.797 430.877 493.557 441.677 478.427 441.677H471.727V472.867H450.327V342.267H441.467V320.867ZM486.417 410.987L495.497 342.257H471.727V420.497H478.427C482.747 420.497 485.347 417.257 486.427 410.987H486.417Z" fill="#264A92"/>
<path d="M398.907 374.037C414.897 374.037 427.647 386.787 427.867 402.567V472.867H357.627V450.977H366.487V342.267H357.627V321.087H427.867V362.367H406.687V342.267H387.887V374.037H398.907ZM406.687 450.977V402.997C406.687 398.677 403.227 395.217 398.907 395.217H387.887V450.977H406.687Z" fill="#264A92"/>
<path d="M209.997 320.867H288.237L275.917 414.017C273.327 430.877 262.087 441.677 246.957 441.677H240.257V472.867H218.857V342.267H209.997V320.867ZM254.957 410.987L264.037 342.257H240.267V420.497H246.967C251.287 420.497 253.887 417.257 254.967 410.987H254.957Z" fill="#264A92"/>
<path d="M191.757 359.987C189.817 368.417 186.787 374.247 183.107 378.357L197.857 472.867H176.457L163.007 386.787H153.927V472.867H132.747V342.267H120.457V320.867H153.927V365.607H162.787C165.377 365.607 168.837 365.607 170.787 355.667L175.977 320.867H197.587L191.747 359.987H191.757Z" fill="#264A92"/>
<path d="M320.187 346.867H346.757V472.227H329.277V448.507C320.177 452.427 313.937 461.707 313.937 472.227H296.457V370.587C296.457 357.567 307.157 346.867 320.177 346.867H320.187ZM329.277 430.137V364.337H320.177C316.787 364.337 313.937 367.187 313.937 370.577V437.977C319.467 433.517 324.637 431.197 329.277 430.127V430.137Z" fill="#264A92"/>
<path fill-rule="evenodd" clip-rule="evenodd" d="M109.381 495.656C112.138 496.864 115.471 496.34 117.728 494.083C120.668 491.144 120.668 486.377 117.728 483.438C114.789 480.498 110.022 480.498 107.083 483.438C104.826 485.695 104.302 489.028 105.51 491.785L102.412 494.883C100.445 492.895 98.8058 490.609 97.5538 488.109L94.8488 489.043L96.1598 494.276L96.5059 495.417C97.0981 497.37 96.9921 499.399 96.074 501.22L73.7068 523.588C71.1975 520.26 69.8117 516.196 69.7975 511.999C69.78 506.898 71.7891 502.017 75.3782 498.428L80.0509 493.755H64.2686L64.2684 499.23L67.8508 499.23C65.5461 503.053 64.3075 507.47 64.3231 512.018C64.3399 516.965 65.5191 522.042 66.6719 527.005C67.1494 529.061 67.6224 531.097 68.0064 533.097C69.9542 533.479 71.932 533.941 73.9269 534.408C78.9451 535.58 84.0716 536.778 89.1004 536.795C93.6483 536.811 98.0651 535.572 101.888 533.267L101.888 536.849L107.362 536.849V521.067L102.69 525.74C99.1007 529.329 94.2204 531.338 89.119 531.32C84.945 531.306 80.9026 529.936 77.5847 527.452L99.9473 505.094C101.79 504.185 103.824 504.097 105.79 504.694L106.92 505.037L112.153 506.347L113.088 503.642C110.574 502.384 108.277 500.734 106.283 498.754L109.381 495.656ZM109.963 491.203C111.312 492.551 113.499 492.551 114.848 491.203C116.196 489.854 116.196 487.667 114.848 486.318C113.499 484.969 111.312 484.97 109.963 486.318C108.615 487.667 108.614 489.854 109.963 491.203Z" fill="#264A92"/>
<path fill-rule="evenodd" clip-rule="evenodd" d="M533.292 490.377C534.512 487.823 534.064 484.671 531.949 482.555C529.265 479.872 524.914 479.872 522.231 482.555C519.547 485.239 519.547 489.59 522.231 492.273C524.346 494.389 527.499 494.837 530.053 493.616L547.385 510.948L547.421 510.985L547.447 511.011C552.229 515.861 552.037 523.474 547.553 528.115C546.85 527.812 546.192 527.374 545.618 526.799L532.673 513.854L532.673 527.807L537.254 527.807L537.254 524.914L542.379 530.039C542.704 530.364 543.045 530.665 543.399 530.94C538.882 532.809 533.597 531.822 530.054 528.279L520.426 518.651L520.426 532.279L525.007 532.279L525.007 529.711L526.815 531.518C532.311 537.014 540.855 538.033 547.49 533.984C547.93 533.716 548.352 533.431 548.757 533.131C551.931 533.503 555.238 532.47 557.672 530.034C560.108 527.594 561.136 524.28 560.756 521.102C563.93 521.492 567.244 520.469 569.681 518.033C572.11 515.604 573.134 512.302 572.754 509.137C573.058 508.726 573.348 508.296 573.62 507.849C577.648 501.236 576.63 492.726 571.155 487.251L569.311 485.408L571.879 485.407L571.879 480.826L558.251 480.826L567.915 490.491C571.451 494.026 572.43 499.302 570.553 503.806C570.286 503.464 569.995 503.135 569.681 502.821L564.514 497.654L567.407 497.654L567.407 493.073L553.454 493.073L566.441 506.06C566.999 506.618 567.428 507.256 567.728 507.938C563.11 512.374 555.556 512.561 550.736 507.821L550.691 507.777L550.624 507.709L533.292 490.377ZM529.357 485.147C530.61 486.399 530.61 488.43 529.357 489.682C528.105 490.934 526.075 490.934 524.822 489.682C523.57 488.43 523.57 486.399 524.822 485.147C526.075 483.894 528.105 483.894 529.357 485.147ZM553.609 527.489C554.906 525.027 555.566 522.285 555.556 519.531C556.77 521.875 556.395 524.829 554.43 526.797C554.172 527.055 553.897 527.286 553.609 527.489ZM559.214 515.902C561.543 517.119 564.485 516.75 566.442 514.793C566.703 514.532 566.937 514.252 567.141 513.959C564.689 515.252 561.957 515.91 559.214 515.902Z" fill="#264A92"/>
</g>
<defs>
<linearGradient id="paint0_linear_22414_1774" x1="495.587" y1="116.607" x2="465.347" y2="580.137" gradientUnits="userSpaceOnUse">
<stop stop-color="#FBDBAD"/>
<stop offset="0.5" stop-color="#D8FDF4"/>
<stop offset="0.77" stop-color="#EDF2FF"/>
<stop offset="1" stop-color="#EDF2FF"/>
</linearGradient>
<linearGradient id="paint1_linear_22414_1774" x1="335.587" y1="116.607" x2="305.347" y2="580.127" gradientUnits="userSpaceOnUse">
<stop stop-color="#FBDBAD"/>
<stop offset="0.5" stop-color="#D8FDF4"/>
<stop offset="0.77" stop-color="#EDF2FF"/>
<stop offset="1" stop-color="#EDF2FF"/>
</linearGradient>
<linearGradient id="paint2_linear_22414_1774" x1="175.587" y1="116.607" x2="145.347" y2="580.127" gradientUnits="userSpaceOnUse">
<stop stop-color="#FBDBAD"/>
<stop offset="0.5" stop-color="#D8FDF4"/>
<stop offset="0.77" stop-color="#EDF2FF"/>
<stop offset="1" stop-color="#EDF2FF"/>
</linearGradient>
<linearGradient id="paint3_linear_22414_1774" x1="156.317" y1="376.067" x2="619.837" y2="406.307" gradientUnits="userSpaceOnUse">
<stop stop-color="#FFF7EF"/>
<stop offset="0.5" stop-color="#FFF0E1"/>
<stop offset="0.77" stop-color="#FFE4C8"/>
<stop offset="1" stop-color="#FFEFD9"/>
</linearGradient>
<linearGradient id="paint4_linear_22414_1774" x1="161.577" y1="295.367" x2="625.107" y2="325.607" gradientUnits="userSpaceOnUse">
<stop stop-color="#FFF7EF"/>
<stop offset="0.5" stop-color="#FFF0E1"/>
<stop offset="0.77" stop-color="#FFE4C8"/>
<stop offset="1" stop-color="#FFEFD9"/>
</linearGradient>
<linearGradient id="paint5_linear_22414_1774" x1="155.407" y1="389.917" x2="618.937" y2="420.157" gradientUnits="userSpaceOnUse">
<stop stop-color="#FFF7EF"/>
<stop offset="0.5" stop-color="#FFF0E1"/>
<stop offset="0.77" stop-color="#FFE4C8"/>
<stop offset="1" stop-color="#FFEFD9"/>
</linearGradient>
<linearGradient id="paint6_linear_22414_1774" x1="154.437" y1="404.807" x2="617.967" y2="435.057" gradientUnits="userSpaceOnUse">
<stop stop-color="#FFF7EF"/>
<stop offset="0.5" stop-color="#FFF0E1"/>
<stop offset="0.77" stop-color="#FFE4C8"/>
<stop offset="1" stop-color="#FFEFD9"/>
</linearGradient>
<linearGradient id="paint7_linear_22414_1774" x1="157.687" y1="354.937" x2="621.217" y2="385.177" gradientUnits="userSpaceOnUse">
<stop stop-color="#FFF7EF"/>
<stop offset="0.5" stop-color="#FFF0E1"/>
<stop offset="0.77" stop-color="#FFE4C8"/>
<stop offset="1" stop-color="#FFEFD9"/>
</linearGradient>
<linearGradient id="paint8_linear_22414_1774" x1="155.997" y1="380.867" x2="619.527" y2="411.107" gradientUnits="userSpaceOnUse">
<stop stop-color="#FFF7EF"/>
<stop offset="0.5" stop-color="#FFF0E1"/>
<stop offset="0.77" stop-color="#FFE4C8"/>
<stop offset="1" stop-color="#FFEFD9"/>
</linearGradient>
<linearGradient id="paint9_linear_22414_1774" x1="160.737" y1="308.177" x2="624.267" y2="338.417" gradientUnits="userSpaceOnUse">
<stop stop-color="#FFF7EF"/>
<stop offset="0.5" stop-color="#FFF0E1"/>
<stop offset="0.77" stop-color="#FFE4C8"/>
<stop offset="1" stop-color="#FFEFD9"/>
</linearGradient>
<linearGradient id="paint10_linear_22414_1774" x1="159.117" y1="333.117" x2="622.637" y2="363.357" gradientUnits="userSpaceOnUse">
<stop stop-color="#FFF7EF"/>
<stop offset="0.5" stop-color="#FFF0E1"/>
<stop offset="0.77" stop-color="#FFE4C8"/>
<stop offset="1" stop-color="#FFEFD9"/>
</linearGradient>
<linearGradient id="paint11_linear_22414_1774" x1="157.487" y1="358.047" x2="621.017" y2="388.297" gradientUnits="userSpaceOnUse">
<stop stop-color="#FFF7EF"/>
<stop offset="0.5" stop-color="#FFF0E1"/>
<stop offset="0.77" stop-color="#FFE4C8"/>
<stop offset="1" stop-color="#FFEFD9"/>
</linearGradient>
<linearGradient id="paint12_linear_22414_1774" x1="484.937" y1="380.867" x2="21.4067" y2="411.107" gradientUnits="userSpaceOnUse">
<stop stop-color="#FFF7EF"/>
<stop offset="0.5" stop-color="#FFF0E1"/>
<stop offset="0.77" stop-color="#FFE4C8"/>
<stop offset="1" stop-color="#FFEFD9"/>
</linearGradient>
<linearGradient id="paint13_linear_22414_1774" x1="484.617" y1="376.067" x2="21.0967" y2="406.307" gradientUnits="userSpaceOnUse">
<stop stop-color="#FFF7EF"/>
<stop offset="0.5" stop-color="#FFF0E1"/>
<stop offset="0.77" stop-color="#FFE4C8"/>
<stop offset="1" stop-color="#FFEFD9"/>
</linearGradient>
<linearGradient id="paint14_linear_22414_1774" x1="480.197" y1="308.177" x2="16.6667" y2="338.417" gradientUnits="userSpaceOnUse">
<stop stop-color="#FFF7EF"/>
<stop offset="0.5" stop-color="#FFF0E1"/>
<stop offset="0.77" stop-color="#FFE4C8"/>
<stop offset="1" stop-color="#FFEFD9"/>
</linearGradient>
<linearGradient id="paint15_linear_22414_1774" x1="483.447" y1="358.047" x2="19.9167" y2="388.297" gradientUnits="userSpaceOnUse">
<stop stop-color="#FFF7EF"/>
<stop offset="0.5" stop-color="#FFF0E1"/>
<stop offset="0.77" stop-color="#FFE4C8"/>
<stop offset="1" stop-color="#FFEFD9"/>
</linearGradient>
<linearGradient id="paint16_linear_22414_1774" x1="481.817" y1="333.117" x2="18.2967" y2="363.357" gradientUnits="userSpaceOnUse">
<stop stop-color="#FFF7EF"/>
<stop offset="0.5" stop-color="#FFF0E1"/>
<stop offset="0.77" stop-color="#FFE4C8"/>
<stop offset="1" stop-color="#FFEFD9"/>
</linearGradient>
<linearGradient id="paint17_linear_22414_1774" x1="483.247" y1="354.937" x2="19.7167" y2="385.177" gradientUnits="userSpaceOnUse">
<stop stop-color="#FFF7EF"/>
<stop offset="0.5" stop-color="#FFF0E1"/>
<stop offset="0.77" stop-color="#FFE4C8"/>
<stop offset="1" stop-color="#FFEFD9"/>
</linearGradient>
<linearGradient id="paint18_linear_22414_1774" x1="317.517" y1="469.927" x2="347.757" y2="6.39669" gradientUnits="userSpaceOnUse">
<stop stop-color="#FBDBAD"/>
<stop offset="0.5" stop-color="white"/>
<stop offset="0.77" stop-color="#FFD3AB" stop-opacity="0.94"/>
<stop offset="1" stop-color="#FFEFD9"/>
</linearGradient>
<linearGradient id="paint19_linear_22414_1774" x1="282.537" y1="467.647" x2="312.777" y2="4.11669" gradientUnits="userSpaceOnUse">
<stop stop-color="#FBDBAD"/>
<stop offset="0.5" stop-color="white"/>
<stop offset="0.77" stop-color="#FFD3AB" stop-opacity="0.94"/>
<stop offset="1" stop-color="#FFEFD9"/>
</linearGradient>
<linearGradient id="paint20_linear_22414_1774" x1="235.777" y1="464.597" x2="266.017" y2="1.06671" gradientUnits="userSpaceOnUse">
<stop stop-color="#FBDBAD"/>
<stop offset="0.5" stop-color="white"/>
<stop offset="0.77" stop-color="#FFD3AB" stop-opacity="0.94"/>
<stop offset="1" stop-color="#FFEFD9"/>
</linearGradient>
<linearGradient id="paint21_linear_22414_1774" x1="269.197" y1="466.777" x2="299.447" y2="3.24669" gradientUnits="userSpaceOnUse">
<stop stop-color="#FBDBAD"/>
<stop offset="0.5" stop-color="white"/>
<stop offset="0.77" stop-color="#FFD3AB" stop-opacity="0.94"/>
<stop offset="1" stop-color="#FFEFD9"/>
</linearGradient>
<linearGradient id="paint22_linear_22414_1774" x1="332.407" y1="470.897" x2="362.657" y2="7.36669" gradientUnits="userSpaceOnUse">
<stop stop-color="#FBDBAD"/>
<stop offset="0.5" stop-color="white"/>
<stop offset="0.77" stop-color="#FFD3AB" stop-opacity="0.94"/>
<stop offset="1" stop-color="#FFEFD9"/>
</linearGradient>
<linearGradient id="paint23_linear_22414_1774" x1="308.467" y1="469.337" x2="338.707" y2="5.80671" gradientUnits="userSpaceOnUse">
<stop stop-color="#FBDBAD"/>
<stop offset="0.5" stop-color="white"/>
<stop offset="0.77" stop-color="#FFD3AB" stop-opacity="0.94"/>
<stop offset="1" stop-color="#FFEFD9"/>
</linearGradient>
<linearGradient id="paint24_linear_22414_1774" x1="222.967" y1="463.757" x2="253.207" y2="0.226709" gradientUnits="userSpaceOnUse">
<stop stop-color="#FBDBAD"/>
<stop offset="0.5" stop-color="white"/>
<stop offset="0.77" stop-color="#FFD3AB" stop-opacity="0.94"/>
<stop offset="1" stop-color="#FFEFD9"/>
</linearGradient>
<clipPath id="clip0_22414_1774">
<rect width="640" height="705" fill="white" transform="translate(0.466675 0.866699)"/>
</clipPath>
</defs>
</svg>
