<svg width="294" height="256" viewBox="0 0 294 256" fill="none" xmlns="http://www.w3.org/2000/svg">
<g clip-path="url(#clip0_22493_25453)">
<path d="M172.57 106V26H200.08L252.57 78.48V106H172.57Z" fill="#FFA900"/>
<path d="M197.57 32L246.57 81V100H178.57V32H197.57ZM202.57 20H166.57V112H258.57V76L202.57 20Z" fill="black"/>
<path d="M118.57 160H30.5698V244H118.57V160Z" fill="#FFA900"/>
<path d="M130.95 102.4H78.0699C71.3113 102.368 64.8419 99.6534 60.0844 94.8528C55.3269 90.0521 52.6707 83.5585 52.6999 76.7999V34.1299H75.2499V73.9999C75.246 74.7435 75.3889 75.4806 75.6704 76.1689C75.952 76.8573 76.3666 77.4832 76.8906 78.0109C77.4146 78.5386 78.0376 78.9577 78.7239 79.2441C79.4102 79.5305 80.1463 79.6786 80.8899 79.6799H97.7899V34.1299H120.34V90.9999L132.21 96.9999C132.784 97.2862 133.244 97.7575 133.517 98.3377C133.789 98.918 133.858 99.5732 133.713 100.198C133.567 100.822 133.215 101.379 132.714 101.778C132.212 102.178 131.591 102.397 130.95 102.4Z" fill="black"/>
<path d="M233.78 163.44C230.666 160.314 226.964 157.836 222.888 156.147C218.812 154.458 214.442 153.592 210.03 153.6H176.44V235.6C176.44 235.982 176.55 236.356 176.756 236.678C176.962 237 177.256 237.256 177.603 237.416C177.95 237.576 178.336 237.633 178.715 237.581C179.094 237.528 179.449 237.368 179.74 237.12L194.57 220.79H209.3C228.19 220.79 244.03 205.33 243.61 186.44C243.435 177.789 239.911 169.544 233.78 163.44ZM217.95 195.12C215.848 197.216 212.999 198.393 210.03 198.39H198.83V176H210.03C212.245 176 214.411 176.656 216.253 177.887C218.095 179.118 219.53 180.867 220.378 182.913C221.226 184.96 221.448 187.212 221.016 189.385C220.583 191.558 219.516 193.553 217.95 195.12Z" fill="black"/>
<path d="M142.57 12V124H30.5698V36C30.5698 29.6348 33.0984 23.5303 37.5993 19.0294C42.1001 14.5286 48.2046 12 54.5698 12H142.57ZM154.57 0H54.5698C45.022 0 35.8653 3.79285 29.114 10.5442C22.3627 17.2955 18.5698 26.4522 18.5698 36V136H154.57V0Z" fill="black"/>
<path d="M214.57 62.92V0H202.57V76H274.57V63.46L214.57 62.92Z" fill="black"/>
<path d="M118.57 160V244H30.5698V160H118.57ZM130.57 148H18.5698V256H130.57V148Z" fill="black"/>
<path d="M262.57 136V220C262.57 226.365 260.041 232.47 255.54 236.971C251.04 241.471 244.935 244 238.57 244H154.57V136H262.57ZM274.57 124H142.57V256H238.57C248.118 256 257.274 252.207 264.026 245.456C270.777 238.705 274.57 229.548 274.57 220V124Z" fill="black"/>
<path d="M54.5698 220V244H26.5698V220H54.5698ZM62.5698 212H18.5698V252H62.5698V212Z" fill="black"/>
<path d="M82.5698 192V248H26.5698V192H82.5698ZM90.5698 184H18.5698V256H90.5698V184Z" fill="black"/>
<path d="M214.57 40L238.57 64H214.57V40Z" fill="black"/>
<path d="M8.48186 111.999L-0.00341797 120.484L24.4554 144.943L32.9407 136.458L8.48186 111.999Z" fill="black"/>
<path d="M49.1991 120.429L40.7139 111.943L16.0641 136.593L24.5494 145.078L49.1991 120.429Z" fill="black"/>
<path d="M284.87 149.073L293.355 140.588L268.897 116.129L260.411 124.614L284.87 149.073Z" fill="black"/>
<path d="M244.147 140.644L252.632 149.129L277.282 124.479L268.796 115.994L244.147 140.644Z" fill="black"/>
</g>
<defs>
<clipPath id="clip0_22493_25453">
<rect width="293.36" height="256" fill="white"/>
</clipPath>
</defs>
</svg>
