<?xml version="1.0"?>
<svg width="85" height="105" xmlns="http://www.w3.org/2000/svg" xmlns:svg="http://www.w3.org/2000/svg">
 <!-- Created with SVG-edit - https://github.com/SVG-Edit/svgedit-->
 <g class="layer">
  <title>Layer 1</title>
  <path d="m-490,-677.5l2843,0l0,-2l-2843,0l0,2zm2844,1l0,2245l2,0l0,-2245l-2,0zm-1,2246l-2843,0l0,2l2843,0l0,-2zm-2844,-1l0,-2245l-2,0l0,2245l2,0zm1,1c-0.55,0 -1,-0.45 -1,-1l-2,0c0,1.66 1.34,3 3,3l0,-2zm2844,-1c0,0.55 -0.45,1 -1,1l0,2c1.66,0 3,-1.34 3,-3l-2,0zm-1,-2246c0.55,0 1,0.45 1,1l2,0c0,-1.66 -1.34,-3 -3,-3l0,2zm-2843,-2c-1.66,0 -3,1.34 -3,3l2,0c0,-0.55 0.45,-1 1,-1l0,-2z" fill="black" fill-opacity="0.1" id="svg_4"/>
  <path d="m0,10.08c5.66,-0.16 11.31,-1.53 16.51,-4.13c15.83,-7.94 34.46,-7.94 50.29,0c11.03,5.5 24,5.5 35.03,0c8.22,-4.12 17.21,-6.09 26.17,-5.94l0,17.06c-6.34,-0.16 -12.72,1.22 -18.54,4.13c-15.83,7.91 -34.46,7.91 -50.29,0c-11.03,-5.5 -24,-5.5 -35.03,0c-7.61,3.81 -15.86,5.78 -24.14,5.94l0,-17.06z" fill="#e9edf4" id="svg_3" opacity="0.45" transform="matrix(1 0 0 1 0 0)"/>
  <path d="m0,45.08c5.66,-0.19 11.31,-1.5 16.5,-4.13c15.84,-7.94 34.47,-7.94 50.31,0c11.03,5.5 24,5.5 35.03,0c8.22,-4.13 17.19,-6.06 26.16,-5.94l0,17.06c-6.34,-0.19 -12.72,1.25 -18.53,4.13c-15.84,7.94 -34.47,7.94 -50.31,0c-11.03,-5.5 -24,-5.5 -35.03,0c-7.59,3.81 -15.84,5.81 -24.13,5.94l0,-17.06z" fill="#e9edf4" id="svg_2" opacity="0.45" transform="matrix(1 0 0 1 0 0)"/>
  <path d="m16.51,75.93c-5.2,2.61 -10.85,3.98 -16.51,4.12l0,17.07c8.28,-0.15 16.53,-2.12 24.14,-5.92c11.03,-5.52 24,-5.52 35.03,0c15.83,7.91 34.46,7.91 50.29,0c5.82,-2.92 12.2,-4.29 18.54,-4.12l0,-17.07c-8.96,-0.16 -17.95,1.81 -26.17,5.92c-11.03,5.52 -24,5.52 -35.03,0c-15.83,-7.91 -34.46,-7.91 -50.29,0z" fill="#e9edf4" id="svg_1" opacity="0.45"/>
  <line fill="none" id="svg_6" opacity="0" stroke="#ff0000" x1="0" x2="127.86" y1="10.08" y2="10.08"/>
 </g>
</svg>