<svg width="2927" height="2329" viewBox="0 0 2927 2329" fill="none" xmlns="http://www.w3.org/2000/svg">
<path d="M40 42C40 40.8955 40.8954 40 42 40H2885C2886.1 40 2887 40.8954 2887 42V2287C2887 2288.1 2886.1 2289 2885 2289H42C40.8954 2289 40 2288.1 40 2287V42Z" fill="white"/>
<path d="M42 41H2885V39H42V41ZM2886 42V2287H2888V42H2886ZM2885 2288H42V2290H2885V2288ZM41 2287V42H39V2287H41ZM42 2288C41.4477 2288 41 2287.55 41 2287H39C39 2288.66 40.3432 2290 42 2290V2288ZM2886 2287C2886 2287.55 2885.55 2288 2885 2288V2290C2886.66 2290 2888 2288.66 2888 2287H2886ZM2885 41C2885.55 41 2886 41.4477 2886 42H2888C2888 40.3431 2886.66 39 2885 39V41ZM42 39C40.3431 39 39 40.3432 39 42H41C41 41.4477 41.4477 41 42 41V39Z" fill="black" fill-opacity="0.1"/>
<path d="M552.38 565.938L579.899 524.5L586.024 565.938H613.019L619.144 524.5L646.62 565.935L634.142 589.488L655.5 603.448L645.098 652.5L628.286 622.197L570.712 622.198L553.9 652.5L543.5 603.449L564.866 589.482L552.38 565.938Z" fill="#2C2C2C"/>
<path fill-rule="evenodd" clip-rule="evenodd" d="M815.978 571.603C821.392 573.976 827.938 572.947 832.37 568.515C838.142 562.742 838.142 553.383 832.37 547.61C826.597 541.837 817.237 541.837 811.464 547.61C807.033 552.042 806.003 558.588 808.376 564.002L800.774 571.603L793.173 564.001L785.571 571.603L793.173 579.205L745.923 626.455C740.995 619.919 738.274 611.939 738.246 603.697C738.211 593.679 742.157 584.096 749.205 577.048L758.381 567.872L727.388 567.872L727.388 578.622L734.423 578.622C729.897 586.13 727.464 594.803 727.495 603.734C727.539 616.603 732.693 628.953 741.813 638.073C750.933 647.193 763.282 652.346 776.151 652.391C785.082 652.421 793.756 649.989 801.263 645.463V652.497L812.014 652.497L812.014 621.504L802.838 630.681C795.79 637.729 786.206 641.674 776.188 641.64C767.992 641.612 760.053 638.92 753.538 634.043L800.774 586.807L808.376 594.409L815.978 586.807L808.376 579.205L815.978 571.603ZM826.713 562.858C824.064 565.507 819.77 565.507 817.121 562.858C814.473 560.21 814.473 555.915 817.121 553.267C819.77 550.618 824.064 550.618 826.713 553.267C829.361 555.915 829.361 560.21 826.713 562.858Z" fill="#2C2C2C"/>
<path d="M983.5 524.5L985.232 547.256C986.839 568.377 1003.62 585.161 1024.74 586.768L1047.5 588.5L1024.74 590.232C1003.62 591.839 986.839 608.623 985.232 629.744L983.5 652.5L981.768 629.744C980.161 608.623 963.377 591.839 942.256 590.232L919.5 588.5L942.256 586.768C963.377 585.161 980.161 568.377 981.768 547.256L983.5 524.5Z" fill="#2C2C2C"/>
<path d="M1210.24 589.477H1187.18L1177.18 611.372L1196.13 652.214H1239.5L1210.24 589.477Z" fill="#2C2C2C"/>
<path d="M1189.82 577.056L1154.87 652.319H1111.5L1146.66 577.056H1189.82Z" fill="#2C2C2C"/>
<path d="M1375.41 581.373L1381.86 567.243H1395.46L1416.68 612.736H1389.96L1375.41 581.373Z" stroke="#2C2C2C" stroke-width="11.4425"/>
<path d="M1345.05 555.971H1371.61L1345.21 612.832H1318.49L1345.05 555.971Z" stroke="#2C2C2C" stroke-width="11.4425"/>
<path d="M1315.73 626.796L1322.2 613.842L1411.12 614.431L1417 626.796H1315.73Z" fill="#2C2C2C"/>
<path d="M1623.5 652.5H1559.5V588.5H1623.5V652.5Z" fill="#8C8C8C"/>
<path d="M1559.5 652.5H1495.5V588.5H1559.5V652.5Z" fill="#111111"/>
<path d="M1559.5 588.5H1495.5V524.5H1559.5V588.5Z" fill="#E3E3E3"/>
<path d="M1687.5 572.5C1702.05 572.5 1716 577.557 1726.29 586.559C1736.58 595.561 1742.36 607.77 1742.36 620.5L1760.64 620.5C1760.64 607.77 1766.42 595.561 1776.71 586.559C1787 577.557 1800.95 572.5 1815.5 572.5V556.5C1796.1 556.5 1777.5 563.243 1763.78 575.245C1758.9 579.515 1754.78 584.325 1751.5 589.516C1748.22 584.325 1744.1 579.515 1739.22 575.245C1725.5 563.243 1706.9 556.5 1687.5 556.5V572.5Z" fill="#2C2C2C"/>
<path d="M535.5 731.477C541.165 731.332 546.808 729.96 552.013 727.357C567.84 719.442 586.473 719.442 602.3 727.357C613.325 732.87 626.303 732.87 637.325 727.357C645.555 723.242 654.543 721.267 663.5 721.432V738.5C657.158 738.332 650.785 739.705 644.955 742.62C629.128 750.535 610.495 750.535 594.668 742.62C583.643 737.107 570.668 737.107 559.643 742.62C552.035 746.425 543.78 748.395 535.5 748.54V731.477Z" fill="#2C2C2C"/>
<path d="M535.5 773.477C541.165 773.332 546.808 771.96 552.013 769.357C567.84 761.442 586.473 761.442 602.3 769.357C613.325 774.87 626.303 774.87 637.325 769.357C645.555 765.242 654.543 763.267 663.5 763.432V780.5C657.158 780.332 650.785 781.705 644.955 784.62C629.128 792.535 610.495 792.535 594.668 784.62C583.643 779.107 570.668 779.107 559.643 784.62C552.035 788.425 543.78 790.395 535.5 790.54V773.477Z" fill="#2C2C2C"/>
<path d="M552.013 810.425C546.808 813.027 541.165 814.4 535.5 814.545V831.607C543.78 831.462 552.035 829.492 559.643 825.687C570.668 820.175 583.643 820.175 594.668 825.687C610.495 833.602 629.128 833.602 644.955 825.687C650.785 822.772 657.158 821.4 663.5 821.567V804.5C654.543 804.335 645.555 806.31 637.325 810.425C626.303 815.937 613.325 815.937 602.3 810.425C586.473 802.51 567.84 802.51 552.013 810.425Z" fill="#2C2C2C"/>
<g clip-path="url(#clip0_9536_3142)">
<path d="M855.5 744.072C849.835 743.927 844.192 742.555 838.987 739.952C823.16 732.037 804.527 732.037 788.7 739.952C777.675 745.465 764.697 745.465 753.675 739.952C745.445 735.837 736.457 733.862 727.5 734.027V751.095C733.842 750.927 740.215 752.3 746.045 755.215C761.872 763.13 780.505 763.13 796.332 755.215C807.357 749.702 820.332 749.702 831.357 755.215C838.965 759.02 847.22 760.99 855.5 761.135V744.072Z" fill="black"/>
<path d="M855.5 779.205C849.835 779.06 844.192 777.687 838.987 775.085C823.16 767.17 804.527 767.17 788.7 775.085C777.675 780.597 764.697 780.597 753.675 775.085C745.445 770.97 736.457 768.995 727.5 769.16V786.227C733.842 786.06 740.215 787.432 746.045 790.347C761.872 798.262 780.505 798.262 796.332 790.347C807.357 784.835 820.332 784.835 831.357 790.347C838.965 794.152 847.22 796.122 855.5 796.267V779.205Z" fill="black"/>
<path d="M838.987 810.217C844.192 812.82 849.835 814.192 855.5 814.337V831.4C847.22 831.255 838.965 829.285 831.357 825.48C820.332 819.967 807.357 819.967 796.332 825.48C780.505 833.395 761.872 833.395 746.045 825.48C740.215 822.565 733.842 821.192 727.5 821.36V804.292C736.457 804.127 745.445 806.102 753.675 810.217C764.697 815.73 777.675 815.73 788.7 810.217C804.527 802.302 823.16 802.302 838.987 810.217Z" fill="black"/>
</g>
<path d="M919.5 838.317L948.375 809.75L983.5 844.5L1018.62 809.75L1047.5 838.317V815.81L1018.62 787.243L983.5 821.993L948.375 787.243L919.5 815.81V838.317Z" fill="#2C2C2C"/>
<path d="M919.5 767.574L948.375 739.503L983.5 773.757L1018.62 739.007L1047.5 767.574V745.067L1018.62 716.5L983.5 751.25L948.375 716.997L919.5 745.067V767.574Z" fill="#2C2C2C"/>
<path d="M949.824 761.73L948.375 760.297L946.925 761.73L947.629 762.441L948.375 761.703L949.121 762.441L949.824 761.73Z" fill="#2C2C2C"/>
<path d="M1020.07 761.73L1018.62 760.297L1017.18 761.73L1017.88 762.441L1018.62 761.703L1019.37 762.441L1020.07 761.73Z" fill="#2C2C2C"/>
<path d="M1013.49 766.785L1015.68 764.613L1014.98 763.902L1012.78 766.074L1013.49 766.785Z" fill="#2C2C2C"/>
<path d="M1021.57 764.613L1023.76 766.785L1024.46 766.074L1022.27 763.902L1021.57 764.613Z" fill="#2C2C2C"/>
<path d="M951.316 764.613L953.511 766.785L954.215 766.074L952.019 763.902L951.316 764.613Z" fill="#2C2C2C"/>
<path d="M943.238 766.785L945.433 764.613L944.73 763.902L942.535 766.074L943.238 766.785Z" fill="#2C2C2C"/>
<path d="M955.707 768.957L957.902 771.129L958.605 770.418L956.41 768.246L955.707 768.957Z" fill="#2C2C2C"/>
<path d="M1009.1 771.129L1011.29 768.957L1010.59 768.246L1008.39 770.418L1009.1 771.129Z" fill="#2C2C2C"/>
<path d="M1025.96 768.957L1028.15 771.129L1028.86 770.418L1026.66 768.246L1025.96 768.957Z" fill="#2C2C2C"/>
<path d="M938.847 771.129L941.043 768.957L940.339 768.246L938.144 770.418L938.847 771.129Z" fill="#2C2C2C"/>
<path d="M934.457 775.473L936.652 773.301L935.949 772.59L933.754 774.762L934.457 775.473Z" fill="#2C2C2C"/>
<path d="M960.097 773.301L962.293 775.473L962.996 774.762L960.801 772.59L960.097 773.301Z" fill="#2C2C2C"/>
<path d="M1004.71 775.473L1006.9 773.301L1006.2 772.59L1004 774.762L1004.71 775.473Z" fill="#2C2C2C"/>
<path d="M1030.35 773.301L1032.54 775.473L1033.25 774.762L1031.05 772.59L1030.35 773.301Z" fill="#2C2C2C"/>
<path d="M964.488 777.644L966.683 779.816L967.387 779.105L965.191 776.934L964.488 777.644Z" fill="#2C2C2C"/>
<path d="M1034.74 777.644L1036.93 779.816L1037.64 779.105L1035.44 776.934L1034.74 777.644Z" fill="#2C2C2C"/>
<path d="M1000.32 779.816L1002.51 777.644L1001.81 776.934L999.613 779.105L1000.32 779.816Z" fill="#2C2C2C"/>
<path d="M930.066 779.816L932.262 777.644L931.558 776.934L929.363 779.105L930.066 779.816Z" fill="#2C2C2C"/>
<path d="M968.879 781.988L971.074 784.16L971.777 783.449L969.582 781.277L968.879 781.988Z" fill="#2C2C2C"/>
<path d="M1039.13 781.988L1041.32 784.16L1042.03 783.449L1039.83 781.277L1039.13 781.988Z" fill="#2C2C2C"/>
<path d="M995.926 784.16L998.121 781.988L997.418 781.277L995.222 783.449L995.926 784.16Z" fill="#2C2C2C"/>
<path d="M925.676 784.16L927.871 781.988L927.168 781.277L924.972 783.449L925.676 784.16Z" fill="#2C2C2C"/>
<path d="M973.269 786.332L975.464 788.504L976.168 787.793L973.972 785.621L973.269 786.332Z" fill="#2C2C2C"/>
<path d="M1043.52 786.332L1045.71 788.504L1046.42 787.793L1044.22 785.621L1043.52 786.332Z" fill="#2C2C2C"/>
<path d="M921.285 788.504L923.48 786.332L922.777 785.621L920.582 787.793L921.285 788.504Z" fill="#2C2C2C"/>
<path d="M991.535 788.504L993.73 786.332L993.027 785.621L990.832 787.793L991.535 788.504Z" fill="#2C2C2C"/>
<path d="M977.66 790.676L979.855 792.848L980.558 792.137L978.363 789.965L977.66 790.676Z" fill="#2C2C2C"/>
<path d="M987.144 792.848L989.34 790.676L988.636 789.965L986.441 792.137L987.144 792.848Z" fill="#2C2C2C"/>
<path d="M982.754 794.309L982.05 795.019L983.5 796.453L984.949 795.019L984.246 794.309L983.5 795.047L982.754 794.309Z" fill="#2C2C2C"/>
<path d="M1143.5 760.131C1131.92 760.127 1120.34 753.686 1111.5 739.651L1111.5 757.451C1120.88 769.064 1132.19 774.088 1143.5 774.091C1154.81 774.088 1166.12 769.064 1175.5 757.451C1184.88 769.064 1196.19 774.088 1207.5 774.091C1218.81 774.088 1230.12 769.064 1239.5 757.451V739.652L1239.5 739.651C1230.66 753.686 1219.08 760.127 1207.5 760.131C1195.92 760.127 1184.34 753.686 1175.5 739.651C1166.66 753.686 1155.08 760.127 1143.5 760.131Z" fill="#2C2C2C"/>
<path d="M1111.5 774.091L1111.5 785.611C1133.13 800.994 1153.87 801.744 1175.5 786.361C1197.13 801.744 1217.87 800.994 1239.5 785.611L1239.5 774.091L1239.5 774.091C1219.5 792.349 1195.5 791.349 1175.5 773.091C1155.5 791.349 1131.5 792.349 1111.5 774.091Z" fill="#2C2C2C"/>
<path d="M1143.5 821.349C1132.91 821.349 1122.31 819.121 1111.5 811.429L1111.5 797.149L1111.5 797.148C1122.54 804.829 1132.5 807.709 1143.5 807.709C1154.5 807.709 1164.46 804.829 1175.5 797.148C1186.54 804.829 1196.5 807.709 1207.5 807.709C1218.5 807.709 1228.46 804.829 1239.5 797.148L1239.5 797.149L1239.5 811.429C1228.69 819.121 1218.09 821.349 1207.5 821.349C1196.91 821.349 1186.31 819.121 1175.5 811.429C1164.69 819.121 1154.09 821.349 1143.5 821.349Z" fill="#2C2C2C"/>
<path d="M1367.5 760.295C1353.5 760.259 1339.49 764.486 1327.51 772.976L1315.66 781.374C1312.03 783.944 1307.76 785.212 1303.5 785.151V798.916C1310.54 798.976 1317.58 796.863 1323.57 792.619L1335.42 784.221C1345.03 777.41 1356.27 774.023 1367.5 774.06C1378.73 774.023 1389.96 777.41 1399.58 784.221L1411.43 792.619C1417.42 796.863 1424.46 798.976 1431.5 798.916V785.151C1427.24 785.212 1422.97 783.944 1419.34 781.374L1407.49 772.976C1395.5 764.486 1381.5 760.259 1367.5 760.295Z" fill="#2C2C2C"/>
<path d="M1367.5 736.426C1388.69 736.426 1409.87 741.723 1431.5 757.223L1431.5 771.248L1431.5 771.25C1409.42 755.772 1389.5 749.485 1367.5 749.485C1345.5 749.485 1325.58 755.772 1303.5 771.25L1303.5 771.248L1303.5 757.223C1325.13 741.723 1346.31 736.426 1367.5 736.426Z" fill="#2C2C2C"/>
<path d="M1303.5 813.279V824.573C1320.11 824.573 1330.46 818.241 1338.32 811.784C1346.5 805.069 1352.15 798.22 1367.5 798.22C1382.85 798.22 1388.5 805.069 1396.68 811.784C1404.54 818.241 1414.89 824.573 1431.5 824.573V813.279C1419.03 813.279 1413.04 809.713 1406.56 805.204C1395.42 797.456 1386.54 786.926 1367.5 786.926C1348.46 786.926 1339.57 797.456 1328.44 805.204C1321.96 809.713 1315.96 813.279 1303.5 813.279Z" fill="#2C2C2C"/>
<path d="M663.5 908.5H535.5V930.46C541.843 930.293 548.215 931.665 554.045 934.58C569.873 942.495 588.505 942.495 604.332 934.58C615.357 929.068 628.332 929.068 639.357 934.58C646.965 938.385 655.22 940.355 663.5 940.5L663.5 908.5Z" fill="#2C2C2C"/>
<path d="M663.5 965.438C657.835 965.292 652.193 963.92 646.988 961.317C631.16 953.402 612.528 953.402 596.7 961.317C585.675 966.83 572.697 966.83 561.675 961.317C553.445 957.202 544.458 955.228 535.5 955.392V972.46C541.843 972.293 548.215 973.665 554.045 976.58C569.873 984.495 588.505 984.495 604.332 976.58C615.357 971.068 628.332 971.068 639.357 976.58C646.965 980.385 655.22 982.355 663.5 982.5V965.438Z" fill="#2C2C2C"/>
<path d="M663.5 1006.54C657.835 1006.4 652.193 1005.03 646.988 1002.42C631.16 994.51 612.528 994.51 596.7 1002.42C585.675 1007.94 572.697 1007.94 561.675 1002.42C553.445 998.31 544.458 996.335 535.5 996.5V1013.57C541.843 1013.4 548.215 1014.77 554.045 1017.69C569.873 1025.6 588.505 1025.6 604.332 1017.69C615.357 1012.18 628.332 1012.18 639.357 1017.69C646.965 1021.49 655.22 1023.46 663.5 1023.61V1006.54Z" fill="#2C2C2C"/>
<path d="M855.5 908.5H727.5V943.095C733.843 942.928 740.215 944.3 746.045 947.215C761.873 955.13 780.505 955.13 796.332 947.215C807.357 941.703 820.332 941.703 831.357 947.215C838.965 951.02 847.22 952.99 855.5 953.135V908.5Z" fill="#2C2C2C"/>
<path d="M855.5 971.205C849.835 971.06 844.193 969.688 838.988 967.085C823.16 959.17 804.528 959.17 788.7 967.085C777.675 972.598 764.697 972.598 753.675 967.085C745.445 962.97 736.458 960.995 727.5 961.16V978.228C733.843 978.06 740.215 979.433 746.045 982.348C761.873 990.263 780.505 990.263 796.332 982.348C807.357 976.835 820.332 976.835 831.357 982.348C838.965 986.153 847.22 988.123 855.5 988.268V971.205Z" fill="#2C2C2C"/>
<path d="M855.5 1006.34C849.835 1006.19 844.193 1004.82 838.988 1002.22C823.16 994.302 804.528 994.302 788.7 1002.22C777.675 1007.73 764.697 1007.73 753.675 1002.22C745.445 998.103 736.458 996.128 727.5 996.293V1013.36C733.843 1013.19 740.215 1014.57 746.045 1017.48C761.873 1025.4 780.505 1025.4 796.332 1017.48C807.357 1011.97 820.332 1011.97 831.357 1017.48C838.965 1021.29 847.22 1023.26 855.5 1023.4V1006.34Z" fill="#2C2C2C"/>
<path d="M535.5 1100.5V1106.54L541.54 1100.5H535.5Z" fill="#1C1C1C"/>
<path d="M535.5 1174.04L609.04 1100.5H587.82L535.5 1152.82V1174.04Z" fill="#1C1C1C"/>
<path d="M648.26 1228.5L663.5 1213.26V1228.5H648.26Z" fill="#1C1C1C"/>
<path d="M609.04 1228.5L663.5 1174.04V1152.82L587.82 1228.5H609.04Z" fill="#1C1C1C"/>
<path d="M535.5 1213.26L648.24 1100.5H663.5V1106.46L541.46 1228.5H535.5V1213.26Z" fill="#1C1C1C"/>
<path d="M855.5 1155.07L782.075 1228.5H796.217L855.5 1169.22V1155.07Z" fill="#1C1C1C"/>
<path d="M855.5 1213.25L840.253 1228.5H854.395L855.5 1227.4V1213.25Z" fill="#1C1C1C"/>
<path d="M854.393 1100.5L727.5 1227.39V1213.25L840.251 1100.5H854.393Z" fill="#1C1C1C"/>
<path d="M796.217 1100.5L727.5 1169.22V1155.07L782.075 1100.5H796.217Z" fill="#1C1C1C"/>
<path d="M535.5 1295.5L567.5 1304.5L599.5 1295.5L631.5 1304.5L663.5 1295.5V1420.5H535.5V1295.5Z" fill="#2C2C2C"/>
<path d="M631.5 1302.9C620.687 1295.15 610.094 1292.5 599.5 1292.5C588.907 1292.5 578.314 1295.15 567.501 1302.9L567.5 1309.91L567.501 1309.91C578.54 1302.17 588.501 1299.03 599.5 1299.03C610.5 1299.03 620.459 1302.17 631.499 1309.91L631.499 1309.91L631.5 1302.9Z" fill="white"/>
<path fill-rule="evenodd" clip-rule="evenodd" d="M663.5 1292.5C652.907 1292.5 642.314 1295.15 631.501 1302.9L631.5 1309.91L631.501 1309.91C642.54 1302.17 652.501 1299.03 663.5 1299.03V1292.5Z" fill="white"/>
<path fill-rule="evenodd" clip-rule="evenodd" d="M535.5 1292.5C546.093 1292.5 556.686 1295.15 567.499 1302.9L567.5 1309.91L567.499 1309.91C556.46 1302.17 546.499 1299.03 535.5 1299.03V1292.5Z" fill="white"/>
<path fill-rule="evenodd" clip-rule="evenodd" d="M599.5 1304.43C592.501 1304.42 585.498 1306.53 579.506 1310.77L573.579 1314.97C571.765 1316.26 569.632 1316.89 567.5 1316.86V1323.74C571.02 1323.77 574.538 1322.72 577.533 1320.6L583.46 1316.4C588.267 1312.99 593.886 1311.3 599.5 1311.32V1304.43Z" fill="white"/>
<path fill-rule="evenodd" clip-rule="evenodd" d="M599.5 1317.75C589.981 1317.75 585.538 1323.02 579.971 1326.89C576.731 1329.14 573.732 1330.93 567.5 1330.93V1336.57C575.805 1336.57 580.98 1333.41 584.912 1330.18C589.001 1326.82 591.823 1323.4 599.5 1323.4V1317.75Z" fill="white"/>
<path fill-rule="evenodd" clip-rule="evenodd" d="M599.5 1317.75C609.019 1317.75 613.462 1323.02 619.029 1326.89C622.269 1329.14 625.268 1330.93 631.5 1330.93V1336.57C623.195 1336.57 618.02 1333.41 614.088 1330.18C609.999 1326.82 607.177 1323.4 599.5 1323.4V1317.75Z" fill="white"/>
<path fill-rule="evenodd" clip-rule="evenodd" d="M535.5 1317.75C545.019 1317.75 549.462 1323.02 555.029 1326.89C558.269 1329.14 561.268 1330.93 567.5 1330.93V1336.57C559.195 1336.57 554.02 1333.41 550.088 1330.18C545.999 1326.82 543.177 1323.4 535.5 1323.4V1317.75Z" fill="white"/>
<path fill-rule="evenodd" clip-rule="evenodd" d="M663.5 1317.75C653.981 1317.75 649.538 1323.02 643.971 1326.89C640.731 1329.14 637.732 1330.93 631.5 1330.93V1336.57C639.805 1336.57 644.98 1333.41 648.912 1330.18C653.001 1326.82 655.823 1323.4 663.5 1323.4V1317.75Z" fill="white"/>
<path fill-rule="evenodd" clip-rule="evenodd" d="M535.5 1304.43C542.499 1304.42 549.502 1306.53 555.494 1310.77L561.421 1314.97C563.235 1316.26 565.368 1316.89 567.5 1316.86V1323.74C563.98 1323.77 560.462 1322.72 557.467 1320.6L551.54 1316.4C546.733 1312.99 541.114 1311.3 535.5 1311.32V1304.43Z" fill="white"/>
<path fill-rule="evenodd" clip-rule="evenodd" d="M599.5 1304.43C606.499 1304.42 613.502 1306.53 619.494 1310.77L625.421 1314.97C627.235 1316.26 629.368 1316.89 631.5 1316.86V1323.74C627.98 1323.77 624.462 1322.72 621.467 1320.6L615.54 1316.4C610.733 1312.99 605.114 1311.3 599.5 1311.32V1304.43Z" fill="white"/>
<path fill-rule="evenodd" clip-rule="evenodd" d="M663.5 1304.43C656.501 1304.42 649.498 1306.53 643.506 1310.77L637.579 1314.97C635.765 1316.26 633.632 1316.89 631.5 1316.86V1323.74C635.02 1323.77 638.538 1322.72 641.533 1320.6L647.46 1316.4C652.267 1312.99 657.886 1311.3 663.5 1311.32V1304.43Z" fill="white"/>
<g clip-path="url(#clip1_9536_3142)">
<path d="M727.5 1292.5H855.5V1412.75L839.5 1420.62L823.5 1412.75L807.5 1420.62L791.5 1412.75L775.5 1420.62L759.5 1412.75L743.5 1420.62L727.5 1412.75L727.5 1292.5Z" fill="#2C2C2C"/>
<path d="M727.5 1379.88C731.919 1386.89 737.709 1390.11 743.5 1390.11C749.291 1390.11 755.081 1386.89 759.5 1379.88L759.5 1379.88V1388.78C754.808 1394.58 749.154 1397.09 743.5 1397.1C737.846 1397.09 732.192 1394.58 727.5 1388.78L727.5 1379.88Z" fill="white"/>
<path d="M759.5 1379.88C763.919 1386.89 769.709 1390.11 775.5 1390.11C781.291 1390.11 787.081 1386.89 791.5 1379.88L791.5 1379.88V1388.78C786.808 1394.58 781.154 1397.09 775.5 1397.1C769.846 1397.09 764.192 1394.58 759.5 1388.78L759.5 1379.88Z" fill="white"/>
<path d="M791.5 1379.88C795.919 1386.89 801.709 1390.11 807.5 1390.11C813.291 1390.11 819.081 1386.89 823.5 1379.88L823.5 1379.88V1388.78C818.808 1394.58 813.154 1397.09 807.5 1397.1C801.846 1397.09 796.192 1394.58 791.5 1388.78L791.5 1379.88Z" fill="white"/>
<path d="M823.5 1379.88C827.919 1386.89 833.709 1390.11 839.5 1390.11C845.291 1390.11 851.081 1386.89 855.5 1379.88L855.5 1379.88V1388.78C850.808 1394.58 845.154 1397.09 839.5 1397.1C833.846 1397.09 828.192 1394.58 823.5 1388.78L823.5 1379.88Z" fill="white"/>
<path d="M759.5 1402.85L759.5 1397.1L759.5 1397.09C749.499 1406.22 737.501 1406.22 727.5 1397.09L727.5 1402.85C738.313 1410.55 748.687 1410.55 759.5 1402.85Z" fill="white"/>
<path d="M791.5 1402.85L791.5 1397.1L791.5 1397.09C781.499 1406.22 769.501 1406.22 759.5 1397.09L759.5 1402.85C770.313 1410.55 780.687 1410.55 791.5 1402.85Z" fill="white"/>
<path d="M823.5 1402.85L823.5 1397.1L823.5 1397.09C813.499 1406.22 801.501 1406.22 791.5 1397.09L791.5 1402.85C802.313 1410.55 812.687 1410.55 823.5 1402.85Z" fill="white"/>
<path d="M855.5 1402.85L855.5 1397.1L855.5 1397.09C845.499 1406.22 833.501 1406.22 823.5 1397.09L823.5 1402.85C834.313 1410.55 844.687 1410.55 855.5 1402.85Z" fill="white"/>
<path d="M727.5 1415.76C732.907 1419.61 738.203 1420.72 743.5 1420.72C748.796 1420.72 754.093 1419.61 759.5 1415.76L759.5 1408.62L759.5 1408.62C753.98 1412.46 748.999 1413.9 743.5 1413.9C738 1413.9 733.02 1412.46 727.501 1408.62L727.5 1408.62L727.5 1415.76Z" fill="white"/>
<path d="M759.5 1415.76C764.907 1419.61 770.203 1420.72 775.5 1420.72C780.796 1420.72 786.093 1419.61 791.5 1415.76L791.5 1408.62L791.5 1408.62C785.98 1412.46 780.999 1413.9 775.5 1413.9C770 1413.9 765.02 1412.46 759.501 1408.62L759.5 1408.62L759.5 1415.76Z" fill="white"/>
<path d="M791.5 1415.76C796.907 1419.61 802.203 1420.72 807.5 1420.72C812.796 1420.72 818.093 1419.61 823.5 1415.76L823.5 1408.62L823.5 1408.62C817.98 1412.46 812.999 1413.9 807.5 1413.9C802 1413.9 797.02 1412.46 791.501 1408.62L791.5 1408.62L791.5 1415.76Z" fill="white"/>
<path d="M823.5 1415.76C828.907 1419.61 834.203 1420.72 839.5 1420.72C844.796 1420.72 850.093 1419.61 855.5 1415.76L855.5 1408.62L855.5 1408.62C849.98 1412.46 844.999 1413.9 839.5 1413.9C834 1413.9 829.02 1412.46 823.501 1408.62L823.5 1408.62L823.5 1415.76Z" fill="white"/>
</g>
<path d="M663.5 1510.1C606.946 1510.1 561.1 1555.95 561.1 1612.5H535.5C535.5 1541.81 592.808 1484.5 663.5 1484.5V1510.1Z" fill="#2C2C2C"/>
<path d="M663.5 1535.7C621.085 1535.7 586.7 1570.08 586.7 1612.5H612.3C612.3 1584.22 635.223 1561.3 663.5 1561.3V1535.7Z" fill="#2C2C2C"/>
<path fill-rule="evenodd" clip-rule="evenodd" d="M795.382 1544.62C777.379 1526.61 752.961 1516.5 727.5 1516.5V1484.5C761.448 1484.5 794.005 1497.99 818.01 1521.99C842.014 1545.99 855.5 1578.55 855.5 1612.5L823.5 1612.5C823.5 1587.04 813.386 1562.62 795.382 1544.62Z" fill="#2C2C2C"/>
<rect x="823.5" y="1484.5" width="32" height="32" fill="#2C2C2C"/>
<path d="M919.5 1484.5C990.192 1484.5 1047.5 1541.81 1047.5 1612.5H919.5V1484.5Z" fill="#2C2C2C"/>
<path d="M1111.5 1484.5H1120.14C1152.28 1484.5 1178.33 1510.55 1178.33 1542.69C1178.33 1563.06 1188.98 1581.94 1206.4 1592.48L1239.5 1612.5H1111.5L1111.5 1484.5Z" fill="#2C2C2C"/>
<path d="M1360.79 1541.79C1378.6 1523.98 1402.43 1513.58 1427.5 1512.58V1488.56C1396.06 1489.58 1366.13 1502.51 1343.82 1524.82C1321.51 1547.13 1308.58 1577.06 1307.56 1608.5L1331.58 1608.5C1332.58 1583.43 1342.98 1559.6 1360.79 1541.79Z" stroke="#2C2C2C" stroke-width="8"/>
<path fill-rule="evenodd" clip-rule="evenodd" d="M1414.53 1595.53C1419.03 1591.03 1425.13 1588.5 1431.5 1588.5V1580.5C1423.01 1580.5 1414.87 1583.87 1408.87 1589.87C1402.87 1595.87 1399.5 1604.01 1399.5 1612.5L1407.5 1612.5C1407.5 1606.13 1410.03 1600.03 1414.53 1595.53Z" fill="#2C2C2C"/>
<rect width="16" height="16" transform="matrix(-1 0 0 1 1319.5 1484.5)" fill="#2C2C2C"/>
<rect width="8" height="101" transform="matrix(-1 0 0 1 1431.5 1485.5)" fill="#2C2C2C"/>
<rect width="8" height="102" transform="matrix(4.37114e-08 1 1 -4.37114e-08 1304.5 1604.5)" fill="#2C2C2C"/>
<path fill-rule="evenodd" clip-rule="evenodd" d="M1309.16 1484.5L1415.75 1591.09L1410.09 1596.75L1303.5 1490.16V1484.5H1309.16Z" fill="#2C2C2C"/>
<path fill-rule="evenodd" clip-rule="evenodd" d="M1380.74 1484.5L1422.5 1585.31L1415.11 1588.37L1372.08 1484.5H1380.74Z" fill="#2C2C2C"/>
<path fill-rule="evenodd" clip-rule="evenodd" d="M1303.5 1553.81L1409.34 1597.65L1406.27 1605.04L1303.5 1562.47V1553.81Z" fill="#2C2C2C"/>
<g clip-path="url(#clip2_9536_3142)">
<mask id="path-62-inside-1_9536_3142" fill="white">
<path d="M1495.5 1484.5H1527.5V1612.5H1495.5V1484.5Z"/>
</mask>
<path fill-rule="evenodd" clip-rule="evenodd" d="M1513 1490.5H1512.5V1488H1510.5V1490.5H1510V1494.5H1510.5V1495.5H1495.5V1497H1494.5V1612.5H1496.5V1604.5H1510.5V1611H1512.5V1604.5H1526.5V1612.5H1527.5V1604.5V1602.5V1505V1503V1497V1495.5H1528.5V1494.5H1528.75V1490.5H1528.5V1488H1526.5V1490.5H1525.75V1494.5H1526.5V1495.5H1512.5V1494.5H1513V1490.5ZM1526.5 1497H1512.5V1503H1526.5V1497ZM1526.5 1505H1512.5V1508H1518.5H1520.5V1510V1554V1598V1600H1518.5H1512.5V1602.5H1526.5V1505ZM1510.5 1600V1602.5H1496.5V1505H1510.5V1508H1504.5H1502.5V1510V1554V1598V1600H1504.5H1510.5ZM1512.5 1561.75V1598H1518.5V1554V1510H1512.5V1545.25H1510.5V1510H1504.5V1554V1598H1510.5V1561.75H1512.5ZM1510.5 1497H1496.5V1503H1510.5V1497Z" fill="#2C2C2C"/>
<path d="M1495.5 1612.5H1527.5V1610.5H1495.5V1612.5Z" fill="#2C2C2C"/>
<rect x="1507.5" y="1549.94" width="8" height="8" rx="4" fill="#2C2C2C"/>
<rect x="1503.5" y="1546" width="16" height="16" rx="8" stroke="#2C2C2C" stroke-width="2"/>
<rect x="1513.88" y="1486.88" width="3.36705" height="3.36705" transform="rotate(135 1513.88 1486.88)" fill="#2C2C2C"/>
<rect x="1510" y="1498.5" width="3" height="4.5" fill="#2C2C2C"/>
<rect x="1502.56" y="1500.62" width="1.50147" height="1.50147" transform="rotate(-45 1502.56 1500.62)" fill="#2C2C2C"/>
<rect width="1.50147" height="1.50147" transform="matrix(-0.707107 0.707107 0.707107 0.707107 1504.69 1498.5)" fill="#2C2C2C"/>
<rect width="1.50147" height="1.50147" transform="matrix(-0.707107 0.707107 0.707107 0.707107 1502.56 1498.5)" fill="#2C2C2C"/>
<rect x="1502.56" y="1608.37" width="1.50147" height="1.50147" transform="rotate(-45 1502.56 1608.37)" fill="#2C2C2C"/>
<rect width="1.50147" height="1.50147" transform="matrix(-0.707107 0.707107 0.707107 0.707107 1504.69 1606.25)" fill="#2C2C2C"/>
<rect width="1.50147" height="1.50147" transform="matrix(-0.707107 0.707107 0.707107 0.707107 1502.56 1606.25)" fill="#2C2C2C"/>
<rect x="1518.31" y="1500.62" width="1.50147" height="1.50147" transform="rotate(-45 1518.31 1500.62)" fill="#2C2C2C"/>
<rect width="1.50147" height="1.50147" transform="matrix(-0.707107 0.707107 0.707107 0.707107 1520.44 1498.5)" fill="#2C2C2C"/>
<rect width="1.50147" height="1.50147" transform="matrix(-0.707107 0.707107 0.707107 0.707107 1518.31 1498.5)" fill="#2C2C2C"/>
<rect x="1518.31" y="1608.37" width="1.50147" height="1.50147" transform="rotate(-45 1518.31 1608.37)" fill="#2C2C2C"/>
<rect width="1.50147" height="1.50147" transform="matrix(-0.707107 0.707107 0.707107 0.707107 1520.44 1606.25)" fill="#2C2C2C"/>
<rect width="1.50147" height="1.50147" transform="matrix(-0.707107 0.707107 0.707107 0.707107 1518.31 1606.25)" fill="#2C2C2C"/>
<rect x="1529.88" y="1486.88" width="3.36705" height="3.36705" transform="rotate(135 1529.88 1486.88)" fill="#2C2C2C"/>
<rect x="1497.88" y="1486.88" width="3.36705" height="3.36705" transform="rotate(135 1497.88 1486.88)" fill="#2C2C2C"/>
<path d="M1510.02 1553.24L1510.88 1551.94L1511.07 1553.24H1511.91L1512.11 1551.94L1512.96 1553.24L1512.57 1553.97L1513.24 1554.41L1512.92 1555.94L1512.39 1555L1510.59 1555L1510.07 1555.94L1509.74 1554.41L1510.41 1553.97L1510.02 1553.24Z" fill="white"/>
<rect x="1493.75" y="1494.5" width="4" height="3.5" transform="rotate(-90 1493.75 1494.5)" fill="#2C2C2C"/>
<rect x="1494.5" y="1495.5" width="7.5" height="2" transform="rotate(-90 1494.5 1495.5)" fill="#2C2C2C"/>
</g>
<path d="M1527.48 1484.5V1612.5H1527.53V1484.5H1527.48ZM1495.52 1612.5V1484.5H1495.48V1612.5H1495.52Z" fill="#2C2C2C" mask="url(#path-62-inside-1_9536_3142)"/>
<g clip-path="url(#clip3_9536_3142)">
<mask id="path-87-inside-2_9536_3142" fill="white">
<path d="M1527.5 1484.5H1559.5V1612.5H1527.5V1484.5Z"/>
</mask>
<path fill-rule="evenodd" clip-rule="evenodd" d="M1545 1490.5H1544.5V1488H1542.5V1490.5H1542V1494.5H1542.5V1495.5H1527.5V1497H1526.5V1612.5H1528.5V1604.5H1542.5V1611H1544.5V1604.5H1558.5V1612.5H1559.5V1604.5V1602.5V1505V1503V1497V1495.5H1560.5V1494.5H1560.75V1490.5H1560.5V1488H1558.5V1490.5H1557.75V1494.5H1558.5V1495.5H1544.5V1494.5H1545V1490.5ZM1558.5 1497H1544.5V1503H1558.5V1497ZM1558.5 1505H1544.5V1508H1550.5H1552.5V1510V1554V1598V1600H1550.5H1544.5V1602.5H1558.5V1505ZM1542.5 1600V1602.5H1528.5V1505H1542.5V1508H1536.5H1534.5V1510V1554V1598V1600H1536.5H1542.5ZM1544.5 1561.75V1598H1550.5V1554V1510H1544.5V1545.25H1542.5V1510H1536.5V1554V1598H1542.5V1561.75H1544.5ZM1542.5 1497H1528.5V1503H1542.5V1497Z" fill="#2C2C2C"/>
<path d="M1527.5 1612.5H1559.5V1610.5H1527.5V1612.5Z" fill="#2C2C2C"/>
<rect x="1539.5" y="1549.94" width="8" height="8" rx="4" fill="#2C2C2C"/>
<rect x="1535.5" y="1546" width="16" height="16" rx="8" stroke="#2C2C2C" stroke-width="2"/>
<rect x="1545.88" y="1486.88" width="3.36705" height="3.36705" transform="rotate(135 1545.88 1486.88)" fill="#2C2C2C"/>
<rect x="1542" y="1498.5" width="3" height="4.5" fill="#2C2C2C"/>
<rect x="1534.56" y="1500.62" width="1.50147" height="1.50147" transform="rotate(-45 1534.56 1500.62)" fill="#2C2C2C"/>
<rect width="1.50147" height="1.50147" transform="matrix(-0.707107 0.707107 0.707107 0.707107 1536.69 1498.5)" fill="#2C2C2C"/>
<rect width="1.50147" height="1.50147" transform="matrix(-0.707107 0.707107 0.707107 0.707107 1534.56 1498.5)" fill="#2C2C2C"/>
<rect x="1534.56" y="1608.37" width="1.50147" height="1.50147" transform="rotate(-45 1534.56 1608.37)" fill="#2C2C2C"/>
<rect width="1.50147" height="1.50147" transform="matrix(-0.707107 0.707107 0.707107 0.707107 1536.69 1606.25)" fill="#2C2C2C"/>
<rect width="1.50147" height="1.50147" transform="matrix(-0.707107 0.707107 0.707107 0.707107 1534.56 1606.25)" fill="#2C2C2C"/>
<rect x="1550.31" y="1500.62" width="1.50147" height="1.50147" transform="rotate(-45 1550.31 1500.62)" fill="#2C2C2C"/>
<rect width="1.50147" height="1.50147" transform="matrix(-0.707107 0.707107 0.707107 0.707107 1552.44 1498.5)" fill="#2C2C2C"/>
<rect width="1.50147" height="1.50147" transform="matrix(-0.707107 0.707107 0.707107 0.707107 1550.31 1498.5)" fill="#2C2C2C"/>
<rect x="1550.31" y="1608.37" width="1.50147" height="1.50147" transform="rotate(-45 1550.31 1608.37)" fill="#2C2C2C"/>
<rect width="1.50147" height="1.50147" transform="matrix(-0.707107 0.707107 0.707107 0.707107 1552.44 1606.25)" fill="#2C2C2C"/>
<rect width="1.50147" height="1.50147" transform="matrix(-0.707107 0.707107 0.707107 0.707107 1550.31 1606.25)" fill="#2C2C2C"/>
<rect x="1561.88" y="1486.88" width="3.36705" height="3.36705" transform="rotate(135 1561.88 1486.88)" fill="#2C2C2C"/>
<rect x="1529.88" y="1486.88" width="3.36705" height="3.36705" transform="rotate(135 1529.88 1486.88)" fill="#2C2C2C"/>
<path d="M1542.02 1553.24L1542.88 1551.94L1543.07 1553.24H1543.91L1544.11 1551.94L1544.96 1553.24L1544.57 1553.97L1545.24 1554.41L1544.92 1555.94L1544.39 1555L1542.59 1555L1542.07 1555.94L1541.74 1554.41L1542.41 1553.97L1542.02 1553.24Z" fill="white"/>
<rect x="1525.75" y="1494.5" width="4" height="3.5" transform="rotate(-90 1525.75 1494.5)" fill="#2C2C2C"/>
<rect x="1526.5" y="1495.5" width="7.5" height="2" transform="rotate(-90 1526.5 1495.5)" fill="#2C2C2C"/>
</g>
<path d="M1559.48 1484.5V1612.5H1559.53V1484.5H1559.48ZM1527.52 1612.5V1484.5H1527.48V1612.5H1527.52Z" fill="#2C2C2C" mask="url(#path-87-inside-2_9536_3142)"/>
<g clip-path="url(#clip4_9536_3142)">
<mask id="path-112-inside-3_9536_3142" fill="white">
<path d="M1559.5 1484.5H1591.5V1612.5H1559.5V1484.5Z"/>
</mask>
<path fill-rule="evenodd" clip-rule="evenodd" d="M1577 1490.5H1576.5V1488H1574.5V1490.5H1574V1494.5H1574.5V1495.5H1559.5V1497H1558.5V1612.5H1560.5V1604.5H1574.5V1611H1576.5V1604.5H1590.5V1612.5H1591.5V1604.5V1602.5V1505V1503V1497V1495.5H1592.5V1494.5H1592.75V1490.5H1592.5V1488H1590.5V1490.5H1589.75V1494.5H1590.5V1495.5H1576.5V1494.5H1577V1490.5ZM1590.5 1497H1576.5V1503H1590.5V1497ZM1590.5 1505H1576.5V1508H1582.5H1584.5V1510V1554V1598V1600H1582.5H1576.5V1602.5H1590.5V1505ZM1574.5 1600V1602.5H1560.5V1505H1574.5V1508H1568.5H1566.5V1510V1554V1598V1600H1568.5H1574.5ZM1576.5 1561.75V1598H1582.5V1554V1510H1576.5V1545.25H1574.5V1510H1568.5V1554V1598H1574.5V1561.75H1576.5ZM1574.5 1497H1560.5V1503H1574.5V1497Z" fill="#2C2C2C"/>
<path d="M1559.5 1612.5H1591.5V1610.5H1559.5V1612.5Z" fill="#2C2C2C"/>
<rect x="1571.5" y="1549.94" width="8" height="8" rx="4" fill="#2C2C2C"/>
<rect x="1567.5" y="1546" width="16" height="16" rx="8" stroke="#2C2C2C" stroke-width="2"/>
<rect x="1577.88" y="1486.88" width="3.36705" height="3.36705" transform="rotate(135 1577.88 1486.88)" fill="#2C2C2C"/>
<rect x="1574" y="1498.5" width="3" height="4.5" fill="#2C2C2C"/>
<rect x="1566.56" y="1500.62" width="1.50147" height="1.50147" transform="rotate(-45 1566.56 1500.62)" fill="#2C2C2C"/>
<rect width="1.50147" height="1.50147" transform="matrix(-0.707107 0.707107 0.707107 0.707107 1568.69 1498.5)" fill="#2C2C2C"/>
<rect width="1.50147" height="1.50147" transform="matrix(-0.707107 0.707107 0.707107 0.707107 1566.56 1498.5)" fill="#2C2C2C"/>
<rect x="1566.56" y="1608.37" width="1.50147" height="1.50147" transform="rotate(-45 1566.56 1608.37)" fill="#2C2C2C"/>
<rect width="1.50147" height="1.50147" transform="matrix(-0.707107 0.707107 0.707107 0.707107 1568.69 1606.25)" fill="#2C2C2C"/>
<rect width="1.50147" height="1.50147" transform="matrix(-0.707107 0.707107 0.707107 0.707107 1566.56 1606.25)" fill="#2C2C2C"/>
<rect x="1582.31" y="1500.62" width="1.50147" height="1.50147" transform="rotate(-45 1582.31 1500.62)" fill="#2C2C2C"/>
<rect width="1.50147" height="1.50147" transform="matrix(-0.707107 0.707107 0.707107 0.707107 1584.44 1498.5)" fill="#2C2C2C"/>
<rect width="1.50147" height="1.50147" transform="matrix(-0.707107 0.707107 0.707107 0.707107 1582.31 1498.5)" fill="#2C2C2C"/>
<rect x="1582.31" y="1608.37" width="1.50147" height="1.50147" transform="rotate(-45 1582.31 1608.37)" fill="#2C2C2C"/>
<rect width="1.50147" height="1.50147" transform="matrix(-0.707107 0.707107 0.707107 0.707107 1584.44 1606.25)" fill="#2C2C2C"/>
<rect width="1.50147" height="1.50147" transform="matrix(-0.707107 0.707107 0.707107 0.707107 1582.31 1606.25)" fill="#2C2C2C"/>
<rect x="1593.88" y="1486.88" width="3.36705" height="3.36705" transform="rotate(135 1593.88 1486.88)" fill="#2C2C2C"/>
<rect x="1561.88" y="1486.88" width="3.36705" height="3.36705" transform="rotate(135 1561.88 1486.88)" fill="#2C2C2C"/>
<path d="M1574.02 1553.24L1574.88 1551.94L1575.07 1553.24H1575.91L1576.11 1551.94L1576.96 1553.24L1576.57 1553.97L1577.24 1554.41L1576.92 1555.94L1576.39 1555L1574.59 1555L1574.07 1555.94L1573.74 1554.41L1574.41 1553.97L1574.02 1553.24Z" fill="white"/>
<rect x="1557.75" y="1494.5" width="4" height="3.5" transform="rotate(-90 1557.75 1494.5)" fill="#2C2C2C"/>
<rect x="1558.5" y="1495.5" width="7.5" height="2" transform="rotate(-90 1558.5 1495.5)" fill="#2C2C2C"/>
</g>
<path d="M1591.48 1484.5V1612.5H1591.53V1484.5H1591.48ZM1559.52 1612.5V1484.5H1559.48V1612.5H1559.52Z" fill="#2C2C2C" mask="url(#path-112-inside-3_9536_3142)"/>
<g clip-path="url(#clip5_9536_3142)">
<mask id="path-137-inside-4_9536_3142" fill="white">
<path d="M1591.5 1484.5H1623.5V1612.5H1591.5V1484.5Z"/>
</mask>
<path fill-rule="evenodd" clip-rule="evenodd" d="M1609 1490.5H1608.5V1488H1606.5V1490.5H1606V1494.5H1606.5V1495.5H1591.5V1497H1590.5V1612.5H1592.5V1604.5H1606.5V1611H1608.5V1604.5H1622.5V1612.5H1623.5V1604.5V1602.5V1505V1503V1497V1495.5H1624.5V1494.5H1624.75V1490.5H1624.5V1488H1622.5V1490.5H1621.75V1494.5H1622.5V1495.5H1608.5V1494.5H1609V1490.5ZM1622.5 1497H1608.5V1503H1622.5V1497ZM1622.5 1505H1608.5V1508H1614.5H1616.5V1510V1554V1598V1600H1614.5H1608.5V1602.5H1622.5V1505ZM1606.5 1600V1602.5H1592.5V1505H1606.5V1508H1600.5H1598.5V1510V1554V1598V1600H1600.5H1606.5ZM1608.5 1561.75V1598H1614.5V1554V1510H1608.5V1545.25H1606.5V1510H1600.5V1554V1598H1606.5V1561.75H1608.5ZM1606.5 1497H1592.5V1503H1606.5V1497Z" fill="#2C2C2C"/>
<path d="M1591.5 1612.5H1623.5V1610.5H1591.5V1612.5Z" fill="#2C2C2C"/>
<rect x="1603.5" y="1549.94" width="8" height="8" rx="4" fill="#2C2C2C"/>
<rect x="1599.5" y="1546" width="16" height="16" rx="8" stroke="#2C2C2C" stroke-width="2"/>
<rect x="1609.88" y="1486.88" width="3.36705" height="3.36705" transform="rotate(135 1609.88 1486.88)" fill="#2C2C2C"/>
<rect x="1606" y="1498.5" width="3" height="4.5" fill="#2C2C2C"/>
<rect x="1598.56" y="1500.62" width="1.50147" height="1.50147" transform="rotate(-45 1598.56 1500.62)" fill="#2C2C2C"/>
<rect width="1.50147" height="1.50147" transform="matrix(-0.707107 0.707107 0.707107 0.707107 1600.69 1498.5)" fill="#2C2C2C"/>
<rect width="1.50147" height="1.50147" transform="matrix(-0.707107 0.707107 0.707107 0.707107 1598.56 1498.5)" fill="#2C2C2C"/>
<rect x="1598.56" y="1608.37" width="1.50147" height="1.50147" transform="rotate(-45 1598.56 1608.37)" fill="#2C2C2C"/>
<rect width="1.50147" height="1.50147" transform="matrix(-0.707107 0.707107 0.707107 0.707107 1600.69 1606.25)" fill="#2C2C2C"/>
<rect width="1.50147" height="1.50147" transform="matrix(-0.707107 0.707107 0.707107 0.707107 1598.56 1606.25)" fill="#2C2C2C"/>
<rect x="1614.31" y="1500.62" width="1.50147" height="1.50147" transform="rotate(-45 1614.31 1500.62)" fill="#2C2C2C"/>
<rect width="1.50147" height="1.50147" transform="matrix(-0.707107 0.707107 0.707107 0.707107 1616.44 1498.5)" fill="#2C2C2C"/>
<rect width="1.50147" height="1.50147" transform="matrix(-0.707107 0.707107 0.707107 0.707107 1614.31 1498.5)" fill="#2C2C2C"/>
<rect x="1614.31" y="1608.37" width="1.50147" height="1.50147" transform="rotate(-45 1614.31 1608.37)" fill="#2C2C2C"/>
<rect width="1.50147" height="1.50147" transform="matrix(-0.707107 0.707107 0.707107 0.707107 1616.44 1606.25)" fill="#2C2C2C"/>
<rect width="1.50147" height="1.50147" transform="matrix(-0.707107 0.707107 0.707107 0.707107 1614.31 1606.25)" fill="#2C2C2C"/>
<rect x="1625.88" y="1486.88" width="3.36705" height="3.36705" transform="rotate(135 1625.88 1486.88)" fill="#2C2C2C"/>
<rect x="1593.88" y="1486.88" width="3.36705" height="3.36705" transform="rotate(135 1593.88 1486.88)" fill="#2C2C2C"/>
<path d="M1606.02 1553.24L1606.88 1551.94L1607.07 1553.24H1607.91L1608.11 1551.94L1608.96 1553.24L1608.57 1553.97L1609.24 1554.41L1608.92 1555.94L1608.39 1555L1606.59 1555L1606.07 1555.94L1605.74 1554.41L1606.41 1553.97L1606.02 1553.24Z" fill="white"/>
<rect x="1589.75" y="1494.5" width="4" height="3.5" transform="rotate(-90 1589.75 1494.5)" fill="#2C2C2C"/>
<rect x="1590.5" y="1495.5" width="7.5" height="2" transform="rotate(-90 1590.5 1495.5)" fill="#2C2C2C"/>
</g>
<path d="M1623.48 1484.5V1612.5H1623.53V1484.5H1623.48ZM1591.52 1612.5V1484.5H1591.48V1612.5H1591.52Z" fill="#2C2C2C" mask="url(#path-137-inside-4_9536_3142)"/>
<path fill-rule="evenodd" clip-rule="evenodd" d="M1687.5 1532.5C1702.05 1532.5 1716 1537.56 1726.29 1546.56C1736.58 1555.56 1742.36 1567.77 1742.36 1580.5L1760.64 1580.5C1760.64 1567.77 1766.42 1555.56 1776.71 1546.56C1787 1537.56 1800.95 1532.5 1815.5 1532.5V1516.5C1796.1 1516.5 1777.5 1523.24 1763.78 1535.25C1758.9 1539.51 1754.78 1544.33 1751.5 1549.52C1748.22 1544.33 1744.1 1539.51 1739.22 1535.25C1725.5 1523.24 1706.9 1516.5 1687.5 1516.5V1532.5Z" fill="#2C2C2C"/>
<rect x="1735.5" y="1580.5" width="32" height="32" fill="#2C2C2C"/>
<rect x="1879.5" y="1484.5" width="128" height="16" fill="#2C2C2C"/>
<rect x="1951.5" y="1484.5" width="128" height="16" transform="rotate(90 1951.5 1484.5)" fill="#2C2C2C"/>
<rect x="1919.5" y="1484.5" width="128" height="16" transform="rotate(90 1919.5 1484.5)" fill="#2C2C2C"/>
<rect x="1983.5" y="1484.5" width="128" height="16" transform="rotate(90 1983.5 1484.5)" fill="#2C2C2C"/>
<rect x="1879.5" y="1596.5" width="128" height="16" fill="#2C2C2C"/>
<rect x="2071.5" y="1548.5" width="128" height="8" fill="#2C2C2C"/>
<rect x="2143.5" y="1548.5" width="64" height="16" transform="rotate(90 2143.5 1548.5)" fill="#2C2C2C"/>
<rect x="2111.5" y="1548.5" width="64" height="16" transform="rotate(90 2111.5 1548.5)" fill="#2C2C2C"/>
<rect x="2175.5" y="1548.5" width="64" height="16" transform="rotate(90 2175.5 1548.5)" fill="#2C2C2C"/>
<rect x="2071.5" y="1604.5" width="128" height="8" fill="#2C2C2C"/>
<rect x="2071.5" y="1484.5" width="128" height="8" fill="#2C2C2C"/>
<rect x="2143.5" y="1484.5" width="64" height="16" transform="rotate(90 2143.5 1484.5)" fill="#2C2C2C"/>
<rect x="2111.5" y="1484.5" width="64" height="16" transform="rotate(90 2111.5 1484.5)" fill="#2C2C2C"/>
<rect x="2175.5" y="1484.5" width="64" height="16" transform="rotate(90 2175.5 1484.5)" fill="#2C2C2C"/>
<rect x="2071.5" y="1540.5" width="128" height="8" fill="#2C2C2C"/>
<path d="M2342.06 1595.09H2340.15V1602.08H2345.35C2345.6 1601.88 2347.14 1600.89 2349.08 1598.81C2351.01 1596.72 2350.46 1593.1 2349.67 1592.11V1590.92H2351.16V1590.17C2351.16 1589.52 2350.63 1588.98 2349.97 1588.98C2349.31 1588.98 2348.78 1589.52 2348.78 1590.17V1590.92L2348.33 1590.08C2347.96 1589.4 2347.26 1588.98 2346.49 1588.98H2344.16C2344.68 1591.04 2347.12 1591.83 2348.93 1592.11L2347.2 1593.39C2345.71 1594.49 2343.91 1595.09 2342.06 1595.09Z" fill="#2C2C2C"/>
<path d="M2313.08 1595.09H2314.99V1602.08H2309.78C2309.53 1601.88 2308 1600.89 2306.06 1598.81C2304.13 1596.72 2304.67 1593.1 2305.47 1592.11V1590.92H2303.98V1590.17C2303.98 1589.52 2304.51 1588.98 2305.17 1588.98C2305.83 1588.98 2306.36 1589.52 2306.36 1590.17V1590.92L2306.81 1590.08C2307.17 1589.4 2307.88 1588.98 2308.65 1588.98H2310.97C2310.46 1591.04 2308.02 1591.83 2306.21 1592.11L2307.94 1593.39C2309.43 1594.49 2311.23 1595.09 2313.08 1595.09Z" fill="#2C2C2C"/>
<path fill-rule="evenodd" clip-rule="evenodd" d="M2336.13 1502.06H2327.49V1501.47H2336.72V1502.96H2336.13V1502.06Z" fill="#2C2C2C"/>
<path fill-rule="evenodd" clip-rule="evenodd" d="M2318.86 1502.06H2327.49V1501.47H2318.27V1502.96H2318.86V1502.06Z" fill="#2C2C2C"/>
<path fill-rule="evenodd" clip-rule="evenodd" d="M2338.82 1503.55H2327.49V1502.96H2339.4V1508.31H2338.82V1503.55Z" fill="#2C2C2C"/>
<path fill-rule="evenodd" clip-rule="evenodd" d="M2316.17 1503.55H2327.49V1502.96H2315.59V1508.31H2316.17V1503.55Z" fill="#2C2C2C"/>
<path fill-rule="evenodd" clip-rule="evenodd" d="M2327.85 1542.02C2328.2 1541.88 2328.46 1541.54 2328.46 1541.13C2328.46 1540.6 2328.03 1540.17 2327.5 1540.17C2326.97 1540.17 2326.54 1540.6 2326.54 1541.13C2326.54 1541.54 2326.8 1541.88 2327.15 1542.02V1542.72H2326.46V1543.42H2327.15L2327.15 1547.78C2326.63 1547.7 2326.14 1547.46 2325.76 1547.08C2325.3 1546.62 2325.04 1546 2325.04 1545.35L2325.04 1544.51L2323.62 1545.93L2324.12 1546.43L2324.44 1546.1C2324.57 1546.66 2324.86 1547.17 2325.27 1547.58C2325.86 1548.17 2326.66 1548.5 2327.49 1548.5C2328.33 1548.5 2329.13 1548.17 2329.72 1547.58C2330.13 1547.17 2330.41 1546.66 2330.55 1546.1L2330.87 1546.43L2331.36 1545.93L2329.95 1544.51V1545.35C2329.95 1546 2329.69 1546.62 2329.23 1547.08C2328.85 1547.46 2328.37 1547.7 2327.85 1547.77V1543.42H2328.54V1542.72H2327.85V1542.02ZM2327.94 1541.13C2327.94 1541.37 2327.74 1541.57 2327.5 1541.57C2327.26 1541.57 2327.06 1541.37 2327.06 1541.13C2327.06 1540.88 2327.26 1540.69 2327.5 1540.69C2327.74 1540.69 2327.94 1540.88 2327.94 1541.13Z" fill="#2C2C2C"/>
<path fill-rule="evenodd" clip-rule="evenodd" d="M2328.5 1485H2326.5V1486H2323V1487H2332V1486H2328.5V1485ZM2333.75 1487H2327.5H2327.5H2321.25V1487.64C2322.73 1487.64 2323.93 1488.84 2323.93 1490.31V1490.5H2327.5H2327.5H2331.07V1490.31C2331.07 1488.84 2332.27 1487.64 2333.75 1487.64V1487Z" fill="#2C2C2C"/>
<rect x="2327.5" y="1490.5" width="5.5" height="1" fill="#2C2C2C"/>
<rect x="2322" y="1490.5" width="5.5" height="1" fill="#2C2C2C"/>
<path fill-rule="evenodd" clip-rule="evenodd" d="M2331.03 1491.94H2328.21L2329.4 1495.34L2331.03 1491.94ZM2328.09 1493.37V1498.08L2329.04 1496.09L2328.09 1493.37ZM2328.09 1499.45V1501.47H2330.23L2330.38 1499.92L2329.32 1496.89L2328.09 1499.45ZM2330.51 1498.53L2331.02 1493.35L2329.68 1496.14L2330.51 1498.53ZM2327.49 1502.06V1491.35H2331.81L2330.77 1502.06H2327.49Z" fill="#2C2C2C"/>
<path fill-rule="evenodd" clip-rule="evenodd" d="M2324.1 1491.94H2326.93L2325.74 1495.34L2324.1 1491.94ZM2327.05 1493.37V1498.08L2326.1 1496.09L2327.05 1493.37ZM2327.05 1499.45V1501.47H2324.91L2324.76 1499.92L2325.82 1496.89L2327.05 1499.45ZM2324.62 1498.53L2324.12 1493.35L2325.46 1496.14L2324.62 1498.53ZM2327.64 1502.06V1491.35H2323.33L2324.37 1502.06H2327.64Z" fill="#2C2C2C"/>
<rect x="2328.39" y="1503.55" width="0.595349" height="4.76279" fill="#2C2C2C"/>
<rect width="0.595349" height="4.76279" transform="matrix(-1 0 0 1 2326.6 1503.55)" fill="#2C2C2C"/>
<rect x="2330.77" y="1503.55" width="0.595349" height="4.76279" fill="#2C2C2C"/>
<rect width="0.595349" height="4.76279" transform="matrix(-1 0 0 1 2324.22 1503.55)" fill="#2C2C2C"/>
<rect x="2333.45" y="1503.55" width="0.595349" height="4.76279" fill="#2C2C2C"/>
<rect width="0.595349" height="4.76279" transform="matrix(-1 0 0 1 2321.54 1503.55)" fill="#2C2C2C"/>
<rect x="2336.13" y="1503.55" width="0.595349" height="4.76279" fill="#2C2C2C"/>
<rect width="0.595349" height="4.76279" transform="matrix(-1 0 0 1 2318.86 1503.55)" fill="#2C2C2C"/>
<rect x="2327.49" y="1508.31" width="11.907" height="2.67907" fill="#2C2C2C"/>
<rect x="2315.59" y="1508.31" width="11.907" height="2.67907" fill="#2C2C2C"/>
<path fill-rule="evenodd" clip-rule="evenodd" d="M2319.25 1587.35H2327.44H2327.59H2335.78L2336.82 1589.88H2340.09V1602.08H2327.59H2327.44H2314.94V1589.88H2318.21L2319.25 1587.35Z" fill="#2C2C2C"/>
<path fill-rule="evenodd" clip-rule="evenodd" d="M2327.49 1510.99H2315.59C2315.59 1511.16 2315.72 1511.29 2315.88 1511.29H2318.83H2327.49H2336.15H2339.1C2339.27 1511.29 2339.4 1511.16 2339.4 1510.99H2327.49ZM2327.49 1511.29H2317.67C2317.67 1512.77 2318.87 1513.97 2320.35 1513.97H2320.38L2319.19 1587.5H2327.52H2335.86L2334.67 1513.97C2336.13 1513.95 2337.32 1512.76 2337.32 1511.29H2327.49Z" fill="#2C2C2C"/>
<path d="M2339.4 1540.76H2331.07C2334.04 1543.74 2335.23 1547.61 2335.23 1551.48L2337.04 1550.31C2339.2 1548.91 2341.16 1547.22 2342.87 1545.3C2344.05 1543.96 2344.1 1541.98 2343 1540.58L2342.08 1539.42V1537.64H2342.97V1536.89C2342.97 1536.32 2342.51 1535.85 2341.93 1535.85C2341.36 1535.85 2340.89 1536.32 2340.89 1536.89V1539.27C2340.89 1540.09 2340.22 1540.76 2339.4 1540.76Z" fill="#2C2C2C"/>
<path d="M2315.74 1540.76H2324.07C2321.09 1543.74 2319.9 1547.61 2319.9 1551.48L2318.1 1550.31C2315.94 1548.91 2313.98 1547.22 2312.27 1545.3C2311.09 1543.96 2311.03 1541.98 2312.14 1540.58L2313.06 1539.42V1537.64H2312.16V1536.89C2312.16 1536.32 2312.63 1535.85 2313.21 1535.85C2313.78 1535.85 2314.25 1536.32 2314.25 1536.89V1539.27C2314.25 1540.09 2314.91 1540.76 2315.74 1540.76Z" fill="#2C2C2C"/>
<rect x="2327.49" y="1602.08" width="24.707" height="4.46512" fill="#2C2C2C"/>
<rect x="2327.49" y="1606.55" width="32.7442" height="5.95349" fill="#2C2C2C"/>
<rect x="2302.79" y="1602.08" width="24.707" height="4.46512" fill="#2C2C2C"/>
<rect x="2294.75" y="1606.55" width="32.7442" height="5.95349" fill="#2C2C2C"/>
<g clip-path="url(#clip6_9536_3142)">
<path d="M589.919 1688V1706.01C594.016 1701.91 599.816 1700.01 605.544 1700.87L612.689 1701.96C618.193 1702.79 623.676 1700.33 626.71 1695.66V1676.5C623.683 1681.62 617.912 1684.47 612.006 1683.75L605.316 1682.94C599.688 1682.26 594.047 1684.11 589.919 1688Z" fill="#2C2C2C"/>
<path d="M553.129 1706.39V1724.4C557.225 1720.31 563.025 1718.4 568.753 1719.27L575.899 1720.35C581.402 1721.19 586.885 1718.72 589.919 1714.06V1694.9C586.892 1700.02 581.122 1702.86 575.215 1702.15L568.525 1701.34C562.897 1700.65 557.257 1702.51 553.129 1706.39Z" fill="#2C2C2C"/>
<g clip-path="url(#clip7_9536_3142)">
<path d="M553.129 1724.4V1706.39C549.032 1710.49 543.232 1712.39 537.504 1711.53L530.359 1710.44C524.855 1709.61 519.372 1712.07 516.338 1716.74V1735.9C519.365 1730.78 525.136 1727.93 531.042 1728.65L537.732 1729.46C543.36 1730.14 549 1728.29 553.129 1724.4Z" fill="#2C2C2C"/>
</g>
<g clip-path="url(#clip8_9536_3142)">
<path fill-rule="evenodd" clip-rule="evenodd" d="M589.92 1739.35V1746.25C586.893 1751.37 581.122 1754.22 575.216 1753.5L568.526 1752.69C562.898 1752.01 557.258 1753.86 553.129 1757.75V1775.76C557.226 1771.66 563.026 1769.75 568.754 1770.62L575.899 1771.71C581.403 1772.54 586.886 1770.08 589.92 1765.41V1757.36C594.016 1753.27 599.816 1751.36 605.544 1752.23L612.69 1753.31C618.193 1754.14 623.676 1751.68 626.71 1747.01V1727.85C623.683 1732.98 617.913 1735.82 612.006 1735.11L605.316 1734.29C599.688 1733.61 594.048 1735.46 589.92 1739.35ZM553.129 1757.74V1775.76C549.001 1779.64 543.36 1781.49 537.732 1780.81L531.043 1780C525.136 1779.29 519.365 1782.13 516.339 1787.25V1768.09C519.372 1763.42 524.855 1760.96 530.359 1761.8L537.504 1762.88C543.233 1763.75 549.032 1761.84 553.129 1757.74Z" fill="#2C2C2C"/>
</g>
<path d="M589.919 1713.29V1731.3C594.016 1727.21 599.816 1725.3 605.544 1726.17L612.689 1727.25C618.193 1728.08 623.676 1725.62 626.71 1720.96V1701.79C623.683 1706.92 617.912 1709.76 612.006 1709.05L605.316 1708.24C599.688 1707.55 594.047 1709.41 589.919 1713.29Z" fill="#2C2C2C"/>
<path d="M553.129 1731.69V1749.7C557.225 1745.6 563.025 1743.7 568.753 1744.56L575.899 1745.65C581.402 1746.48 586.885 1744.02 589.919 1739.35V1720.19C586.892 1725.31 581.122 1728.16 575.215 1727.44L568.525 1726.63C562.897 1725.95 557.257 1727.8 553.129 1731.69Z" fill="#2C2C2C"/>
<g clip-path="url(#clip9_9536_3142)">
<path d="M553.129 1749.7V1731.69C549.032 1735.78 543.232 1737.69 537.504 1736.82L530.359 1735.74C524.855 1734.9 519.372 1737.37 516.338 1742.03V1761.19C519.365 1756.07 525.136 1753.23 531.042 1753.94L537.732 1754.75C543.36 1755.43 549 1753.58 553.129 1749.7Z" fill="#2C2C2C"/>
</g>
<path d="M663.5 1709.46V1691.45C659.403 1695.54 653.604 1697.45 647.875 1696.58L640.73 1695.5C635.226 1694.66 629.743 1697.13 626.71 1701.79V1720.96C629.736 1715.83 635.507 1712.99 641.414 1713.7L648.103 1714.51C653.731 1715.2 659.372 1713.34 663.5 1709.46Z" fill="#2C2C2C"/>
<path fill-rule="evenodd" clip-rule="evenodd" d="M553.129 1688V1698.34C557.226 1694.25 563.026 1692.34 568.754 1693.21L575.899 1694.29C581.403 1695.13 586.886 1692.66 589.92 1688L553.129 1688ZM553.129 1688V1698.34C549.001 1702.23 543.36 1704.08 537.732 1703.4L535.5 1703.13V1688H553.129Z" fill="#2C2C2C"/>
<path fill-rule="evenodd" clip-rule="evenodd" d="M535.5 1806.6V1788.64L537.504 1788.94C543.233 1789.81 549.032 1787.9 553.129 1783.81V1789.17L535.676 1806.62L535.5 1806.6ZM563.492 1778.81L553.129 1789.17V1783.81C556.017 1781.09 559.645 1779.36 563.492 1778.81Z" fill="#2C2C2C"/>
</g>
<g clip-path="url(#clip10_9536_3142)">
<path d="M781.919 1688V1706.01C786.016 1701.91 791.816 1700.01 797.544 1700.87L804.689 1701.96C810.193 1702.79 815.676 1700.33 818.71 1695.66V1676.5C815.683 1681.62 809.912 1684.47 804.006 1683.75L797.316 1682.94C791.688 1682.26 786.047 1684.11 781.919 1688Z" fill="#2C2C2C"/>
<path d="M745.129 1706.39V1724.4C749.225 1720.31 755.025 1718.4 760.753 1719.27L767.899 1720.35C773.402 1721.19 778.885 1718.72 781.919 1714.06V1694.9C778.892 1700.02 773.122 1702.86 767.215 1702.15L760.525 1701.34C754.897 1700.65 749.257 1702.51 745.129 1706.39Z" fill="#2C2C2C"/>
<g clip-path="url(#clip11_9536_3142)">
<path d="M745.129 1724.4V1706.39C741.032 1710.49 735.232 1712.39 729.504 1711.53L722.359 1710.44C716.855 1709.61 711.372 1712.07 708.338 1716.74V1735.9C711.365 1730.78 717.136 1727.93 723.042 1728.65L729.732 1729.46C735.36 1730.14 741 1728.29 745.129 1724.4Z" fill="#2C2C2C"/>
</g>
<g clip-path="url(#clip12_9536_3142)">
<path fill-rule="evenodd" clip-rule="evenodd" d="M781.92 1739.35V1746.25C778.893 1751.37 773.122 1754.22 767.216 1753.5L760.526 1752.69C754.898 1752.01 749.258 1753.86 745.129 1757.75V1775.76C749.226 1771.66 755.026 1769.75 760.754 1770.62L767.899 1771.71C773.403 1772.54 778.886 1770.08 781.92 1765.41V1757.36C786.016 1753.27 791.816 1751.36 797.544 1752.23L804.69 1753.31C810.193 1754.14 815.676 1751.68 818.71 1747.01V1727.85C815.683 1732.98 809.913 1735.82 804.006 1735.11L797.316 1734.29C791.688 1733.61 786.048 1735.46 781.92 1739.35ZM745.129 1757.74V1775.76C741.001 1779.64 735.36 1781.49 729.732 1780.81L723.043 1780C717.136 1779.29 711.365 1782.13 708.339 1787.25V1768.09C711.372 1763.42 716.855 1760.96 722.359 1761.8L729.504 1762.88C735.233 1763.75 741.032 1761.84 745.129 1757.74Z" fill="#2C2C2C"/>
</g>
<path d="M781.919 1713.29V1731.3C786.016 1727.21 791.816 1725.3 797.544 1726.17L804.689 1727.25C810.193 1728.08 815.676 1725.62 818.71 1720.96V1701.79C815.683 1706.92 809.912 1709.76 804.006 1709.05L797.316 1708.24C791.688 1707.55 786.047 1709.41 781.919 1713.29Z" fill="#2C2C2C"/>
<path d="M745.129 1731.69V1749.7C749.225 1745.6 755.025 1743.7 760.753 1744.56L767.899 1745.65C773.402 1746.48 778.885 1744.02 781.919 1739.35V1720.19C778.892 1725.31 773.122 1728.16 767.215 1727.44L760.525 1726.63C754.897 1725.95 749.257 1727.8 745.129 1731.69Z" fill="#2C2C2C"/>
<g clip-path="url(#clip13_9536_3142)">
<path d="M745.129 1749.7V1731.69C741.032 1735.78 735.232 1737.69 729.504 1736.82L722.359 1735.74C716.855 1734.9 711.372 1737.37 708.338 1742.03V1761.19C711.365 1756.07 717.136 1753.23 723.042 1753.94L729.732 1754.75C735.36 1755.43 741 1753.58 745.129 1749.7Z" fill="#2C2C2C"/>
</g>
<path d="M855.5 1709.46V1691.45C851.403 1695.54 845.604 1697.45 839.875 1696.58L832.73 1695.5C827.226 1694.66 821.743 1697.13 818.71 1701.79V1720.96C821.736 1715.83 827.507 1712.99 833.414 1713.7L840.103 1714.51C845.731 1715.2 851.372 1713.34 855.5 1709.46Z" fill="#2C2C2C"/>
</g>
<g clip-path="url(#clip14_9536_3142)">
<path fill-rule="evenodd" clip-rule="evenodd" d="M938.044 1750.35C929.903 1746.28 920.698 1745.21 912 1747.15V1729.8C923.365 1728.06 935.14 1729.82 945.675 1735.08C956.699 1740.6 969.676 1740.6 980.7 1735.08C996.529 1727.17 1015.16 1727.17 1030.99 1735.08C1036.5 1737.84 1042.5 1739.22 1048.5 1739.22V1756.28C1039.89 1756.28 1031.27 1754.3 1023.36 1750.35C1012.33 1744.83 999.356 1744.83 988.331 1750.35C972.503 1758.26 953.872 1758.26 938.044 1750.35ZM938.044 1785.48C929.903 1781.41 920.698 1780.34 912 1782.28V1764.93C923.365 1763.19 935.14 1764.95 945.675 1770.22C956.699 1775.73 969.676 1775.73 980.7 1770.22C996.529 1762.3 1015.16 1762.3 1030.99 1770.22C1036.5 1772.97 1042.5 1774.35 1048.5 1774.35V1791.41C1039.89 1791.41 1031.27 1789.43 1023.36 1785.48C1012.33 1779.97 999.356 1779.97 988.331 1785.48C972.503 1793.39 953.872 1793.39 938.044 1785.48Z" fill="#2C2C2C"/>
</g>
<rect x="40" y="4" width="64.875" height="30" rx="3" fill="white"/>
<rect x="40.5" y="4.5" width="63.875" height="29" rx="2.5" stroke="black" stroke-opacity="0.2"/>
<path d="M52.9531 14V22H51.9844V14.8594H47.9531V22H46.9844V14H52.9531ZM56.5479 22.1406C56.1676 22.1406 55.8226 22.069 55.5127 21.9258C55.2028 21.7799 54.9567 21.5703 54.7744 21.2969C54.5921 21.0208 54.501 20.6875 54.501 20.2969C54.501 19.9531 54.5687 19.6745 54.7041 19.4609C54.8395 19.2448 55.0205 19.0755 55.2471 18.9531C55.4736 18.8307 55.7236 18.7396 55.9971 18.6797C56.2731 18.6172 56.5505 18.5677 56.8291 18.5313C57.1937 18.4844 57.4893 18.4492 57.7158 18.4258C57.945 18.3997 58.1117 18.3568 58.2158 18.2969C58.3226 18.237 58.376 18.1328 58.376 17.9844V17.9531C58.376 17.5677 58.2705 17.2682 58.0596 17.0547C57.8512 16.8411 57.5348 16.7344 57.1104 16.7344C56.6702 16.7344 56.3252 16.8307 56.0752 17.0234C55.8252 17.2161 55.6494 17.4219 55.5479 17.6406L54.6729 17.3281C54.8291 16.9635 55.0374 16.6797 55.2979 16.4766C55.5609 16.2708 55.8473 16.1276 56.1572 16.0469C56.4697 15.9635 56.777 15.9219 57.0791 15.9219C57.2718 15.9219 57.4932 15.9453 57.7432 15.9922C57.9958 16.0365 58.2393 16.1289 58.4736 16.2695C58.7106 16.4102 58.9072 16.6224 59.0635 16.9062C59.2197 17.1901 59.2979 17.5703 59.2979 18.0469V22H58.376V21.1875H58.3291C58.2666 21.3177 58.1624 21.457 58.0166 21.6055C57.8708 21.7539 57.6768 21.8802 57.4346 21.9844C57.1924 22.0885 56.8968 22.1406 56.5479 22.1406ZM56.6885 21.3125C57.0531 21.3125 57.3604 21.2409 57.6104 21.0977C57.863 20.9544 58.0531 20.7695 58.1807 20.543C58.3109 20.3164 58.376 20.0781 58.376 19.8281V18.9844C58.3369 19.0312 58.251 19.0742 58.1182 19.1133C57.988 19.1497 57.8369 19.1823 57.665 19.2109C57.4958 19.237 57.3304 19.2604 57.1689 19.2812C57.0101 19.2995 56.8812 19.3151 56.7822 19.3281C56.5426 19.3594 56.3187 19.4102 56.1104 19.4805C55.9046 19.5482 55.738 19.651 55.6104 19.7891C55.4854 19.9245 55.4229 20.1094 55.4229 20.3437C55.4229 20.6641 55.5413 20.9062 55.7783 21.0703C56.0179 21.2318 56.3213 21.3125 56.6885 21.3125ZM60.1641 16.8594V16H65.0391V16.8594H63.0703V22H62.1484V16.8594H60.1641ZM66.04 16.8594V16H70.915V16.8594H68.9463V22H68.0244V16.8594H66.04ZM74.4639 22.125C73.8857 22.125 73.387 21.9974 72.9678 21.7422C72.5511 21.4844 72.2295 21.125 72.0029 20.6641C71.779 20.2005 71.667 19.6615 71.667 19.0469C71.667 18.4323 71.779 17.8906 72.0029 17.4219C72.2295 16.9505 72.5446 16.5833 72.9482 16.3203C73.3545 16.0547 73.8285 15.9219 74.3701 15.9219C74.6826 15.9219 74.9912 15.974 75.2959 16.0781C75.6006 16.1823 75.8779 16.3516 76.1279 16.5859C76.3779 16.8177 76.5771 17.125 76.7256 17.5078C76.874 17.8906 76.9482 18.362 76.9482 18.9219V19.3125H72.3232V18.5156H76.0107C76.0107 18.1771 75.943 17.875 75.8076 17.6094C75.6748 17.3437 75.4847 17.1341 75.2373 16.9805C74.9925 16.8268 74.7035 16.75 74.3701 16.75C74.0029 16.75 73.6852 16.8411 73.417 17.0234C73.1514 17.2031 72.9469 17.4375 72.8037 17.7266C72.6605 18.0156 72.5889 18.3255 72.5889 18.6562V19.1875C72.5889 19.6406 72.667 20.0247 72.8232 20.3398C72.9821 20.6523 73.2021 20.8906 73.4834 21.0547C73.7646 21.2161 74.0915 21.2969 74.4639 21.2969C74.7061 21.2969 74.9248 21.263 75.1201 21.1953C75.318 21.125 75.4886 21.0208 75.6318 20.8828C75.7751 20.7422 75.8857 20.5677 75.9639 20.3594L76.8545 20.6094C76.7607 20.9115 76.6032 21.1771 76.3818 21.4062C76.1605 21.6328 75.887 21.8099 75.5615 21.9375C75.236 22.0625 74.8701 22.125 74.4639 22.125ZM78.3506 24.25V16H79.2412V16.9531H79.3506C79.4183 16.849 79.512 16.7161 79.6318 16.5547C79.7542 16.3906 79.9287 16.2448 80.1553 16.1172C80.3844 15.987 80.6943 15.9219 81.085 15.9219C81.5902 15.9219 82.0355 16.0482 82.4209 16.3008C82.8063 16.5534 83.1071 16.9115 83.3232 17.375C83.5394 17.8385 83.6475 18.3854 83.6475 19.0156C83.6475 19.651 83.5394 20.2018 83.3232 20.668C83.1071 21.1315 82.8076 21.4909 82.4248 21.7461C82.042 21.9987 81.6006 22.125 81.1006 22.125C80.7152 22.125 80.4066 22.0612 80.1748 21.9336C79.943 21.8034 79.7646 21.6562 79.6396 21.4922C79.5146 21.3255 79.4183 21.1875 79.3506 21.0781H79.2725V24.25H78.3506ZM79.2568 19C79.2568 19.4531 79.3232 19.8529 79.4561 20.1992C79.5889 20.543 79.7829 20.8125 80.0381 21.0078C80.2933 21.2005 80.6058 21.2969 80.9756 21.2969C81.361 21.2969 81.6826 21.1953 81.9404 20.9922C82.2008 20.7865 82.3962 20.5104 82.5264 20.1641C82.6592 19.8151 82.7256 19.4271 82.7256 19C82.7256 18.5781 82.6605 18.1979 82.5303 17.8594C82.4027 17.5182 82.2087 17.2487 81.9482 17.0508C81.6904 16.8503 81.3662 16.75 80.9756 16.75C80.6006 16.75 80.2855 16.8451 80.0303 17.0352C79.7751 17.2227 79.5824 17.4857 79.4521 17.8242C79.3219 18.1602 79.2568 18.5521 79.2568 19ZM89.0693 18.5781V19.4375H85.7568V18.5781H89.0693ZM85.9756 16V22H85.0537V16H85.9756ZM89.7725 16V22H88.8506V16H89.7725ZM92.2529 18.1719H93.9717C94.6748 18.1719 95.2126 18.3503 95.585 18.707C95.9574 19.0638 96.1436 19.5156 96.1436 20.0625C96.1436 20.4219 96.0602 20.7487 95.8936 21.043C95.7269 21.3346 95.4821 21.5677 95.1592 21.7422C94.8363 21.9141 94.4404 22 93.9717 22H91.4561V16H92.3779V21.1406H93.9717C94.3363 21.1406 94.6357 21.0443 94.8701 20.8516C95.1045 20.6589 95.2217 20.4115 95.2217 20.1094C95.2217 19.7917 95.1045 19.5326 94.8701 19.332C94.6357 19.1315 94.3363 19.0312 93.9717 19.0312H92.2529V18.1719ZM97.0967 22V16H98.0186V22H97.0967Z" fill="black"/>
<defs>
<clipPath id="clip0_9536_3142">
<rect width="128" height="128" fill="white" transform="translate(727.5 716.5)"/>
</clipPath>
<clipPath id="clip1_9536_3142">
<rect width="128" height="128" fill="white" transform="translate(727.5 1292.5)"/>
</clipPath>
<clipPath id="clip2_9536_3142">
<path d="M1495.5 1484.5H1527.5V1612.5H1495.5V1484.5Z" fill="white"/>
</clipPath>
<clipPath id="clip3_9536_3142">
<path d="M1527.5 1484.5H1559.5V1612.5H1527.5V1484.5Z" fill="white"/>
</clipPath>
<clipPath id="clip4_9536_3142">
<path d="M1559.5 1484.5H1591.5V1612.5H1559.5V1484.5Z" fill="white"/>
</clipPath>
<clipPath id="clip5_9536_3142">
<path d="M1591.5 1484.5H1623.5V1612.5H1591.5V1484.5Z" fill="white"/>
</clipPath>
<clipPath id="clip6_9536_3142">
<rect width="128" height="128" fill="white" transform="translate(535.5 1676.5)"/>
</clipPath>
<clipPath id="clip7_9536_3142">
<rect width="17.6287" height="29.1257" fill="white" transform="translate(535.5 1706.39)"/>
</clipPath>
<clipPath id="clip8_9536_3142">
<rect width="74.3473" height="59.018" fill="white" transform="translate(535.5 1727.85)"/>
</clipPath>
<clipPath id="clip9_9536_3142">
<rect width="17.6287" height="29.1257" fill="white" transform="translate(535.5 1731.69)"/>
</clipPath>
<clipPath id="clip10_9536_3142">
<rect width="128" height="128" fill="white" transform="translate(727.5 1676.5)"/>
</clipPath>
<clipPath id="clip11_9536_3142">
<rect width="17.6287" height="29.1257" fill="white" transform="translate(727.5 1706.39)"/>
</clipPath>
<clipPath id="clip12_9536_3142">
<rect width="74.3473" height="59.018" fill="white" transform="translate(727.5 1727.85)"/>
</clipPath>
<clipPath id="clip13_9536_3142">
<rect width="17.6287" height="29.1257" fill="white" transform="translate(727.5 1731.69)"/>
</clipPath>
<clipPath id="clip14_9536_3142">
<rect width="128" height="128" fill="white" transform="translate(919.5 1676.5)"/>
</clipPath>
</defs>
</svg>
